<?xml version="1.0" encoding="utf-8"?>
<!-- Generator: Adobe Illustrator 25.0.0, SVG Export Plug-In . SVG Version: 6.00 Build 0)  -->
<svg version="1.1" id="Camada_1" xmlns="http://www.w3.org/2000/svg" xmlns:xlink="http://www.w3.org/1999/xlink" x="0px" y="0px"
	 viewBox="0 10 52 64" style="enable-background:new 0 0 42 54;" xml:space="preserve">
<style type="text/css">
	.st0{fill:#FFFFFF;}
	.st1{filter:url(#Adobe_OpacityMaskFilter);}
	.st2{mask:url(#logo_fcfamalicao-b_1_);fill:url(#SVGID_1_);}
	.st3{fill:#0054A0;}
	.st4{fill:#F5C52A;}
</style>
<g>
	<path class="st0" d="M38.4,19.5c0.4-0.7,0.6-1.5,0.6-2.4c0-0.3-0.2-0.5-0.5-0.5c0-0.5,0-1.1-0.4-1.6c0-0.1-0.1-0.1-0.2-0.2
		c0-0.4,0-0.8-0.1-1.2c-0.1-0.2-0.3-0.4-0.5-0.4c-0.1-0.7-0.5-1.3-1-2C36.2,11.1,36,11,35.8,11c-0.3,0.1-0.6,0.2-0.8,0.4
		c-0.1,0-0.2-0.1-0.3-0.1c-0.1,0-0.3,0-0.4,0.1c-0.2-0.6-0.5-1.2-0.9-1.6c-0.2-0.2-0.5-0.2-0.7,0c-0.5,0.5-0.9,1-1.2,1.6
		c-0.2-0.1-0.3-0.1-0.5-0.1c-0.2,0-0.4,0.1-0.5,0.3c-0.5,0.8-0.6,1.8-0.6,2.8c-0.1,0-0.3,0-0.4,0c-0.2,0-0.4,0.2-0.4,0.4
		c-5.6-2-11-2-16.2-0.1c0,0,0-0.1,0-0.1c-0.1-0.3-0.3-0.4-0.6-0.4l-0.3,0c0-1.1-0.3-2.1-0.8-2.9c-0.1-0.1-0.2-0.2-0.4-0.2
		c-0.2,0-0.3,0-0.4,0c-0.3-0.6-0.7-1.2-1.3-1.7C9.1,9.3,8.9,9.2,8.8,9.2c-0.2,0-0.3,0.1-0.4,0.2C8,10,7.7,10.5,7.5,11
		C7.4,11,7.2,11,7,11c-0.1,0-0.1,0-0.2,0c-0.2-0.1-0.4-0.2-0.6-0.4c-0.2-0.1-0.5-0.1-0.7,0.1c-0.5,0.6-0.9,1.3-1,2
		c-0.2,0-0.5,0.1-0.6,0.3c-0.2,0.5-0.1,1-0.1,1.4c-0.1,0-0.1,0.1-0.2,0.2c-0.3,0.4-0.4,0.9-0.4,1.5c-0.1,0-0.2,0-0.2,0.1
		c-0.1,0.1-0.2,0.2-0.2,0.4c-0.1,1.1,0.1,1.9,0.6,2.6l-0.3,0.5c-0.1,0.2-0.1,0.4,0,0.6c0.8,1.2,1.1,2.5,0.9,4.1c0,0.1,0,0.3,0.1,0.4
		L5,25.8C5.1,25.9,5.2,26,5.3,26l0,0.1c-0.2,0.1-0.3,0.3-0.2,0.6l0.4,1.7c-0.2,0.1-0.3,0.3-0.3,0.5l0,0.8c0,0.2,0.1,0.3,0.2,0.4
		C6.4,30.9,7,32.1,7,33.6c0,0.2,0.1,0.4,0.3,0.5l0.5,0.3l1,1.6c-0.1,0.1-0.1,0.3-0.1,0.4l0.3,1.1c0,0.2,0.2,0.3,0.4,0.4
		c0.9,0.2,1.5,0.6,2,1.3c0.1,0.1,0.2,0.2,0.4,0.2l0.1,0c-0.5,0.3-1.2,0.5-2.1,0.6c-0.3,0-0.5,0.3-0.5,0.5l0,0.7
		c0,0.2,0.2,0.4,0.4,0.5c0.9,0.2,1.5,0.6,1.8,1.2c0.1,0.1,0.2,0.2,0.3,0.2c1,0.3,2.1,0.3,3.2,0.1c0.3-0.1,0.5-0.3,0.4-0.6l-0.2-1.6
		l0.2-0.2l0.2,0.1c0.6,1.8,1.5,2.4,3.4,2.3c0.5,0.4,1.2,0.5,2,0.4c0.2,0,0.4,0.1,0.6,0.1c0.5,0,0.9-0.1,1.3-0.4
		c1.2,0.2,2.6-0.1,3.5-2.2l0.1,0.2l-0.2,1.5c0,0.2,0,0.3,0.1,0.4c0.1,0.1,0.2,0.2,0.4,0.2l2.9-0.1c0.2,0,0.4-0.1,0.4-0.3
		c0.6-1,1.2-1.1,1.6-1c0.3,0,0.5-0.2,0.5-0.4l0.2-0.8c0-0.1,0-0.3-0.1-0.4c-0.1-0.1-0.2-0.2-0.4-0.2c-0.7-0.1-1.2-0.2-1.9-0.6
		c0.1,0,0.1-0.1,0.1-0.2c0.5-0.8,1.1-1.2,2.1-1.3c0.2,0,0.4-0.2,0.4-0.4c0-0.1,0-0.2,0.1-0.3c0.1-0.3,0.2-0.8,0-1.2l1-1.6l0.6-0.2
		c0.2-0.1,0.3-0.3,0.3-0.5c-0.1-1.7,0.7-2.9,1.5-3.3c0.2-0.1,0.3-0.3,0.3-0.5l0-0.9c0-0.2-0.1-0.4-0.3-0.5c0.3-0.7,0.4-1.3,0.3-2
		c0-0.1-0.1-0.2-0.2-0.3l0.1-0.1c0.3-0.2,0.6-0.5,0.8-0.8c0.1-0.1,0.2-0.2,0.3-0.3c0.1-0.1,0.2-0.3,0.1-0.5c-0.3-1.4,0-2.7,1-3.9
		c0.1-0.2,0.2-0.4,0.1-0.6L38.4,19.5z"/>
	<g>
		<g transform="translate(0 .448)">
			<defs>
				<filter id="Adobe_OpacityMaskFilter" filterUnits="userSpaceOnUse" x="3.4" y="9.3" width="35.1" height="33.5">
					<feColorMatrix  type="matrix" values="1 0 0 0 0  0 1 0 0 0  0 0 1 0 0  0 0 0 1 0"/>
				</filter>
			</defs>
			<mask maskUnits="userSpaceOnUse" x="3.4" y="9.3" width="35.1" height="33.5" id="logo_fcfamalicao-b_1_">
				<g class="st1">
					<polygon id="logo_fcfamalicao-a_1_" class="st0" points="38.5,9.3 38.5,42.8 3.4,42.8 3.4,9.3 					"/>
				</g>
			</mask>
			<radialGradient id="SVGID_1_" cx="20.9262" cy="26.0693" r="17.1594" gradientUnits="userSpaceOnUse">
				<stop  offset="0" style="stop-color:#00539F"/>
				<stop  offset="5.329043e-02" style="stop-color:#004D93"/>
				<stop  offset="0.211" style="stop-color:#013F75"/>
				<stop  offset="0.3777" style="stop-color:#01335E"/>
				<stop  offset="0.5552" style="stop-color:#022B4D"/>
				<stop  offset="0.7508" style="stop-color:#022743"/>
				<stop  offset="1" style="stop-color:#022540"/>
			</radialGradient>
			<path class="st2" d="M8.8,9.3L8.8,9.3c0.8,0.6,1.2,1.3,1.4,2.1c0.2-0.1,0.3-0.4,0.7-0.4c0.5,0.8,0.8,1.8,0.7,3.2l0.9-0.1
				c0.1,0.3,0,0.5,0,0.8c6-2.4,11.8-2,17.2,0.1l0-0.6c0.3,0,0.6,0.1,0.8,0.2c0-1.2,0-2.3,0.5-3.2c0.3,0,0.6,0.2,0.8,0.4
				c0.2-0.8,0.7-1.5,1.3-2c0.5,0.5,0.8,1.2,0.9,2.1c0.2-0.2,0.5-0.4,0.8-0.4l0.3,0.3c0.3-0.3,0.5-0.6,0.8-0.6c0.6,0.7,0.9,1.4,1,2.2
				l0.4,0c0.1,0.6,0.2,1.2,0,1.7l0.4-0.2c0.4,0.6,0.4,1.2,0.3,1.8l0.5,0c0,0.9-0.2,1.7-0.6,2.4l0.4,1c-1.1,1.3-1.4,2.8-1.1,4.3
				c-0.3,0.4-0.6,1-1,1l-0.4,0.9l0.4,0c0.1,0.8-0.1,1.5-0.5,2.3l0.5,0.2l0,0.9c-1.3,0.6-1.9,2.3-1.8,3.8l-0.7,0.3l-1.3,2
				c0.4,0.4,0,1,0,1.4c-1.2,0.2-1.9,0.7-2.5,1.6l-1.3,0c1.4,1.1,2.2,1.5,3.4,1.6l-0.2,0.8c-0.9,0-1.6,0.4-2.1,1.3l-2.9,0.1l0.2-1.7
				L26.4,40l-0.6,0.2c-0.6,1.7-1.6,2.5-3.2,2.1c-0.5,0.4-0.9,0.6-1.8,0.4c-0.8,0.1-1.4,0-1.8-0.4c-1.7,0.2-2.5-0.2-3.1-2.1l-0.7-0.4
				l-0.6,0.7l0.3,1.8c-0.9,0.2-1.9,0.2-2.9-0.1c-0.4-0.7-1.2-1.1-2.2-1.4l0-0.7c1.7-0.2,2.7-0.8,3.5-1.5l-1.5-0.1
				c-0.5-0.7-1.2-1.3-2.3-1.5l-0.1-0.6l-0.1-0.5l0.3-0.2l-1.3-2.2l-0.6-0.4c0-1.7-0.6-3-1.8-3.9l0-0.8l0.4-0.1l-0.5-2.2l0.4-0.1
				l-0.4-1l-0.2,0.1L4.6,24c0.2-1.8-0.2-3.2-1-4.4l0.5-0.9c-0.5-0.6-0.8-1.4-0.7-2.5l0.5,0.1c-0.1-0.7,0-1.3,0.3-1.8l0.4,0.1
				c0-0.6-0.3-1.1,0-1.7L5,12.9c0-0.9,0.4-1.7,1-2.3c0.5,0.3,0.8,0.5,1,0.8L7,11c0.5,0,0.6,0.2,0.9,0.4C8,10.7,8.3,10,8.8,9.3"/>
		</g>
		<path class="st0" d="M21.2,38.3c4.7-0.3,8.1-3.7,8.2-7.3l0.1-9.9c-1.9-0.8-5.7-1.3-8.2-1.3V38.3z"/>
		<polygon class="st3" points="13.2,36.4 13.4,36.7 13.7,36.6 13.5,36.4 		"/>
		<polygon class="st3" points="12.7,40.5 13,40.9 13.3,40.8 12.9,40.3 		"/>
		<g>
			<path class="st4" d="M9.1,28.8l1,0.3c-0.3-0.4-0.4-0.8-0.4-1.3L9.1,28.8z"/>
			<path class="st4" d="M11.7,26.7l0.1-1.1c-1.9-1.7-4-1.9-5.7-1.4l-0.1-0.2c1.9-0.6,3.8-0.6,5.9,1v-2.6c-2.2-2.2-4.7-3.3-7.4-3
				l-0.3,0.7c0.9,1,1.4,2.5,1.3,4.4L5.8,25C7.9,24,10,24.4,11.7,26.7z M9.1,21.2h0.2c0.1,0.2,0.1,0.4,0,0.7H9.1
				C9,21.7,9,21.4,9.1,21.2z M8.1,20.6c0.2,0.2,0.3,0.5,0.2,0.8H8.1c-0.2-0.3-0.2-0.5-0.3-0.8L8.1,20.6z M7.3,20.3
				c0.1,0.4,0.2,0.8,0.2,1.4c-0.1,0.1-0.2,0.1-0.3,0l-0.4-1.4L7.3,20.3z M6.2,20.1c0.3,0.7,0.4,1.3,0.3,1.9H6.3
				c-0.2-0.6-0.4-1.2-0.8-1.9L6.2,20.1z M5.8,22.4H5.5c-0.2-0.8-0.5-1.6-0.9-2.4C4.8,20,5,20,5.2,20C5.7,20.8,5.8,21.6,5.8,22.4z"/>
			<path class="st4" d="M11.7,30l0-0.9h-0.2v0.3l-0.3,0c-0.2-0.5-0.1-1-0.6-1.5l-0.4,0C10.4,29.2,11,29.7,11.7,30z"/>
			<polygon class="st4" points="11.1,27.3 11.3,27.3 11.6,28.7 11.8,28.7 11.8,27.5 10.6,26.1 10.6,27.6 11,27.6 			"/>
			<path class="st4" d="M9.4,25.4l-0.2,1.4l0.6,0.1l0,0.7l0.4-0.1l0.1-1.5C10,25.7,9.7,25.5,9.4,25.4z"/>
			<path class="st4" d="M12.5,33.6L12.3,33c-1.3-0.5-2.6-0.7-4,0l-0.1-0.2c1.5-0.7,2.8-0.7,4-0.1c-0.3-0.6-0.4-1.3-0.4-1.9
				c-1.4-1.5-3.3-2.2-5.7-1.9v0.6c1.2,1,1.9,2.3,1.9,3.9l0.3,0.1C10,32.8,11.3,33.1,12.5,33.6z M10.6,30.3c0.1,0.2,0.1,0.5,0.1,0.8
				l-0.3,0c-0.1-0.2-0.2-0.5-0.2-0.8H10.6z M9.5,30c0.2,0.3,0.3,0.7,0.4,1.2l-0.3,0.1L9,30L9.5,30z M8.3,29.7
				c0.3,0.4,0.5,0.8,0.7,1.4l-0.2,0.2c-0.3-0.6-0.6-1.1-0.9-1.6L8.3,29.7z M6.9,29.8l0.5-0.1c0.5,0.5,0.9,1.2,1.1,1.9l-0.2,0.2
				C7.8,31,7.3,30.3,6.9,29.8z"/>
			<path class="st4" d="M7,27l-0.9-0.2c0,0.6,0.1,1.2,0.4,1.8l2.1,0.1l0.8-1.5l-0.8,0.3c0.2-0.7,0.3-1.5,0.3-2.3
				c-0.9-0.5-1.8-0.5-2.7,0c0.1,0.6,0.3,1,0.8,1.4l0-1.1h0.2l0.2,0.5l0.8-0.2l-0.6,0.6l0.1,1.1l0.3,0.2l-0.3,0.1l0,0.5l-0.4,0.1
				l-0.1-0.5H6.9l-0.1-0.2l0.3-0.2L7,27z"/>
			<path class="st4" d="M10,35.8l-0.9-1.3l0.3,0l0.8,1.3l0.4-0.1v-0.8L10.2,35c0-0.8-0.6-0.9-0.8-1.4c-0.3,0.1-0.6,0.2-0.8,0.4
				c0.4,0.7,0.8,1.3,1.2,1.9L10,35.8z"/>
			<path class="st4" d="M12.2,34.7L12,35.1l0.8,0.6l0.7,0l-1-0.6L13,35l-0.4-0.4l0.4,0l-0.1-0.2c-0.6-0.4-1.1-0.6-1.6-0.6L12.2,34.7
				z"/>
			<path class="st4" d="M12.2,35.6l-0.6-0.5l0.1-0.4l-1.1-1.2l-0.9,0c0.2,0.3,0.7,0.6,0.7,1l0.5,0.1v1L12.2,35.6z"/>
			<path class="st4" d="M12.2,38.6h0.7c0.6-0.9,1.8-1.2,3.2-1.1l-1.7-1.2c-2-0.5-3.5-0.4-4.7,0.3l0.2,0.7
				C10.8,37.6,11.6,38,12.2,38.6z M15,37.1l0.1,0.2c-0.8,0.2-1.6,0.4-2.4,1l-0.4-0.2C13.2,37.4,14.1,37.1,15,37.1z M12.6,36.3
				l0.3,0.3l-0.4,0.1l-0.4-0.4H12.6z M11.6,36.4l0.6,0.6L12,37.1c-0.3-0.2-0.5-0.4-0.8-0.6L11.6,36.4z M11.7,37.5l-1.5-0.7l0.5-0.2
				l1,0.7L11.7,37.5z"/>
			<path class="st4" d="M10.3,41v0.3c0.8,0.1,1.4,0.5,1.8,1.1c1.3-0.4,2.2-1.1,2.8-2.1l-1.5-0.9C12.5,40.1,11.5,40.6,10.3,41z
				 M12.2,41.9L11.4,41l0.3-0.1l0.6,0.8L12.2,41.9z M12.6,41.4l-0.5-0.6l0.4-0.1l0.4,0.6L12.6,41.4z"/>
			<path class="st4" d="M12.7,42.6h1.6l0-1.1C13.8,42,13.2,42.4,12.7,42.6z"/>
			<path class="st4" d="M17,40.4l0.2,0.5c0.7,0,1.2-0.5,1.5-1.2c-0.4-0.2-1.4,0.2-1.3-0.5c-0.4-0.1-1,0.1-1.2-0.3l0.2-0.3
				c-0.8-0.9-2.1-0.7-3.1,0.2c0.7,0.6,1.4,1,2,1.2c0.1-0.1-0.1-0.8,0.3-0.3C16.2,40.7,16.7,40.9,17,40.4z M16.1,39.9l-0.6-0.8
				c-0.2-0.1-0.3-0.4-0.4,0c-0.2,0.4-0.9-0.2-1.4-0.3l0.2-0.1l0.8,0.1c0.2-0.4,0.5-0.5,0.9-0.1l0.8,0.9c0.3-0.4,0.8,0,1.3,0.7
				c-0.5,0.3-0.7-0.2-1-0.3C16.5,40.2,16.3,40.2,16.1,39.9z"/>
			<path class="st4" d="M17,38.4c-0.5,0.4-0.2,0.6,0.8,0.6c0,0.6,0.7,0.4,1,0.6l0.1-0.8c-0.9-0.3-1.7-0.6-2.7-0.6
				C16.1,38.2,16.8,38.3,17,38.4z"/>
			<path class="st4" d="M22.6,38.7c-1,0.2-2.1,0.2-3.2-0.1c-0.3,1.6-1,2.6-2.5,2.7c0.2,0.9,0.9,1.2,1.9,1.1c0.6-0.7,1.1-1.5,1.5-2.6
				l0.2,0c-0.3,1-0.6,1.9-1.1,2.6c0.4,0.3,0.8,0.4,1.3,0.2c0.2-0.4,0.4-0.4,0.5,0c0.5,0.1,0.9,0.1,1.2-0.1c-0.5-0.9-0.8-1.8-0.9-2.8
				h0.1c0.4,1.2,0.9,2,1.4,2.7c1.2,0.1,1.8-0.2,1.9-1.1C23.4,41.3,22.7,40.4,22.6,38.7z"/>
			<path class="st4" d="M27.1,42.6l1.8,0.1c-0.5-0.2-1-0.7-1.7-1.2L27.1,42.6z"/>
			<path class="st4" d="M26.7,40.3c0.7,1.2,1.7,1.7,2.7,2.1c0.7-0.6,1.3-1.1,1.9-1.2v-0.1c-1-0.3-2-0.7-3-1.7
				C27.8,39.8,27.3,40.1,26.7,40.3z M30.3,41.1l-0.8,0.8l-0.2-0.1l0.5-0.7L30.3,41.1z M29.6,40.9L29,41.5l-0.3-0.2l0.5-0.6
				L29.6,40.9z M28.9,40.3l0.2,0.2l-0.5,0.6L28.4,41L28.9,40.3z"/>
			<path class="st4" d="M28.5,39c-0.6-0.7-1.4-1.1-2.3-1c-0.1,0.2-0.4,0.4-0.7,0.6c0.3,0.2,0.2,0.4-1.1,0.7c0.1,0.2-0.3,0.4-1,0.4
				l-0.1-0.2c0.3-0.1,0.6-0.1,0.8-0.2c-0.4-0.5,0.6-0.3,0.9-0.4c-0.5-0.8,0.5-0.3,0.9-0.9l-0.8,0c-0.7,0.3-1.5,0.5-2.3,0.7
				c0.1,1.3,0.7,2,1.7,2.2c0.1-0.6,0.3-0.7,0.5-0.2c0.3-0.1,0.6-0.2,0.9-0.4c0.3-1,0.5-1.1,0.4-0.2C27.1,39.9,27.8,39.5,28.5,39z
				 M25,40l-0.8,0.5l-0.3-0.2c0.5-0.2,0.8-1.1,1.4-0.7c0.5-0.6,1-1,1.4-1c0.3,0.5,0.8,0.1,1.2,0.2l0,0.2c-0.5,0-1.2,0.6-1.5-0.1
				C25.7,39.1,25.3,40.5,25,40z"/>
			<path class="st4" d="M27.9,36.2c-0.5,0.5-1.1,0.9-1.7,1.4c1.4,0.1,2.3,0.6,2.7,1.3l0.6,0c0.8-0.6,1.6-1,2.3-1.3l0.1-0.8
				C30.7,35.9,29.3,35.9,27.9,36.2z M28.4,36.5l0.2,0l-0.3,0.3l-0.2-0.1L28.4,36.5z M29.2,38.4c-0.6-0.6-1.4-0.9-2.3-1l0.1-0.1
				c1,0.1,1.8,0.4,2.4,0.9L29.2,38.4z M31.5,37l-1.2,0.5L30,37.5l0.9-0.6L31.5,37z M30.6,36.7l-0.8,0.6l-0.2-0.2l0.6-0.5L30.6,36.7z
				 M29,36.9l-0.2-0.1l0.3-0.4l0.5,0.1L29,36.9z"/>
			<path class="st4" d="M29.6,35.2c-0.2-0.6,0.6-0.9,0.9-1.4c-0.8,0.1-1.2,0.3-1.5,0.8l0.3,0l-0.2,0.4l0.2,0.1
				c-0.8,0.1-0.7,0.4-1,0.6l0.7,0L29.6,35.2z"/>
			<path class="st4" d="M31.2,34.8c0.1-0.4,0.4-0.7,0.8-1.1l-1.1,0c-0.3,0.5-0.6,0.8-0.9,1.1c0.1,0.7-0.3,0.6-0.4,0.9l1,0.1
				C30.8,35.5,30.2,34.5,31.2,34.8z"/>
			<path class="st4" d="M32.4,33.8C31,35,31.8,35.4,31,35.1v0.8l0.5,0.2l1-1.4l0.1,0.1l-0.8,1.3l0.3,0.1l1.2-1.9
				C33,34,32.8,33.9,32.4,33.8z"/>
			<path class="st4" d="M30.2,30.8c-0.2,1.2-0.4,2.2-0.6,3c1.6-0.6,2.9-0.5,4,0.1l0.3-0.1c0.2-1.7,0.8-3.1,1.9-3.8v-0.7
				C33.9,28.8,32,29.3,30.2,30.8z M33.9,30c-0.4,0.5-0.7,1-0.9,1.4l-0.2,0c0.1-0.5,0.3-0.9,0.6-1.4L33.9,30z M32.4,30.1l0.5,0
				c-0.3,0.5-0.5,0.9-0.6,1.3H32C32.1,31,32.1,30.6,32.4,30.1z M31.4,30.4l0.4,0l-0.3,0.7h-0.2L31.4,30.4z M33.3,33.3
				c-1-0.5-2.1-0.5-3.3-0.3l0-0.2c1.1-0.5,2.3-0.5,3.4,0.3L33.3,33.3z M35,29.9c-0.6,0.6-1,1.3-1.3,1.9l-0.2-0.1
				c0.2-0.6,0.5-1.2,0.9-1.9L35,29.9z"/>
			<path class="st4" d="M30.7,27.5h0.1l0.1,0.6l0.5-0.5l0-1.4c-0.4,0.2-0.8,0.7-1.2,1.2V29l0.1,0L30.7,27.5z"/>
			<path class="st4" d="M30.2,30.3c0.9-0.3,1.5-1,1.6-2.3l-0.6,0.1c-0.3,0.5-0.4,1.2-0.7,1.6l-0.2-0.3l-0.2,0.1L30.2,30.3z"/>
			<path class="st4" d="M31.7,26c0.2,0.5,0.2,1.1,0.1,1.7l0.4,0c-0.1-0.6,0.1-0.7,0.6-0.5c-0.1-0.6-0.2-1.1-0.1-1.6L31.7,26z"/>
			<path class="st4" d="M31.8,29.4c0.4-0.2,0.8-0.3,1.2-0.3l-0.8-1.1L31.8,29.4z"/>
			<path class="st4" d="M33.1,25.4c0,1,0.1,1.7,0.3,2.3c-0.2-0.1-0.5-0.3-0.7-0.3c0,0.5,0.3,1,0.7,1.4l2,0.1
				c0.3-0.8,0.5-1.4,0.5-1.9c-0.3,0-0.5,0-0.8,0.2c0.4-0.6,0.7-1.1,0.8-1.5C35.1,25.1,34.2,25,33.1,25.4z M35,27.8V28l-0.3,0.1
				l-0.1,0.4l-0.3,0v-0.5H34l0-0.2l0.3,0l0.2-1.2l-0.6-0.4l0.1-0.1c0.2,0,0.4,0.1,0.6,0.3l0.3-0.4l0.2,0c0,0.7-0.1,1.3-0.3,1.9
				L35,27.8z"/>
			<path class="st4" d="M7.2,14.4c0,0.7,0.2,1.5,0.5,1.9l0.1-1.5l1,0.1L8.2,14l0.1-0.1l0.5,0.4c0.1-0.7-0.3-2.1,0.4-2.1l0,1.7
				c0.3-0.4,0.6-0.6,0.8-0.7c0.4,0.2,0.7,0.6,1.1,1.2c0.1-1,0-1.8-0.5-2.2l-0.7,0.5c-0.3-1-0.7-2-1.1-2.3c-0.5,0.7-0.6,1.6-0.6,2.5
				C8,12.5,7.8,12.1,7.4,12c-0.3,0.6-0.1,1.4,0.6,2.4L7.2,14.4z"/>
			<path class="st4" d="M37.5,19.7c-2.3-0.1-4.7,0.3-7.3,2.8v2.8c2.1-1.5,3.9-1.5,5.6-0.8l-0.1,0.2c-1.7-0.3-3.5-0.3-5.5,1.1l0,1.2
				c2-1.9,3.9-2.5,5.8-1.4l0.5-0.5c-0.1-2.2,0.5-3.5,1.3-4.4L37.5,19.7z M32.8,22.2h-0.3c0-0.2,0-0.5,0-0.7l0.3,0
				C32.9,21.7,32.9,22,32.8,22.2z M33.8,21.8l-0.2-0.1c0-0.3,0-0.5,0.1-0.8h0.3C34.1,21.2,34,21.4,33.8,21.8z M34.6,22l-0.2,0
				c0-0.4,0-0.9,0.2-1.4l0.4,0.1C34.9,21.2,34.7,21.6,34.6,22z M35.6,22.3l-0.2-0.1c0-0.6,0.1-1.2,0.5-1.8h0.4
				C36,21,35.7,21.7,35.6,22.3z M36.2,22.7l-0.2,0c0.1-0.7,0.3-1.4,0.7-2.3h0.6C36.8,21.3,36.5,22,36.2,22.7z"/>
			<path class="st4" d="M5.9,16.4l0.5-0.5l-0.8-1.1l0-0.2l0.4,0.2l0.2-1.6l0.2,0l0.2,2.7c0.4,0.3,0.7,0.9,0.9,1.9l0.1-0.4l0.5,0
				L8,17c-0.9-0.4-1.3-1.5-1.2-3l0.4,0.1c-0.5-0.4-0.6-1-0.5-1.8c-0.2-0.2-0.3-0.5-0.6-0.7c-0.4,0.8-0.8,1.4-0.6,2.2l-0.6-0.2
				C4.6,14.6,5.1,15.6,5.9,16.4z"/>
			<path class="st4" d="M11,15.2c-0.1-0.8-0.5-1.2-0.8-1.7c-0.5,0.2-1,0.7-0.9,2c-0.4-0.2-0.6-0.3-1.1-0.4c0,1,0.3,1.9,0.7,2.6
				l-0.8,0c-0.3,1.2,0.5,2.1,1.9,2.7v-0.9l-0.8-1l0.7,0.3v-1l-0.5-0.9l0.5,0.3l0.1-1.6h0.2l0.1,1.3l0.5-0.4l-0.1,0.6l-0.3,0.4
				l0.1,1.4l0.8-0.2l-0.8,0.8l0,1l0.7,0.6c0.3-0.5,0.5-1,0.7-1.5l-0.7-0.1l0.8-1.1v-1.4h-0.7c0.5-0.7,0.9-1.4,1-2.1
				C11.6,15,11.3,15,11,15.2z"/>
			<path class="st4" d="M4.4,18.8l1.2,0.1l-0.6-0.6l0.4-0.1L5,17l0.2,0l0.7,1.2l0.5-0.5L6.2,19l1.8,0.4l-0.3-0.6l-0.3,0
				c-0.1-1.1-0.4-2-0.8-2.5c-0.4,0.1-0.5,0.6-0.7,0.8c-0.4-0.8-0.9-1.4-1.5-1.7c-0.1,0.7-0.2,1.3,0,1.9L3.7,17
				C3.8,17.6,3.9,18.2,4.4,18.8z"/>
			<polygon class="st4" points="34.3,19.6 34.2,18.9 33.9,19.7 			"/>
			<path class="st4" d="M30.4,16.4c0.3,0.2,0.4,0.5,0.5,0.9c-0.9-0.3-0.6,1.9-0.1,2.5c-1.1,0.2,0.1,1.1,0.1,1.6l0.7-0.5l0-1
				l-0.6-0.6V19l0.5,0.4l0.1-1.5l-0.4-0.6l0.1-0.2l0.5,0.3l0-1.5l0.2,0l0.1,1.7l0.4-0.3l0.1,0l-0.5,0.7l-0.1,1.2l0.6-0.5l0.1,0.1
				c-0.1,0.4-0.3,0.7-0.7,0.9l0,1c1.6-0.8,1.9-1,1.9-2.7c-0.2,0-0.4,0-0.6,0.1c0.5-0.9,0.7-1.8,0.5-2.7c-0.4,0.1-0.8,0.3-1.1,0.5
				c0.1-1-0.1-1.8-0.7-2.2c-0.4,0.4-0.7,1.1-0.9,1.9c-0.4-0.3-0.7-0.5-1.1-0.5l0,0.3l0.4,0.4L30.4,16.4z"/>
			<path class="st4" d="M35.4,16.8c-0.5,0.5-0.8,1.5-0.8,2.8l1.2-0.2c-0.2-0.4-0.3-0.8-0.2-1.2l0.5,0.5c0.2-0.6,0.4-1,0.7-1.2
				l-0.1,1.1l0.4,0c-0.3,0.2-0.5,0.4-0.7,0.7l1-0.1c0.4-0.5,0.7-1.1,0.9-1.8c-0.3,0-0.5,0-0.8,0.2c0.2-0.7,0.2-1.3,0-1.9
				c-0.5,0.3-1,0.9-1.4,1.7C35.8,17.1,35.6,16.8,35.4,16.8z"/>
			<path class="st4" d="M34.8,14.4l0.4,0c0,1.5-0.4,2.6-1.4,3.3l0.4-0.1l0.2,0.3c0.8-1.3,1.3-2.7,1.2-4.1l0.2,0l0.1,1.4l0.4-0.1
				c-0.2,0.5-0.5,0.8-0.8,1.3c0.3,0,0.5,0.3,0.7,0.5c0.7-0.9,1-1.9,0.9-2.8l-0.5,0.1c0-1-0.3-1.7-0.7-2.3l-0.6,0.7
				C35.3,13.1,35.2,13.7,34.8,14.4z"/>
			<path class="st4" d="M32,13.5c0.3,0.1,0.5,0.4,0.8,0.7c0-0.6,0.1-1.2,0-1.8l0.2,0c0.3,0.6,0.3,1.3,0.2,2.1l0.4-0.2l0.1,0
				c-0.3,0.3-0.5,0.6-0.6,0.9c0.4-0.2,0.6-0.2,0.9-0.1c0.2,0.3,0.3,0.8,0.3,1.5c0.4-0.5,0.6-1.1,0.5-1.9l-0.6,0
				c0.6-1,0.8-1.8,0.5-2.4l-0.8,0.6c-0.2-1-0.4-1.8-0.8-2.3c-0.4,0.5-0.8,1.2-1.1,2.1l-0.7-0.4c-0.4,1-0.4,1.9-0.4,2.7
				C31.3,14.1,31.7,13.5,32,13.5z"/>
		</g>
		<path class="st4" d="M12.8,16.2l0,4.6c5.6-1.5,11.1-1.6,16.5,0v-4.6C24,14,18.5,13.5,12.8,16.2z M18.2,19L17.6,19l-0.4-3.3
			l1.7-0.2l0.1,0.5l-1,0.1L18,17l1-0.1l0.1,0.5l-1,0.1L18.2,19z M21.9,18.2c0,0.1-0.1,0.3-0.2,0.4c-0.1,0.1-0.2,0.2-0.3,0.2
			c-0.1,0-0.3,0.1-0.4,0.1c-0.3,0-0.5,0-0.7-0.1c-0.2-0.1-0.3-0.2-0.3-0.4c-0.1-0.2-0.1-0.3-0.1-0.5c0-0.2,0-0.4,0-0.6
			c0-0.2,0-0.4,0-0.6c0-0.2,0.1-0.4,0.1-0.5c0.1-0.2,0.2-0.3,0.3-0.4c0.2-0.1,0.4-0.1,0.7-0.1c0.4,0,0.6,0.1,0.8,0.3
			c0.2,0.2,0.2,0.5,0.2,0.8h-0.7c0-0.2,0-0.4-0.1-0.5c0-0.1-0.1-0.1-0.2-0.1c-0.1,0-0.2,0-0.2,0.1c-0.1,0-0.1,0.1-0.1,0.2
			c0,0.1-0.1,0.2-0.1,0.4c0,0.2,0,0.3,0,0.5c0,0.2,0,0.4,0,0.5c0,0.2,0,0.3,0.1,0.4c0,0.1,0.1,0.2,0.1,0.2c0.1,0,0.1,0.1,0.2,0.1
			c0.1,0,0.1,0,0.2-0.1c0,0,0.1-0.1,0.1-0.2c0-0.1,0-0.1,0-0.2c0-0.1,0-0.2,0-0.2H22C22,17.9,22,18,21.9,18.2z M24.6,16.2l-1-0.1
			L23.6,17l1,0.1l0,0.5l-1-0.1l-0.1,1.4l-0.7,0l0.2-3.3l1.7,0.1L24.6,16.2z"/>
	</g>
</g>
</svg>
