<?xml version="1.0" encoding="UTF-8" standalone="no"?>
<svg
   xmlns:dc="http://purl.org/dc/elements/1.1/"
   xmlns:cc="http://creativecommons.org/ns#"
   xmlns:rdf="http://www.w3.org/1999/02/22-rdf-syntax-ns#"
   xmlns:svg="http://www.w3.org/2000/svg"
   xmlns="http://www.w3.org/2000/svg"
   xmlns:xlink="http://www.w3.org/1999/xlink"
   xmlns:sodipodi="http://sodipodi.sourceforge.net/DTD/sodipodi-0.dtd"
   xmlns:inkscape="http://www.inkscape.org/namespaces/inkscape"
   version="1.1"
   id="Layer_1"
   x="0"
   y="0"
   viewBox="0 0 75 99"
   xml:space="preserve"
   enable-background="new 0 0 75 99"
   sodipodi:docname="fc-famalicao.svg"
   width="42px"
   height="54px"
   inkscape:export-filename="G:\Users\suitedoalex\sites\fc-famalicao-logo-0.png"
   inkscape:version="0.92.4 (5da689c313, 2019-01-14)"><metadata
     id="metadata83"><rdf:RDF><cc:Work
         rdf:about=""><dc:format>image/svg+xml</dc:format><dc:type
           rdf:resource="http://purl.org/dc/dcmitype/StillImage" /><dc:title></dc:title></cc:Work></rdf:RDF></metadata><sodipodi:namedview
     pagecolor="#ffffff"
     bordercolor="#666666"
     borderopacity="1"
     objecttolerance="10"
     gridtolerance="10"
     guidetolerance="10"
     inkscape:pageopacity="0"
     inkscape:pageshadow="2"
     inkscape:window-width="1600"
     inkscape:window-height="837"
     id="namedview25"
     showgrid="false"
     inkscape:zoom="2.3838384"
     inkscape:cx="37.5"
     inkscape:cy="49.5"
     inkscape:window-x="-8"
     inkscape:window-y="-8"
     inkscape:window-maximized="1"
     inkscape:current-layer="Layer_1" /><style
     id="style2">.st10{clip-path:url(#SVGID_4_);fill:#f8c806}</style><defs
     id="defs5"><path
       id="SVGID_1_"
       d="M 0,0 H 67.5 V 64.5 H 0 Z"
       inkscape:connector-curvature="0" /></defs><clipPath
     id="SVGID_2_"><use
       xlink:href="#SVGID_1_"
       overflow="visible"
       id="use7"
       style="overflow:visible"
       x="0"
       y="0"
       width="100%"
       height="100%" /></clipPath><g
     clip-path="url(#SVGID_2_)"
     id="g78"
     transform="matrix(6.6089148,0,0,6.6089148,127.06328,136.8625)"
     inkscape:export-filename="G:\Users\suitedoalex\sites\fc-famalicao-logo-4.png"
     inkscape:export-xdpi="86.252098"
     inkscape:export-ydpi="86.252098"><defs
       id="defs11"><path
         id="SVGID_3_"
         d="M 0,0 H 67.5 V 64.5 H 0 Z"
         inkscape:connector-curvature="0" /></defs><clipPath
       id="SVGID_4_"><use
         xlink:href="#SVGID_3_"
         overflow="visible"
         id="use13"
         style="overflow:visible"
         x="0"
         y="0"
         width="100%"
         height="100%" /></clipPath><defs
       id="defs19"><filter
         id="Adobe_OpacityMaskFilter"
         filterUnits="userSpaceOnUse"
         x="0"
         y="0"
         width="67.5"
         height="64.5"><feColorMatrix
           values="1 0 0 0 0 0 1 0 0 0 0 0 1 0 0 0 0 0 1 0"
           id="feColorMatrix16" /></filter></defs><mask
       maskUnits="userSpaceOnUse"
       x="0"
       y="0"
       width="67.5"
       height="64.5"
       id="SVGID_5_"><g
         id="g31"
         style="filter:url(#Adobe_OpacityMaskFilter)"><defs
           id="defs22"><path
             id="SVGID_6_"
             d="M 0,0 H 67.5 V 64.5 H 0 Z"
             inkscape:connector-curvature="0" /></defs><clipPath
           id="SVGID_7_"
           clip-path="url(#SVGID_4_)"><use
             xlink:href="#SVGID_6_"
             overflow="visible"
             id="use24"
             style="overflow:visible"
             x="0"
             y="0"
             width="100%"
             height="100%" /></clipPath><path
           clip-path="url(#SVGID_7_)"
           d="M -0.1,0 H 67.6 V 64.7 H -0.1 Z"
           id="path27"
           inkscape:connector-curvature="0" /><path
           clip-path="url(#SVGID_7_)"
           d="M 0,0 H 67.5 V 64.5 H 0 Z"
           id="path29"
           inkscape:connector-curvature="0"
           style="fill:#ffffff" /></g></mask><g
       clip-path="url(#SVGID_4_)"
       mask="url(#SVGID_5_)"
       id="g42"><defs
         id="defs35"><path
           id="SVGID_8_"
           d="M 0,0 H 67.5 V 64.5 H 0 Z"
           inkscape:connector-curvature="0" /></defs><clipPath
         id="SVGID_9_"><use
           xlink:href="#SVGID_8_"
           overflow="visible"
           id="use37"
           style="overflow:visible"
           x="0"
           y="0"
           width="100%"
           height="100%" /></clipPath><path
         d="m 10.5,0 c 1.4,1.1 2.4,2.5 2.6,4.1 0.4,-0.2 0.6,-0.8 1.3,-0.7 1,1.5 1.5,3.5 1.3,6.1 l 1.8,-0.2 c 0.1,0.5 0,1 -0.1,1.5 11.5,-4.7 22.7,-3.9 33.1,0.1 l 0.1,-1.1 c 0.5,-0.1 1.1,0.2 1.6,0.3 -0.1,-2.3 0,-4.5 1,-6.1 0.6,0 1.1,0.3 1.5,0.8 0.5,-1.6 1.4,-2.9 2.5,-3.9 0.9,1 1.5,2.4 1.7,4 0.4,-0.4 1,-0.7 1.4,-0.7 L 61,4.7 c 0.5,-0.7 1,-1.2 1.6,-1.3 1.1,1.4 1.7,2.8 1.8,4.2 l 0.8,-0.1 c 0.2,1.2 0.3,2.3 0,3.3 l 0.7,-0.3 c 0.8,1.1 0.8,2.3 0.5,3.5 h 1 c 0.1,1.8 -0.3,3.2 -1.2,4.6 l 0.8,1.9 c -2.2,2.6 -2.7,5.5 -2.1,8.3 -0.7,0.7 -1.2,1.8 -2,2 l -0.9,1.7 0.8,0.1 c 0.2,1.6 -0.2,2.9 -0.9,4.4 l 0.9,0.3 v 1.8 c -2.4,1.2 -3.6,4.4 -3.4,7.3 l -1.3,0.6 -2.5,3.9 c 0.7,0.8 0.1,1.9 0,2.8 -2.3,0.4 -3.7,1.4 -4.8,3.1 h -2.5 c 2.8,2.1 4.3,2.9 6.6,3.1 l -0.3,1.5 c -1.7,-0.1 -3,0.8 -4,2.5 l -5.7,0.1 0.5,-3.4 -1,-1.3 -1.1,0.4 c -1.1,3.2 -3.1,4.8 -6.2,4 -0.9,0.8 -1.8,1.1 -3.4,0.8 -1.6,0.3 -2.8,0 -3.5,-0.7 -3.3,0.3 -4.9,-0.4 -6,-4 l -1.4,-0.7 -1.2,1.4 0.5,3.5 c -1.8,0.4 -3.6,0.4 -5.6,-0.2 -0.8,-1.4 -2.3,-2.2 -4.2,-2.7 l -0.1,-1.4 c 3.2,-0.4 5.2,-1.6 6.8,-3 L 16.1,56.4 C 15.1,55 13.7,54 11.7,53.5 l -0.2,-1.1 -0.2,-1 0.6,-0.3 L 9.3,46.9 8.1,46.2 C 8.1,42.8 6.9,40.4 4.6,38.8 L 4.7,37.3 5.5,37.1 4.6,32.8 5.4,32.6 4.6,30.6 4.1,30.7 2.6,28.6 C 3,25.1 2.2,22.3 0.6,20.1 L 1.4,18 C 0.3,16.9 -0.1,15.3 0.1,13.2 L 1,13.4 C 0.8,12 0.9,10.8 1.5,9.9 L 2.2,10 C 2.2,8.9 1.6,7.8 2.1,6.7 l 1,0.2 C 3.2,5.1 4,3.7 5,2.5 5.9,3 6.5,3.5 6.8,4 L 6.9,3.3 C 7.8,3.3 8.1,3.6 8.7,4.1 8.8,2.8 9.4,1.4 10.5,0"
         clip-path="url(#SVGID_9_)"
         id="path40"
         inkscape:connector-curvature="0"
         style="fill:#13273f" /></g><path
       d="M 34.2,55 C 43.3,54.5 49.8,47.9 49.9,41 L 50,22 C 46.3,20.5 39,19.6 34.2,19.6 Z"
       clip-path="url(#SVGID_4_)"
       id="path44"
       inkscape:connector-curvature="0"
       style="fill:#ffffff" /><path
       d="m 18.9,51.3 0.4,0.6 0.5,-0.2 -0.3,-0.5 z m -1,7.8 0.7,0.9 0.4,-0.3 -0.7,-1 z"
       clip-path="url(#SVGID_4_)"
       id="path46"
       inkscape:connector-curvature="0"
       style="fill:#004997" /><path
       class="st10"
       d="m 11,36.7 2,0.6 c -0.6,-0.8 -0.8,-1.6 -0.9,-2.5 z m 5.1,-4.1 0.1,-2 C 12.6,27.3 8.5,26.9 5.1,28 L 4.8,27.6 c 3.6,-1.2 7.3,-1.1 11.3,1.9 v -5 C 11.8,20.3 7.1,18.2 1.9,18.7 L 1.3,20 c 1.7,2 2.6,4.7 2.4,8.4 l 0.8,1 c 4.3,-2 8.2,-1.2 11.6,3.2 M 11,22.1 h 0.4 c 0.1,0.4 0.2,0.9 0.1,1.3 H 11.1 C 10.9,22.9 10.8,22.5 11,22.1 M 9.1,20.8 c 0.4,0.4 0.5,0.9 0.4,1.6 H 9.1 C 8.7,21.9 8.7,21.4 8.5,20.9 Z M 7.5,20.3 c 0.2,0.8 0.4,1.6 0.4,2.6 C 7.7,23 7.5,23 7.3,22.9 L 6.6,20.2 Z M 5.4,19.8 C 6,21.1 6.1,22.3 6,23.5 H 5.6 C 5.2,22.3 4.8,21.1 4.1,19.9 Z M 4.6,24.4 H 4.1 c -0.4,-1.5 -0.9,-3 -1.7,-4.5 0.4,-0.2 0.7,-0.2 1.1,-0.1 0.9,1.5 1.2,3 1.1,4.6 M 16.1,39 16.2,37.3 H 15.9 V 38 l -0.6,-0.1 c -0.4,-1 -0.1,-2 -1.1,-2.9 h -0.9 c 0.1,2.3 1.3,3.4 2.8,4"
       clip-path="url(#SVGID_4_)"
       id="path48"
       inkscape:connector-curvature="0"
       style="fill:#f8c806" /><path
       class="st10"
       d="m 14.9,33.7 0.4,0.1 0.4,2.7 h 0.4 v -2.3 l -2.3,-2.8 v 2.9 l 0.9,0.1 z m -3.4,-3.6 -0.3,2.7 1.2,0.1 -0.1,1.3 0.7,-0.1 0.2,-2.9 c -0.5,-0.6 -1,-0.9 -1.7,-1.1 m 6.1,15.7 -0.4,-1 c -2.4,-1 -5,-1.3 -7.7,-0.1 L 9.4,44.4 C 12.3,43 14.8,43 17,44.3 16.4,43.1 16.1,41.9 16.2,40.7 13.5,37.7 9.9,36.4 5.2,37 v 1.2 c 2.3,1.9 3.6,4.4 3.7,7.5 l 0.6,0.2 c 3.3,-1.5 5.8,-1.1 8.1,-0.1 m -3.7,-6.2 c 0.2,0.5 0.2,1 0.2,1.5 H 13.5 C 13.3,40.7 13.1,40.2 13,39.6 Z m -2.1,-0.7 c 0.4,0.6 0.6,1.3 0.7,2.2 L 12,41.3 10.8,38.9 Z M 9.6,38.5 c 0.6,0.7 1,1.6 1.3,2.7 l -0.4,0.4 C 10,40.5 9.4,39.4 8.8,38.6 Z m -2.9,0 0.9,-0.2 c 1,1 1.7,2.3 2.1,3.7 L 9.3,42.3 C 8.5,40.9 7.6,39.6 6.7,38.5"
       clip-path="url(#SVGID_4_)"
       id="path50"
       inkscape:connector-curvature="0"
       style="fill:#f8c806" /><path
       class="st10"
       d="M 7,33.3 5.3,32.9 c 0,1.2 0.2,2.4 0.7,3.5 l 4,0.1 1.5,-2.8 -1.5,0.5 c 0.3,-1.4 0.5,-2.9 0.6,-4.4 -1.7,-0.9 -3.4,-1 -5.2,0.1 0.2,1.1 0.6,2 1.4,2.7 l 0.1,-2.2 h 0.4 l 0.4,1 1.6,-0.5 -1.3,1.1 0.2,2 0.6,0.4 -0.5,0.2 v 0.9 L 7.6,35.7 7.4,34.8 H 6.7 L 6.5,34.5 7.1,34.2 Z m 5.8,16.9 -1.7,-2.6 h 0.6 L 13.2,50.1 14,50 v -1.5 l -0.9,0.1 c 0,-1.5 -1.1,-1.7 -1.6,-2.6 -0.6,0.1 -1.1,0.3 -1.5,0.7 0.8,1.4 1.5,2.6 2.4,3.7 z m 4.2,-2.3 -0.4,0.8 1.6,1.1 h 1.4 l -1.9,-1.1 0.7,-0.2 -0.7,-0.9 h 0.8 L 18.3,47.2 C 17.2,46.4 16.2,46 15.3,46 Z"
       clip-path="url(#SVGID_4_)"
       id="path52"
       inkscape:connector-curvature="0"
       style="fill:#f8c806" /><path
       class="st10"
       d="m 17,49.8 -1.1,-1 0.3,-0.8 -2.1,-2.3 -1.7,0.1 c 0.4,0.6 1.3,1.2 1.3,1.9 l 1,0.1 v 2 z m 0,5.7 h 1.4 c 1.2,-1.8 3.4,-2.4 6.1,-2.2 l -3.3,-2.4 c -3.8,-1 -6.8,-0.7 -9,0.6 l 0.3,1.4 c 1.7,0.6 3.3,1.4 4.5,2.6 m 5.3,-2.8 0.2,0.3 c -1.6,0.3 -3.1,0.7 -4.6,1.9 l -0.8,-0.3 c 1.8,-1.5 3.5,-1.9 5.2,-1.9 M 17.8,51.2 18.5,51.9 17.8,52 17,51.1 h 0.8 z m -1.9,0 1.1,1.1 -0.3,0.3 c -0.5,-0.3 -1,-0.7 -1.5,-1.2 z m 0.1,2.2 -2.8,-1.3 1,-0.4 2,1.4 z M 13.4,60 v 0.5 c 1.6,0.3 2.7,1 3.4,2.2 2.5,-0.8 4.2,-2.2 5.4,-4 l -2.9,-1.8 c -1.7,1.5 -3.7,2.5 -5.9,3.1 M 17,61.8 15.4,60.1 16,60 l 1.2,1.5 z m 0.7,-0.9 -1,-1.2 0.7,-0.2 0.8,1.1 z m 0.2,2.3 H 21 v -2.1 c -1,0.9 -2,1.6 -3.1,2.1"
       clip-path="url(#SVGID_4_)"
       id="path54"
       inkscape:connector-curvature="0"
       style="fill:#f8c806" /><path
       class="st10"
       d="m 26.2,58.9 0.4,1 c 1.3,-0.1 2.2,-1 2.9,-2.3 -0.9,-0.3 -2.7,0.4 -2.6,-1 -0.8,-0.2 -2,0.1 -2.4,-0.7 l 0.4,-0.5 c -1.5,-1.7 -4,-1.3 -5.9,0.4 1.3,1.1 2.6,1.9 3.9,2.3 0.2,-0.2 -0.3,-1.5 0.6,-0.7 1.2,2.1 2.1,2.6 2.7,1.5 M 24.4,58 23.3,56.5 c -0.4,-0.2 -0.6,-0.7 -0.8,0 -0.3,0.8 -1.7,-0.4 -2.6,-0.6 l 0.4,-0.2 1.5,0.2 c 0.4,-0.8 1,-0.9 1.8,-0.2 l 1.6,1.7 c 0.7,-0.7 1.5,0.1 2.6,1.4 -0.9,0.6 -1.3,-0.4 -2,-0.6 -0.5,0.4 -0.9,0.4 -1.4,-0.2"
       clip-path="url(#SVGID_4_)"
       id="path56"
       inkscape:connector-curvature="0"
       style="fill:#f8c806" /><path
       class="st10"
       d="m 26.2,55.1 c -0.9,0.7 -0.3,1.1 1.6,1.1 -0.1,1.1 1.4,0.7 2,1.1 l 0.1,-1.6 c -1.7,-0.6 -3.3,-1.1 -5.2,-1.2 -0.3,0.2 1,0.4 1.5,0.6"
       clip-path="url(#SVGID_4_)"
       id="path58"
       inkscape:connector-curvature="0"
       style="fill:#f8c806" /><path
       class="st10"
       d="m 36.9,55.7 c -1.9,0.3 -4,0.4 -6.2,-0.1 -0.5,3.2 -2,5.1 -4.9,5.2 0.3,1.8 1.7,2.3 3.6,2.1 1.1,-1.3 2.1,-3 2.9,-5 h 0.4 c -0.6,1.9 -1.2,3.6 -2.2,5.1 0.7,0.6 1.6,0.8 2.5,0.4 0.4,-0.7 0.8,-0.7 1,0 0.9,0.2 1.7,0.2 2.4,-0.3 -0.9,-1.7 -1.6,-3.5 -1.7,-5.4 h 0.2 c 0.8,2.3 1.7,3.8 2.7,5.2 2.2,0.2 3.4,-0.5 3.6,-2 -2.7,-0.2 -4.1,-1.9 -4.3,-5.2 m 8.8,7.5 3.4,0.2 c -0.9,-0.5 -2,-1.3 -3.2,-2.4 z m -0.8,-4.4 c 1.4,2.2 3.3,3.4 5.2,4.1 1.3,-1.2 2.6,-2.1 3.6,-2.2 v -0.3 c -1.9,-0.6 -3.8,-1.4 -5.8,-3.3 -0.8,0.7 -1.9,1.3 -3,1.7 m 6.9,1.6 -1.5,1.5 -0.3,-0.3 1,-1.4 z m -1.4,-0.5 -1,1.2 -0.5,-0.3 1,-1.1 z m -1.3,-1 0.4,0.3 -1,1.1 -0.3,-0.2 z"
       clip-path="url(#SVGID_4_)"
       id="path60"
       inkscape:connector-curvature="0"
       style="fill:#f8c806" /><path
       class="st10"
       d="m 48.3,56.3 c -1.1,-1.4 -2.6,-2 -4.4,-1.8 -0.3,0.5 -0.7,0.9 -1.3,1.1 0.6,0.4 0.3,0.8 -2.2,1.3 0.1,0.5 -0.6,0.8 -2,0.9 l -0.1,-0.3 c 0.5,-0.1 1.1,-0.1 1.4,-0.4 -0.8,-1 1.2,-0.6 1.8,-0.9 -1,-1.6 1,-0.6 1.7,-1.7 l -1.4,-0.1 c -1.3,0.6 -2.9,1 -4.4,1.4 0.2,2.4 1.4,3.9 3.3,4.3 0.2,-1.2 0.5,-1.4 0.9,-0.4 0.6,-0.1 1.2,-0.4 1.8,-0.8 0.6,-1.9 0.9,-2.1 0.8,-0.4 1.5,-0.6 2.8,-1.4 4.1,-2.2 m -6.8,1.8 -1.5,1 -0.5,-0.3 c 0.9,-0.5 1.5,-2.1 2.6,-1.4 1,-1.2 1.9,-2 2.7,-1.9 0.6,1 1.6,0.2 2.4,0.3 l 0.1,0.5 c -0.9,0 -2.3,1.2 -2.8,-0.1 -1.6,0.3 -2.3,3 -3,1.9 m 5.7,-7.3 c -1,1 -2.1,1.8 -3.3,2.6 2.6,0.2 4.4,1.1 5.2,2.4 l 1.2,-0.1 c 1.5,-1.2 3,-2 4.5,-2.5 L 55,51.6 c -2.4,-1.3 -5.1,-1.3 -7.8,-0.8 m 0.9,0.7 h 0.5 L 48,52.2 47.6,52 Z M 49.7,55 C 48.6,53.9 47,53.3 45.3,53.1 l 0.2,-0.2 c 1.9,0.2 3.4,0.8 4.7,1.7 z m 4.3,-2.5 -2.4,1 -0.5,-0.2 1.7,-1.2 z m -1.7,-0.7 -1.5,1.1 -0.3,-0.3 1.1,-1 z m -2.9,0.4 -0.4,-0.1 0.6,-0.8 0.9,0.3 z m 1,-3.2 c -0.4,-1.2 1.1,-1.7 1.7,-2.6 -1.5,0.1 -2.4,0.7 -2.8,1.6 h 0.5 l -0.4,0.8 0.3,0.2 c -1.6,0.1 -1.3,0.7 -2,1.1 H 49 Z m 3.2,-0.8 c 0.3,-0.7 0.8,-1.4 1.6,-2.2 L 53,46.1 c -0.5,0.9 -1.1,1.6 -1.8,2.1 0.2,1.3 -0.6,1.2 -0.8,1.8 l 1.9,0.1 c 0.5,-0.7 -0.8,-2.5 1.3,-1.9"
       clip-path="url(#SVGID_4_)"
       id="path62"
       inkscape:connector-curvature="0"
       style="fill:#f8c806" /><path
       class="st10"
       d="m 55.7,46.2 c -2.6,2.3 -1.1,3.1 -2.7,2.5 v 1.5 l 1,0.4 1.8,-2.7 0.1,0.2 -1.5,2.5 0.6,0.2 2.3,-3.7 c -0.2,-0.4 -0.8,-0.7 -1.6,-0.9"
       clip-path="url(#SVGID_4_)"
       id="path64"
       inkscape:connector-curvature="0"
       style="fill:#f8c806" /><path
       class="st10"
       d="m 51.6,40.4 c -0.3,2.3 -0.7,4.3 -1.2,5.7 3.1,-1.1 5.6,-0.9 7.7,0.2 l 0.5,-0.1 c 0.3,-3.4 1.5,-5.9 3.7,-7.3 V 37.5 C 58.6,36.6 55,37.7 51.6,40.4 M 58.8,39 c -0.8,0.9 -1.3,1.8 -1.7,2.8 L 56.8,41.7 C 57,40.8 57.3,39.9 57.9,39 Z m -2.9,0.2 h 1 c -0.6,0.9 -0.9,1.7 -1.2,2.5 h -0.6 c 0.1,-0.8 0.2,-1.6 0.8,-2.5 m -2,0.6 0.7,-0.1 -0.5,1.3 h -0.4 z m 3.8,5.5 c -1.8,-1 -4,-1 -6.3,-0.6 l 0.1,-0.4 c 2.2,-0.9 4.4,-0.9 6.6,0.5 z m 3.2,-6.5 c -1.1,1.2 -2,2.5 -2.5,3.7 L 58,42.3 c 0.3,-1.1 0.9,-2.3 1.8,-3.6 z m -8.3,-4.7 h 0.2 l 0.2,1.2 1,-0.9 v -2.7 c -0.8,0.5 -1.6,1.3 -2.3,2.4 v 3 H 52 Z m -1,5.5 c 1.7,-0.6 2.8,-2 3.2,-4.4 l -1.2,0.1 c -0.6,1 -0.8,2.3 -1.3,3.1 L 52,37.8 51.7,37.9 Z m 2.9,-8.3 c 0.3,0.9 0.4,2 0.2,3.3 h 0.7 c -0.2,-1.1 0.2,-1.4 1.1,-1 -0.2,-1.1 -0.4,-2.1 -0.2,-3.1 z"
       clip-path="url(#SVGID_4_)"
       id="path66"
       inkscape:connector-curvature="0"
       style="fill:#f8c806" /><path
       class="st10"
       d="m 54.7,37.8 c 0.8,-0.4 1.6,-0.6 2.3,-0.7 l -1.6,-2.2 z m 2.4,-7.7 c 0,1.9 0.2,3.3 0.6,4.4 -0.3,-0.3 -0.9,-0.5 -1.4,-0.5 0,0.9 0.6,1.9 1.4,2.8 l 3.8,0.1 c 0.6,-1.5 0.9,-2.7 1,-3.7 -0.5,-0.1 -1,0 -1.5,0.3 0.8,-1.1 1.4,-2.1 1.6,-3 -1.5,-0.9 -3.3,-1.2 -5.5,-0.4 m 3.7,4.6 v 0.4 l -0.7,0.2 -0.3,0.9 h -0.7 v -0.9 h -0.3 v -0.4 h 0.5 l 0.3,-2.3 -1.1,-0.8 0.2,-0.3 c 0.4,0.1 0.8,0.2 1.2,0.5 l 0.6,-0.9 0.4,0.1 c 0,1.3 -0.2,2.6 -0.6,3.6 z M 7.4,9 c 0,1.3 0.4,2.9 1,3.6 L 8.5,9.7 10.4,9.9 9.3,8.2 9.5,7.9 l 1,0.7 c 0.3,-1.3 -0.5,-4 0.8,-4 l 0.1,3.3 C 12,7.1 12.5,6.7 12.9,6.5 13.6,6.9 14.3,7.7 15,8.8 15.1,6.9 14.9,5.3 14.1,4.5 L 12.7,5.4 C 12.1,3.5 11.4,1.6 10.7,0.9 9.7,2.2 9.5,4 9.4,5.8 8.8,5.3 8.5,4.5 7.7,4.3 7.1,5.6 7.4,7.1 8.7,8.9 Z"
       clip-path="url(#SVGID_4_)"
       id="path68"
       inkscape:connector-curvature="0"
       style="fill:#f8c806" /><path
       class="st10"
       d="m 65.7,19.1 c -4.5,-0.2 -9.1,0.5 -14,5.3 v 5.3 c 4.1,-2.9 7.6,-2.9 10.8,-1.6 l -0.2,0.3 c -3.3,-0.6 -6.7,-0.7 -10.6,2 v 2.2 C 55.5,29 59.3,27.7 62.9,30 l 0.9,-1 c -0.2,-4.2 0.9,-6.8 2.5,-8.5 z m -9.1,4.8 H 56.1 C 56,23.5 56,23 56.2,22.6 h 0.6 c 0,0.4 -0.1,0.9 -0.2,1.3 m 2,-0.8 -0.4,-0.1 c -0.1,-0.5 -0.1,-1 0.3,-1.6 h 0.7 c -0.2,0.5 -0.3,1.1 -0.6,1.7 m 1.5,0.5 h -0.3 c -0.1,-0.8 0,-1.7 0.4,-2.7 L 61,21 c -0.4,0.9 -0.7,1.8 -0.9,2.6 m 1.8,0.5 -0.4,-0.1 c 0,-1.1 0.2,-2.3 0.9,-3.5 h 0.9 c -0.6,1.2 -1,2.4 -1.4,3.6 m 1.3,0.9 h -0.4 c 0.2,-1.3 0.6,-2.8 1.3,-4.5 h 1.1 c -0.9,1.6 -1.4,3.1 -2,4.5 M 4.9,12.7 5.8,11.8 4.3,9.8 4.4,9.5 5.2,9.8 5.5,6.6 5.9,6.5 6.4,11.8 c 0.7,0.5 1.3,1.7 1.7,3.6 L 8.3,14.6 9.2,14.7 8.8,14 C 7,13.2 6.4,11.1 6.6,8.2 L 7.4,8.3 C 6.5,7.5 6.2,6.4 6.5,4.9 6,4.5 5.9,4 5.2,3.5 4.4,5.1 3.8,6.1 4,7.8 L 2.8,7.5 c -0.4,1.9 0.5,3.7 2.1,5.2"
       clip-path="url(#SVGID_4_)"
       id="path70"
       inkscape:connector-curvature="0"
       style="fill:#f8c806" /><path
       class="st10"
       d="M 14.6,10.5 C 14.3,9 13.7,8.3 13,7.3 12,7.6 11.1,8.7 11.2,11.1 10.4,10.8 10,10.5 9.1,10.4 c 0,2 0.6,3.6 1.3,4.9 L 8.8,15.2 c -0.6,2.3 1.1,4 3.7,5.1 v -1.7 l -1.5,-1.8 1.4,0.6 v -1.9 l -0.9,-1.7 0.9,0.6 0.2,-3 H 13 l 0.2,2.6 1,-0.7 -0.2,1.1 -0.7,0.8 0.1,2.7 1.6,-0.4 -1.6,1.5 -0.1,1.9 1.4,1.2 c 0.5,-0.9 0.9,-1.9 1.3,-2.9 L 14.7,19 16.2,16.8 V 14 h -1.4 c 0.9,-1.3 1.6,-2.6 1.9,-4 -0.8,0.1 -1.4,0.1 -2.1,0.5 M 1.9,17.3 4.1,17.4 2.9,16.2 3.6,16.1 3.1,14 3.4,13.9 4.8,16.2 5.7,15.3 5.3,17.8 8.7,18.6 8.2,17.4 H 7.6 C 7.3,15.4 6.9,13.5 6,12.5 5.2,12.7 5.1,13.7 4.6,14.1 3.7,12.6 2.8,11.4 1.8,10.7 c -0.3,1.4 -0.4,2.5 0,3.6 L 0.5,14 c 0.4,1 0.4,2.2 1.4,3.3 M 59.5,19 59.3,17.7 58.8,19.1 Z M 52,12.7 c 0.5,0.4 0.8,1 1,1.7 -1.8,-0.5 -1.1,3.7 -0.2,4.8 -2.1,0.4 0.1,2 0.1,3 l 1.4,-1 v -1.9 l -1.1,-1.1 v -0.5 l 1.1,0.8 0.2,-3 -0.9,-1.2 0.1,-0.4 0.9,0.6 v -2.9 h 0.3 l 0.2,3.4 0.7,-0.6 0.2,0.1 -0.6,1.5 -0.1,2.2 1.1,-0.9 0.2,0.1 c -0.2,0.7 -0.6,1.3 -1.3,1.7 L 55.2,21 c 3,-1.5 3.6,-2 3.6,-5.1 -0.4,-0.1 -0.7,0 -1.2,0.2 0.9,-1.8 1.4,-3.5 1,-5.2 -0.8,0.2 -1.4,0.5 -2.2,1 0.2,-2 -0.2,-3.5 -1.3,-4.2 -0.7,0.8 -1.3,2 -1.7,3.7 -0.7,-0.6 -1.4,-0.9 -2.1,-1 V 11 l 0.8,0.7 z m 9.5,0.8 c -1,0.9 -1.5,2.8 -1.5,5.3 l 2.4,-0.3 C 62,17.7 61.8,17 62,16.2 l 0.9,1 c 0.3,-1.1 0.8,-1.8 1.3,-2.2 L 64,16.9 64.8,17 c -0.6,0.3 -1,0.8 -1.4,1.4 l 2,-0.1 c 0.9,-1 1.4,-2.2 1.7,-3.5 -0.5,0 -1,0.1 -1.6,0.4 0.4,-1.3 0.4,-2.6 0.1,-3.6 -1,0.6 -1.9,1.8 -2.6,3.2 -0.5,-0.8 -1,-1.2 -1.5,-1.3"
       clip-path="url(#SVGID_4_)"
       id="path72"
       inkscape:connector-curvature="0"
       style="fill:#f8c806" /><path
       class="st10"
       d="m 60.4,8.8 0.7,0.1 c 0.1,2.9 -0.8,5 -2.7,6.3 l 0.8,-0.1 0.3,0.7 C 61,13.2 62,10.6 61.9,7.9 l 0.3,-0.1 0.1,2.7 0.8,-0.2 c -0.3,1 -1,1.6 -1.5,2.4 0.6,0 0.9,0.6 1.4,0.9 1.4,-1.8 2,-3.6 1.7,-5.3 L 63.8,8.4 C 63.7,6.6 63.3,5.1 62.5,4 l -1.2,1.3 c 0,1.2 -0.2,2.3 -0.9,3.5"
       clip-path="url(#SVGID_4_)"
       id="path74"
       inkscape:connector-curvature="0"
       style="fill:#f8c806" /><path
       class="st10"
       d="m 55.1,7.1 c 0.5,0.2 1,0.8 1.6,1.4 0.1,-1.1 0.1,-2.3 0,-3.4 H 57 c 0.5,1.2 0.6,2.5 0.4,4.1 l 0.8,-0.5 0.2,0.1 c -0.6,0.6 -1,1.2 -1.2,1.8 0.7,-0.3 1.2,-0.4 1.7,-0.2 0.4,0.5 0.6,1.5 0.6,2.8 0.7,-0.9 1.1,-2.2 1,-3.7 L 59.3,9.6 C 60.4,7.7 60.9,6.1 60.2,5 L 58.7,6.2 C 58.4,4.4 57.9,2.8 57.2,1.7 56.5,2.7 55.7,4 55,5.7 L 53.6,4.8 C 52.9,6.7 52.8,8.4 52.8,10 53.7,8.3 54.5,7.1 55.1,7.1 m -37,5.3 v 8.9 c 10.7,-3 21.3,-3.1 31.8,0 V 12.4 C 39.6,8.3 29.1,7.3 18.1,12.4 m 10.5,5.3 -1.3,0.1 -0.7,-6.3 3.3,-0.4 0.1,1 -2,0.2 0.2,1.6 1.9,-0.2 0.1,1 -1.9,0.2 z m 7.1,-1.5 c -0.1,0.3 -0.2,0.5 -0.4,0.7 -0.2,0.2 -0.4,0.3 -0.6,0.4 -0.2,0.1 -0.5,0.1 -0.8,0.1 -0.5,0 -1,-0.1 -1.3,-0.3 -0.3,-0.2 -0.5,-0.4 -0.7,-0.7 -0.1,-0.3 -0.2,-0.7 -0.2,-1 V 13 c 0,-0.4 0.1,-0.7 0.2,-1 0.1,-0.3 0.4,-0.5 0.7,-0.7 0.3,-0.2 0.7,-0.3 1.3,-0.3 0.7,0 1.2,0.2 1.5,0.5 0.3,0.4 0.4,0.9 0.4,1.6 h -1.3 c 0,-0.4 0,-0.7 -0.1,-0.9 -0.1,-0.2 -0.2,-0.3 -0.4,-0.3 -0.2,0 -0.3,0 -0.4,0.1 -0.1,0.1 -0.2,0.2 -0.3,0.4 -0.1,0.2 -0.1,0.4 -0.1,0.7 v 2.2 c 0,0.3 0.1,0.5 0.1,0.7 0.1,0.2 0.1,0.3 0.3,0.4 0.1,0.1 0.3,0.1 0.4,0.1 0.2,0 0.3,0 0.4,-0.1 0.1,-0.1 0.1,-0.2 0.2,-0.3 0,-0.1 0.1,-0.3 0.1,-0.4 V 15.3 H 36 c -0.2,0.3 -0.2,0.6 -0.3,0.9 m 5.2,-3.8 -2,-0.1 -0.1,1.6 1.9,0.1 -0.1,1 -1.9,-0.1 -0.2,2.8 -1.3,-0.1 0.4,-6.3 3.3,0.2 z"
       clip-path="url(#SVGID_4_)"
       id="path76"
       inkscape:connector-curvature="0"
       style="fill:#f8c806" /></g></svg>