<?xml version="1.0" encoding="UTF-8" standalone="no"?>
<svg
   xmlns:dc="http://purl.org/dc/elements/1.1/"
   xmlns:cc="http://creativecommons.org/ns#"
   xmlns:rdf="http://www.w3.org/1999/02/22-rdf-syntax-ns#"
   xmlns:svg="http://www.w3.org/2000/svg"
   xmlns="http://www.w3.org/2000/svg"
   xmlns:xlink="http://www.w3.org/1999/xlink"
   xml:space="preserve"
   enable-background="new 0 0 281.379 299.995"
   viewBox="0 0 238.47672 254"
   height="54"
   width="42"
   y="0px"
   x="0px"
   id="Layer_1"
   version="1.1"><metadata
   id="metadata500"><rdf:RDF><cc:Work
       rdf:about=""><dc:format>image/svg+xml</dc:format><dc:type
         rdf:resource="http://purl.org/dc/dcmitype/StillImage" /><dc:title></dc:title></cc:Work></rdf:RDF></metadata><defs
   id="defs498">
	
	
	
	
	
	
	
	
	
	
	
	
	
	
	
	
	
	
	
</defs>
<g
   transform="matrix(0.83333056,0,0,0.83333056,1.995,2.005)"
   id="g1298"><g
     id="g100">
		<defs
   id="defs82">
			<path
   d="m 76.184,273.476 3.557,0.819 8.213,1.682 c 14.212,2.719 35.696,6.83 49.303,20.437 l 3.583,3.581 v -7.173 C 123.119,275.104 94.171,272.509 80.9,269.371 68.201,266.363 44.632,261.933 30.547,248.527 l -6.921,-0.023 c 13.612,16.031 38.432,21.734 52.558,24.972"
   id="SVGID_10_" />
		</defs>
		<clipPath
   id="SVGID_11_">
			<use
   height="100%"
   width="100%"
   y="0"
   x="0"
   style="overflow:visible"
   id="use84"
   overflow="visible"
   xlink:href="#SVGID_10_" />
		</clipPath>
		
			<linearGradient
   gradientTransform="matrix(18.8048,7.5071,7.5071,-18.8048,-1491.1578,12112.709)"
   y2="571.81592"
   x2="-141.5419"
   y1="571.81592"
   x1="-147.5811"
   gradientUnits="userSpaceOnUse"
   id="SVGID_12_">
			<stop
   id="stop87"
   style="stop-color:#18569C"
   offset="0" />
			<stop
   id="stop89"
   style="stop-color:#9EABD2"
   offset="0.4607" />
			<stop
   id="stop91"
   style="stop-color:#7592C2"
   offset="0.5908" />
			<stop
   id="stop93"
   style="stop-color:#215EA0"
   offset="0.8718" />
			<stop
   id="stop95"
   style="stop-color:#004993"
   offset="1" />
		</linearGradient>
		<polygon
   style="fill:url(#SVGID_12_)"
   id="polygon98"
   points="124.727,340.356 5.896,292.917 39.739,208.142 158.57,255.581 "
   clip-path="url(#SVGID_11_)" />
	</g><g
     id="g140">
		<defs
   id="defs124">
			<path
   d="m 200.76,269.371 c -13.269,3.138 -44.735,5.733 -59.92,23.451 v 7.173 l 3.58,-3.581 c 13.596,-13.606 35.08,-17.718 49.291,-20.437 l 8.226,-1.682 3.548,-0.819 c 14.07,-3.221 38.777,-8.877 52.503,-24.885 l -6.783,-0.159 c -14.151,13.513 -37.725,17.931 -50.445,20.939"
   id="SVGID_16_" />
		</defs>
		<clipPath
   id="SVGID_17_">
			<use
   height="100%"
   width="100%"
   y="0"
   x="0"
   style="overflow:visible"
   id="use126"
   overflow="visible"
   xlink:href="#SVGID_16_" />
		</clipPath>
		
			<linearGradient
   gradientTransform="matrix(19.3968,0,0,-19.3968,2948.6501,11371.941)"
   y2="572.14209"
   x2="-138.70461"
   y1="572.14209"
   x1="-144.74409"
   gradientUnits="userSpaceOnUse"
   id="SVGID_18_">
			<stop
   id="stop129"
   style="stop-color:#002553"
   offset="0" />
			<stop
   id="stop131"
   style="stop-color:#00346E"
   offset="0.5112" />
			<stop
   id="stop133"
   style="stop-color:#002553"
   offset="0.9831" />
			<stop
   id="stop135"
   style="stop-color:#002553"
   offset="1" />
		</linearGradient>
		<rect
   style="fill:url(#SVGID_18_)"
   id="rect138"
   height="51.556999"
   width="117.147"
   clip-path="url(#SVGID_17_)"
   y="248.438"
   x="140.84" />
	</g><g
     id="g1023"><g
       id="g31">
		<defs
   id="defs3">
			<path
   id="SVGID_1_"
   d="m 140.84,28.417 c -30.786,0 -62.833,-7.526 -89.039,-22.13 L 7.167,50.984 c 11.006,10.998 24.348,40.379 24.348,62.975 0,48.785 -12.436,90.744 -12.436,107.625 0,35.731 42.906,43.311 61.822,47.787 13.271,3.138 42.219,5.733 59.94,23.451 17.721,-17.718 46.651,-20.313 59.92,-23.451 18.924,-4.477 61.834,-12.056 61.834,-47.787 0,-16.881 -12.439,-58.84 -12.439,-107.625 0,-22.596 13.342,-51.978 24.354,-62.975 L 229.871,6.288 C 203.659,20.892 171.617,28.417 140.84,28.417" />
		</defs>
		<clipPath
   id="SVGID_2_">
			<use
   xlink:href="#SVGID_1_"
   overflow="visible"
   id="use5"
   style="overflow:visible"
   x="0"
   y="0"
   width="100%"
   height="100%" />
		</clipPath>
		
			<radialGradient
   id="SVGID_3_"
   cx="-147.8389"
   cy="578.73389"
   r="6.0395999"
   gradientTransform="matrix(40.8412,0,0,-40.8412,6027.9268,23725.119)"
   gradientUnits="userSpaceOnUse">
			<stop
   offset="0"
   style="stop-color:#B2BCDC"
   id="stop8" />
			<stop
   offset="0.0843"
   style="stop-color:#B2BCDC"
   id="stop10" />
			<stop
   offset="0.1041"
   style="stop-color:#A8B6D8"
   id="stop12" />
			<stop
   offset="0.2556"
   style="stop-color:#6187BB"
   id="stop14" />
			<stop
   offset="0.3817"
   style="stop-color:#2C66A5"
   id="stop16" />
			<stop
   offset="0.4761"
   style="stop-color:#0C5198"
   id="stop18" />
			<stop
   offset="0.5281"
   style="stop-color:#004993"
   id="stop20" />
			<stop
   offset="0.7809"
   style="stop-color:#004993"
   id="stop22" />
			<stop
   offset="0.9059"
   style="stop-color:#004082"
   id="stop24" />
			<stop
   offset="1"
   style="stop-color:#003C7B"
   id="stop26" />
		</radialGradient>
		<rect
   x="7.1669998"
   y="6.2880001"
   clip-path="url(#SVGID_2_)"
   width="267.336"
   height="286.534"
   id="rect29"
   style="fill:url(#SVGID_3_)" />
	</g><g
       id="g52">
		<defs
   id="defs34">
			<path
   id="SVGID_4_"
   d="m 227.405,1.861 c -24.869,13.861 -55.616,21.496 -86.564,21.496 -30.959,0 -61.704,-7.635 -86.574,-21.496 l -3.347,-1.867 0.882,6.293 c 26.206,14.604 58.253,22.13 89.039,22.13 30.776,0 62.818,-7.526 89.03,-22.13 l 0.879,-6.293 z" />
		</defs>
		<clipPath
   id="SVGID_5_">
			<use
   xlink:href="#SVGID_4_"
   overflow="visible"
   id="use36"
   style="overflow:visible"
   x="0"
   y="0"
   width="100%"
   height="100%" />
		</clipPath>
		
			<linearGradient
   id="SVGID_6_"
   gradientUnits="userSpaceOnUse"
   x1="-147.269"
   y1="581.2915"
   x2="-141.229"
   y2="581.2915"
   gradientTransform="matrix(29.7728,0,0,-29.7728,4435.7886,17320.91)">
			<stop
   offset="0"
   style="stop-color:#18569C"
   id="stop39" />
			<stop
   offset="1"
   style="stop-color:#9EABD2"
   id="stop41" />
			<stop
   offset="1"
   style="stop-color:#7592C2"
   id="stop43" />
			<stop
   offset="1"
   style="stop-color:#215EA0"
   id="stop45" />
			<stop
   offset="1"
   style="stop-color:#004993"
   id="stop47" />
		</linearGradient>
		<rect
   x="50.918999"
   clip-path="url(#SVGID_5_)"
   width="179.82401"
   height="28.417"
   id="rect50"
   style="fill:url(#SVGID_6_)"
   y="0" />
	</g><g
       id="g79">
		<defs
   id="defs55">
			<path
   id="SVGID_7_"
   d="m 22.346,165.787 c -1.418,9.838 -3.008,18.874 -4.403,26.763 -2.191,12.484 -3.925,22.334 -3.925,29.034 0,11.295 3.775,20.065 9.614,26.943 l 6.639,0.023 0.301,-0.006 C 23.7,241.991 19.079,233.303 19.079,221.583 c 0,-10.451 4.76,-30.484 8.39,-55.797 h -5.123 z" />
		</defs>
		<clipPath
   id="SVGID_8_">
			<use
   xlink:href="#SVGID_7_"
   overflow="visible"
   id="use57"
   style="overflow:visible"
   x="0"
   y="0"
   width="100%"
   height="100%" />
		</clipPath>
		
			<linearGradient
   id="SVGID_9_"
   gradientUnits="userSpaceOnUse"
   x1="-150.3833"
   y1="584.35498"
   x2="-144.34171"
   y2="584.35498"
   gradientTransform="matrix(-0.1706,-14.4561,-14.4561,0.1706,8444.625,-2024.8345)">
			<stop
   offset="0"
   style="stop-color:#18569C"
   id="stop60" />
			<stop
   offset="0.1684"
   style="stop-color:#2860A3"
   id="stop62" />
			<stop
   offset="0.499"
   style="stop-color:#537BB4"
   id="stop64" />
			<stop
   offset="0.9562"
   style="stop-color:#97A7CF"
   id="stop66" />
			<stop
   offset="1"
   style="stop-color:#9EABD2"
   id="stop68" />
			<stop
   offset="1"
   style="stop-color:#7592C2"
   id="stop70" />
			<stop
   offset="1"
   style="stop-color:#215EA0"
   id="stop72" />
			<stop
   offset="1"
   style="stop-color:#004993"
   id="stop74" />
		</linearGradient>
		<polygon
   clip-path="url(#SVGID_8_)"
   points="30.571,165.592 31.55,248.539 14.02,248.745 13.041,165.798 "
   id="polygon77"
   style="fill:url(#SVGID_9_)" />
	</g><g
       id="g121">
		<defs
   id="defs103">
			<path
   id="SVGID_13_"
   d="m 262.594,221.583 c 0,11.708 -4.612,20.396 -11.467,26.938 l 6.783,0.159 c 5.904,-6.896 9.75,-15.719 9.75,-27.097 0,-6.7 -1.746,-16.55 -3.935,-29.034 -1.397,-7.895 -2.984,-16.919 -4.412,-26.769 l -5.113,-0.035 c 3.628,25.337 8.394,45.387 8.394,55.838" />
		</defs>
		<clipPath
   id="SVGID_14_">
			<use
   xlink:href="#SVGID_13_"
   overflow="visible"
   id="use105"
   style="overflow:visible"
   x="0"
   y="0"
   width="100%"
   height="100%" />
		</clipPath>
		
			<linearGradient
   id="SVGID_15_"
   gradientUnits="userSpaceOnUse"
   x1="-111.022"
   y1="560.04828"
   x2="-104.9834"
   y2="560.04828"
   gradientTransform="matrix(2.738,0,0,-2.738,555.3664,1740.6017)">
			<stop
   offset="0"
   style="stop-color:#002553"
   id="stop108" />
			<stop
   offset="0.3708"
   style="stop-color:#002553"
   id="stop110" />
			<stop
   offset="0.5112"
   style="stop-color:#002D61"
   id="stop112" />
			<stop
   offset="0.9831"
   style="stop-color:#002553"
   id="stop114" />
			<stop
   offset="1"
   style="stop-color:#002553"
   id="stop116" />
		</linearGradient>
		<rect
   x="251.127"
   y="165.74899"
   clip-path="url(#SVGID_14_)"
   width="16.533001"
   height="82.931999"
   id="rect119"
   style="fill:url(#SVGID_15_)" />
	</g><g
       id="g163">
		<defs
   id="defs143">
			<path
   id="SVGID_19_"
   d="m 274.508,50.984 c -11.012,10.998 -24.354,40.379 -24.354,62.975 0,18.591 1.805,36.209 4.046,51.804 l 5.12,0.029 c -2.26,-15.601 -4.111,-33.277 -4.111,-51.833 0,-20.579 12.304,-48.825 22.885,-59.4 l 3.285,-3.297 v -0.277 h -6.871 z" />
		</defs>
		<clipPath
   id="SVGID_20_">
			<use
   xlink:href="#SVGID_19_"
   overflow="visible"
   id="use145"
   style="overflow:visible"
   x="0"
   y="0"
   width="100%"
   height="100%" />
		</clipPath>
		
			<linearGradient
   id="SVGID_21_"
   gradientUnits="userSpaceOnUse"
   x1="-127.2114"
   y1="584.14008"
   x2="-121.1705"
   y2="584.14008"
   gradientTransform="matrix(5.2173,0,0,-5.2173,914.1241,3156.04)">
			<stop
   offset="0"
   style="stop-color:#002553"
   id="stop148" />
			<stop
   offset="0.2008"
   style="stop-color:#002757"
   id="stop150" />
			<stop
   offset="0.3863"
   style="stop-color:#002D62"
   id="stop152" />
			<stop
   offset="0.5112"
   style="stop-color:#00346E"
   id="stop154" />
			<stop
   offset="0.9831"
   style="stop-color:#002553"
   id="stop156" />
			<stop
   offset="1"
   style="stop-color:#002553"
   id="stop158" />
		</linearGradient>
		<rect
   x="250.155"
   y="50.984001"
   clip-path="url(#SVGID_20_)"
   width="31.225"
   height="114.809"
   id="rect161"
   style="fill:url(#SVGID_21_)" />
	</g><g
       id="g188">
		<defs
   id="defs166">
			<path
   id="SVGID_22_"
   d="m 0.006,50.984 v 0 l 3.58,3.575 c 10.575,10.575 22.867,38.822 22.867,59.4 0,18.568 -1.849,36.268 -4.108,51.875 l 5.123,-0.041 c 2.241,-15.606 4.046,-33.225 4.046,-51.833 0,-22.596 -13.342,-51.978 -24.348,-62.975 h -7.16 z" />
		</defs>
		<clipPath
   id="SVGID_23_">
			<use
   xlink:href="#SVGID_22_"
   overflow="visible"
   id="use168"
   style="overflow:visible"
   x="0"
   y="0"
   width="100%"
   height="100%" />
		</clipPath>
		
			<linearGradient
   id="SVGID_24_"
   gradientUnits="userSpaceOnUse"
   x1="-150.0762"
   y1="573.27289"
   x2="-144.0379"
   y2="573.27289"
   gradientTransform="matrix(6.4774,20.1219,20.1219,-6.4774,-10564.906,6787.4722)">
			<stop
   offset="0"
   style="stop-color:#18569C"
   id="stop171" />
			<stop
   offset="0.4305"
   style="stop-color:#587FB6"
   id="stop173" />
			<stop
   offset="0.8126"
   style="stop-color:#8A9FCA"
   id="stop175" />
			<stop
   offset="1"
   style="stop-color:#9EABD2"
   id="stop177" />
			<stop
   offset="1"
   style="stop-color:#7592C2"
   id="stop179" />
			<stop
   offset="1"
   style="stop-color:#215EA0"
   id="stop181" />
			<stop
   offset="1"
   style="stop-color:#004993"
   id="stop183" />
		</linearGradient>
		<polygon
   clip-path="url(#SVGID_23_)"
   points="2.964,175.026 -33.496,61.766 28.556,41.792 65.013,155.052 "
   id="polygon186"
   style="fill:url(#SVGID_24_)" />
	</g><g
       id="g213">
		<defs
   id="defs191">
			<polygon
   id="SVGID_25_"
   points="274.508,50.984 281.379,50.984 281.379,50.698 230.75,-0.006 229.871,6.288 " />
		</defs>
		<clipPath
   id="SVGID_26_">
			<use
   xlink:href="#SVGID_25_"
   overflow="visible"
   id="use193"
   style="overflow:visible"
   x="0"
   y="0"
   width="100%"
   height="100%" />
		</clipPath>
		
			<linearGradient
   id="SVGID_27_"
   gradientUnits="userSpaceOnUse"
   x1="-148.87399"
   y1="591.4917"
   x2="-142.8333"
   y2="591.4917"
   gradientTransform="matrix(7.0013,7.2811,7.2811,-7.0013,-3036.3127,5222.0645)">
			<stop
   offset="0"
   style="stop-color:#7B8EBD"
   id="stop196" />
			<stop
   offset="0.2528"
   style="stop-color:#7B8EBD"
   id="stop198" />
			<stop
   offset="0.283"
   style="stop-color:#7488B7"
   id="stop200" />
			<stop
   offset="0.5188"
   style="stop-color:#425E8C"
   id="stop202" />
			<stop
   offset="0.7253"
   style="stop-color:#1E3F6D"
   id="stop204" />
			<stop
   offset="0.8927"
   style="stop-color:#082C5A"
   id="stop206" />
			<stop
   offset="1"
   style="stop-color:#002553"
   id="stop208" />
		</linearGradient>
		<polygon
   clip-path="url(#SVGID_26_)"
   points="254.614,76.718 204.396,24.489 256.63,-25.74 306.854,26.489 "
   id="polygon211"
   style="fill:url(#SVGID_27_)" />
	</g><polygon
       points="7.169,50.975 0.006,50.975 48.221,2.71 50.919,0 51.801,6.288 "
       id="polygon215"
       style="fill:#b8c1df" /><g
       id="g238">
		<defs
   id="defs218">
			<path
   id="SVGID_28_"
   d="m 204.04,94.023 c -20.275,6.927 -42.521,12.852 -60.802,16.058 -2.023,0.357 -4.276,0.773 -6.632,1.239 L 20.281,44.157 c -3.324,3.33 -5.925,5.931 -7.048,7.066 10.685,13.023 21.543,38.547 22.643,59.336 l 33.472,19.322 c -12.74,4.698 -24.902,10.092 -35.021,16.132 -0.139,1.504 -0.301,2.981 -0.463,4.462 32.172,-20.184 89.473,-33.352 109.978,-36.879 39.138,-6.721 92.812,-25.639 110.854,-38.583 1.068,-2.498 2.159,-4.945 3.327,-7.27 L 187.752,27.222 c -15.132,3.725 -31.01,5.718 -46.967,5.718 -19.803,0 -39.456,-3.09 -57.737,-8.782 z" />
		</defs>
		<clipPath
   id="SVGID_29_">
			<use
   xlink:href="#SVGID_28_"
   overflow="visible"
   id="use220"
   style="overflow:visible"
   x="0"
   y="0"
   width="100%"
   height="100%" />
		</clipPath>
		
			<radialGradient
   id="SVGID_30_"
   cx="-146.31149"
   cy="578.87653"
   r="6.0433002"
   gradientTransform="matrix(27.6196,0,0,-27.6196,4130.4321,16092.299)"
   gradientUnits="userSpaceOnUse">
			<stop
   offset="0"
   style="stop-color:#FFFFFF"
   id="stop223" />
			<stop
   offset="0.4382"
   style="stop-color:#FFFFFF"
   id="stop225" />
			<stop
   offset="0.6674"
   style="stop-color:#FCFCFD"
   id="stop227" />
			<stop
   offset="0.8137"
   style="stop-color:#F4F4F4"
   id="stop229" />
			<stop
   offset="0.9364"
   style="stop-color:#E5E6E6"
   id="stop231" />
			<stop
   offset="1"
   style="stop-color:#DADBDC"
   id="stop233" />
		</radialGradient>
		<rect
   x="13.233"
   y="24.162001"
   clip-path="url(#SVGID_29_)"
   width="244.78999"
   height="126.313"
   id="rect236"
   style="fill:url(#SVGID_30_)" />
	</g><g
       id="g261">
		<defs
   id="defs241">
			<path
   id="SVGID_31_"
   d="m 143.238,166.715 c -27.934,4.802 -87.927,19.727 -118.362,42.128 -0.478,3.108 -0.853,5.916 -1.068,8.316 l 118.589,68.52 c 17.25,-14.108 41.712,-17.447 58.852,-21.033 0.991,-0.212 1.994,-0.437 2.99,-0.654 L 73.769,188.677 c 24.581,-8.812 50.22,-14.798 66.57,-17.813 l 114.163,65.919 c 2.212,-4.313 3.516,-9.284 3.516,-15.094 0,-8.252 -3.392,-24.023 -6.642,-44.106 L 208.54,152.849 c 15.846,-5.612 29.465,-11.493 37.888,-16.397 -0.089,-1.336 -0.142,-2.702 -0.23,-4.041 -15.949,9.839 -61.443,27.179 -102.96,34.304" />
		</defs>
		<clipPath
   id="SVGID_32_">
			<use
   xlink:href="#SVGID_31_"
   overflow="visible"
   id="use243"
   style="overflow:visible"
   x="0"
   y="0"
   width="100%"
   height="100%" />
		</clipPath>
		
			<radialGradient
   id="SVGID_33_"
   cx="-146.30811"
   cy="578.88037"
   r="6.0377002"
   gradientTransform="matrix(27.6195,0,0,-27.6195,4130.4194,16092.23)"
   gradientUnits="userSpaceOnUse">
			<stop
   offset="0"
   style="stop-color:#FFFFFF"
   id="stop246" />
			<stop
   offset="0.4382"
   style="stop-color:#FFFFFF"
   id="stop248" />
			<stop
   offset="0.6674"
   style="stop-color:#FCFCFD"
   id="stop250" />
			<stop
   offset="0.8137"
   style="stop-color:#F4F4F4"
   id="stop252" />
			<stop
   offset="0.9364"
   style="stop-color:#E5E6E6"
   id="stop254" />
			<stop
   offset="1"
   style="stop-color:#DADBDC"
   id="stop256" />
		</radialGradient>
		<rect
   x="23.808001"
   y="132.412"
   clip-path="url(#SVGID_32_)"
   width="234.209"
   height="153.26801"
   id="rect259"
   style="fill:url(#SVGID_33_)" />
	</g><g
       id="g294">
		<defs
   id="defs264">
			<path
   id="SVGID_34_"
   d="m 200.247,170.921 c -4.063,7.03 -4.65,21.941 9.29,29.995 13.946,8.057 26.574,0.088 30.626,-6.948 2.336,-4.046 2.714,-11.855 -3.827,-15.636 -6.618,-3.819 -11.638,-1.101 -12.917,1.103 -0.378,0.654 -1.104,1.142 -1.876,0.702 -0.731,-0.422 -0.809,-1.292 -0.39,-2.006 1.274,-2.212 1.168,-7.883 -5.438,-11.705 -1.806,-1.038 -3.604,-1.475 -5.32,-1.475 -4.53,0.001 -8.458,3.033 -10.148,5.97" />
		</defs>
		<clipPath
   id="SVGID_35_">
			<use
   xlink:href="#SVGID_34_"
   overflow="visible"
   id="use266"
   style="overflow:visible"
   x="0"
   y="0"
   width="100%"
   height="100%" />
		</clipPath>
		
			<radialGradient
   id="SVGID_36_"
   cx="-131.31351"
   cy="571.74268"
   r="6.0391002"
   gradientTransform="matrix(4.3432,0,0,-4.3432,780.9984,2663.0801)"
   gradientUnits="userSpaceOnUse">
			<stop
   offset="0"
   style="stop-color:#F8BFAE"
   id="stop269" />
			<stop
   offset="0.0273"
   style="stop-color:#F6B1A4"
   id="stop271" />
			<stop
   offset="0.1287"
   style="stop-color:#F18281"
   id="stop273" />
			<stop
   offset="0.2337"
   style="stop-color:#ED5A63"
   id="stop275" />
			<stop
   offset="0.3408"
   style="stop-color:#E93A4A"
   id="stop277" />
			<stop
   offset="0.4506"
   style="stop-color:#E72037"
   id="stop279" />
			<stop
   offset="0.5642"
   style="stop-color:#E50E2A"
   id="stop281" />
			<stop
   offset="0.6839"
   style="stop-color:#E30322"
   id="stop283" />
			<stop
   offset="0.8202"
   style="stop-color:#E3001F"
   id="stop285" />
			<stop
   offset="0.9053"
   style="stop-color:#CF0317"
   id="stop287" />
			<stop
   offset="1"
   style="stop-color:#BD060F"
   id="stop289" />
		</radialGradient>
		<rect
   x="195.59599"
   y="164.952"
   clip-path="url(#SVGID_35_)"
   width="47.279999"
   height="44.015999"
   id="rect292"
   style="fill:url(#SVGID_36_)" />
	</g><g
       id="g327">
		<defs
   id="defs297">
			<path
   id="SVGID_37_"
   d="m 42.898,80.112 c -4.052,7.031 -4.636,21.947 9.301,29.992 13.946,8.057 26.563,0.086 30.635,-6.945 2.33,-4.052 2.71,-11.855 -3.843,-15.642 -6.618,-3.816 -11.637,-1.094 -12.911,1.112 -0.375,0.658 -1.112,1.141 -1.878,0.687 -0.726,-0.416 -0.811,-1.28 -0.386,-2 1.268,-2.203 1.165,-7.886 -5.438,-11.705 -1.805,-1.032 -3.609,-1.471 -5.326,-1.471 -4.53,0.001 -8.449,3.032 -10.154,5.972" />
		</defs>
		<clipPath
   id="SVGID_38_">
			<use
   xlink:href="#SVGID_37_"
   overflow="visible"
   id="use299"
   style="overflow:visible"
   x="0"
   y="0"
   width="100%"
   height="100%" />
		</clipPath>
		
			<radialGradient
   id="SVGID_39_"
   cx="-161.05811"
   cy="589.5083"
   r="6.0415001"
   gradientTransform="matrix(4.4772,0,0,-4.4772,774.3361,2724.8384)"
   gradientUnits="userSpaceOnUse">
			<stop
   offset="0"
   style="stop-color:#F8BFAE"
   id="stop302" />
			<stop
   offset="0.0273"
   style="stop-color:#F6B1A4"
   id="stop304" />
			<stop
   offset="0.1287"
   style="stop-color:#F18281"
   id="stop306" />
			<stop
   offset="0.2337"
   style="stop-color:#ED5A63"
   id="stop308" />
			<stop
   offset="0.3408"
   style="stop-color:#E93A4A"
   id="stop310" />
			<stop
   offset="0.4506"
   style="stop-color:#E72037"
   id="stop312" />
			<stop
   offset="0.5642"
   style="stop-color:#E50E2A"
   id="stop314" />
			<stop
   offset="0.6839"
   style="stop-color:#E30322"
   id="stop316" />
			<stop
   offset="0.8202"
   style="stop-color:#E3001F"
   id="stop318" />
			<stop
   offset="0.9053"
   style="stop-color:#CF0317"
   id="stop320" />
			<stop
   offset="1"
   style="stop-color:#BD060F"
   id="stop322" />
		</radialGradient>
		<rect
   x="38.262001"
   y="74.140999"
   clip-path="url(#SVGID_38_)"
   width="47.283001"
   height="44.021"
   id="rect325"
   style="fill:url(#SVGID_39_)" />
	</g><g
       id="g360">
		<defs
   id="defs330">
			<path
   id="SVGID_40_"
   d="m 226.869,74.247 c -2.153,3.733 -3.303,9.703 -1.835,15.68 9.178,-3.722 17.218,-7.464 23.357,-10.944 0.112,-2.692 -1.227,-6.45 -6.052,-9.234 -1.799,-1.047 -3.609,-1.474 -5.32,-1.474 -4.523,0 -8.452,3.031 -10.15,5.972" />
		</defs>
		<clipPath
   id="SVGID_41_">
			<use
   xlink:href="#SVGID_40_"
   overflow="visible"
   id="use332"
   style="overflow:visible"
   x="0"
   y="0"
   width="100%"
   height="100%" />
		</clipPath>
		
			<radialGradient
   id="SVGID_42_"
   cx="-127.1025"
   cy="590.51813"
   r="6.0391998"
   gradientTransform="matrix(4.5563,0,0,-4.5563,816.2226,2769.3977)"
   gradientUnits="userSpaceOnUse">
			<stop
   offset="0"
   style="stop-color:#F8BFAE"
   id="stop335" />
			<stop
   offset="0.0273"
   style="stop-color:#F6B1A4"
   id="stop337" />
			<stop
   offset="0.1287"
   style="stop-color:#F18281"
   id="stop339" />
			<stop
   offset="0.2337"
   style="stop-color:#ED5A63"
   id="stop341" />
			<stop
   offset="0.3408"
   style="stop-color:#E93A4A"
   id="stop343" />
			<stop
   offset="0.4506"
   style="stop-color:#E72037"
   id="stop345" />
			<stop
   offset="0.5642"
   style="stop-color:#E50E2A"
   id="stop347" />
			<stop
   offset="0.6839"
   style="stop-color:#E30322"
   id="stop349" />
			<stop
   offset="0.8202"
   style="stop-color:#E3001F"
   id="stop351" />
			<stop
   offset="0.9053"
   style="stop-color:#CF0317"
   id="stop353" />
			<stop
   offset="1"
   style="stop-color:#BD060F"
   id="stop355" />
		</radialGradient>
		<rect
   x="223.56599"
   y="68.275002"
   clip-path="url(#SVGID_41_)"
   width="24.938"
   height="21.652"
   id="rect358"
   style="fill:url(#SVGID_42_)" />
	</g><g
       id="g393">
		<defs
   id="defs363">
			<path
   id="SVGID_43_"
   d="m 34.39,202.68 c 0.566,6.305 3.787,13.1 11.711,17.671 13.952,8.051 26.574,0.076 30.626,-6.948 2.344,-4.058 2.719,-11.855 -3.834,-15.647 -6.615,-3.816 -11.634,-1.086 -12.908,1.114 -0.38,0.66 -1.112,1.133 -1.878,0.69 -0.729,-0.425 -0.808,-1.286 -0.393,-2.006 0.737,-1.273 0.967,-3.719 -0.212,-6.293 -8.317,3.491 -16.149,7.308 -23.112,11.419" />
		</defs>
		<clipPath
   id="SVGID_44_">
			<use
   xlink:href="#SVGID_43_"
   overflow="visible"
   id="use365"
   style="overflow:visible"
   x="0"
   y="0"
   width="100%"
   height="100%" />
		</clipPath>
		
			<radialGradient
   id="SVGID_45_"
   cx="-161.30321"
   cy="569.64502"
   r="6.0391998"
   gradientTransform="matrix(4.8353,0,0,-4.8353,824.7772,2949.8384)"
   gradientUnits="userSpaceOnUse">
			<stop
   offset="0"
   style="stop-color:#F8BFAE"
   id="stop368" />
			<stop
   offset="0.0273"
   style="stop-color:#F6B1A4"
   id="stop370" />
			<stop
   offset="0.1287"
   style="stop-color:#F18281"
   id="stop372" />
			<stop
   offset="0.2337"
   style="stop-color:#ED5A63"
   id="stop374" />
			<stop
   offset="0.3408"
   style="stop-color:#E93A4A"
   id="stop376" />
			<stop
   offset="0.4506"
   style="stop-color:#E72037"
   id="stop378" />
			<stop
   offset="0.5642"
   style="stop-color:#E50E2A"
   id="stop380" />
			<stop
   offset="0.6839"
   style="stop-color:#E30322"
   id="stop382" />
			<stop
   offset="0.8202"
   style="stop-color:#E3001F"
   id="stop384" />
			<stop
   offset="0.9053"
   style="stop-color:#CF0317"
   id="stop386" />
			<stop
   offset="1"
   style="stop-color:#BD060F"
   id="stop388" />
		</radialGradient>
		<rect
   x="34.389999"
   y="191.261"
   clip-path="url(#SVGID_44_)"
   width="45.056"
   height="37.134998"
   id="rect391"
   style="fill:url(#SVGID_45_)" />
	</g><g
       id="g426">
		<defs
   id="defs396">
			<path
   id="SVGID_46_"
   d="m 115.478,235.922 c -4.058,7.036 -4.645,21.947 9.295,29.998 13.946,8.045 26.569,0.083 30.635,-6.954 2.336,-4.046 2.71,-11.861 -3.849,-15.636 -6.606,-3.822 -11.631,-1.092 -12.899,1.12 -0.377,0.649 -1.112,1.139 -1.888,0.685 -0.716,-0.419 -0.802,-1.292 -0.392,-2 1.277,-2.206 1.18,-7.886 -5.435,-11.708 -1.799,-1.038 -3.604,-1.48 -5.32,-1.48 -4.529,0 -8.448,3.032 -10.147,5.975" />
		</defs>
		<clipPath
   id="SVGID_47_">
			<use
   xlink:href="#SVGID_46_"
   overflow="visible"
   id="use398"
   style="overflow:visible"
   x="0"
   y="0"
   width="100%"
   height="100%" />
		</clipPath>
		
			<radialGradient
   id="SVGID_48_"
   cx="-147.57761"
   cy="561.61182"
   r="6.0407"
   gradientTransform="matrix(4.7267,0,0,-4.7267,822.2856,2894.4631)"
   gradientUnits="userSpaceOnUse">
			<stop
   offset="0"
   style="stop-color:#F8BFAE"
   id="stop401" />
			<stop
   offset="0.0273"
   style="stop-color:#F6B1A4"
   id="stop403" />
			<stop
   offset="0.1287"
   style="stop-color:#F18281"
   id="stop405" />
			<stop
   offset="0.2337"
   style="stop-color:#ED5A63"
   id="stop407" />
			<stop
   offset="0.3408"
   style="stop-color:#E93A4A"
   id="stop409" />
			<stop
   offset="0.4506"
   style="stop-color:#E72037"
   id="stop411" />
			<stop
   offset="0.5642"
   style="stop-color:#E50E2A"
   id="stop413" />
			<stop
   offset="0.6839"
   style="stop-color:#E30322"
   id="stop415" />
			<stop
   offset="0.8202"
   style="stop-color:#E3001F"
   id="stop417" />
			<stop
   offset="0.9053"
   style="stop-color:#CF0317"
   id="stop419" />
			<stop
   offset="1"
   style="stop-color:#BD060F"
   id="stop421" />
		</radialGradient>
		<rect
   x="110.836"
   y="229.94701"
   clip-path="url(#SVGID_47_)"
   width="47.282001"
   height="44.019001"
   id="rect424"
   style="fill:url(#SVGID_48_)" />
	</g><g
       id="g459">
		<defs
   id="defs429">
			<path
   id="SVGID_49_"
   d="m 143.152,32.9 c -2.167,7.706 -0.669,19.024 10.961,25.74 13.946,8.051 26.569,0.085 30.63,-6.945 2.342,-4.052 2.716,-11.855 -3.843,-15.642 -6.612,-3.825 -11.631,-1.094 -12.899,1.118 -0.374,0.652 -1.111,1.136 -1.885,0.688 -0.726,-0.416 -0.805,-1.286 -0.386,-2.005 0.622,-1.08 1.044,-2.475 0.403,-4.595 -7.433,1.031 -15.298,1.411 -22.981,1.641" />
		</defs>
		<clipPath
   id="SVGID_50_">
			<use
   xlink:href="#SVGID_49_"
   overflow="visible"
   id="use431"
   style="overflow:visible"
   x="0"
   y="0"
   width="100%"
   height="100%" />
		</clipPath>
		
			<radialGradient
   id="SVGID_51_"
   cx="-142.4399"
   cy="596.20648"
   r="6.0394001"
   gradientTransform="matrix(5.2882,0,0,-5.2882,908.6519,3184.2344)"
   gradientUnits="userSpaceOnUse">
			<stop
   offset="0"
   style="stop-color:#F8BFAE"
   id="stop434" />
			<stop
   offset="0.0273"
   style="stop-color:#F6B1A4"
   id="stop436" />
			<stop
   offset="0.1287"
   style="stop-color:#F18281"
   id="stop438" />
			<stop
   offset="0.2337"
   style="stop-color:#ED5A63"
   id="stop440" />
			<stop
   offset="0.3408"
   style="stop-color:#E93A4A"
   id="stop442" />
			<stop
   offset="0.4506"
   style="stop-color:#E72037"
   id="stop444" />
			<stop
   offset="0.5642"
   style="stop-color:#E50E2A"
   id="stop446" />
			<stop
   offset="0.6839"
   style="stop-color:#E30322"
   id="stop448" />
			<stop
   offset="0.8202"
   style="stop-color:#E3001F"
   id="stop450" />
			<stop
   offset="0.9053"
   style="stop-color:#CF0317"
   id="stop452" />
			<stop
   offset="1"
   style="stop-color:#BD060F"
   id="stop454" />
		</radialGradient>
		<rect
   x="140.985"
   y="31.257999"
   clip-path="url(#SVGID_50_)"
   width="46.474998"
   height="35.432999"
   id="rect457"
   style="fill:url(#SVGID_51_)" />
	</g><g
       id="g491">
		<defs
   id="defs462">
			<rect
   id="SVGID_52_"
   width="281.379"
   height="299.995"
   x="0"
   y="0" />
		</defs>
		<clipPath
   id="SVGID_53_">
			<use
   xlink:href="#SVGID_52_"
   overflow="visible"
   id="use464"
   style="overflow:visible"
   x="0"
   y="0"
   width="100%"
   height="100%" />
		</clipPath>
		<path
   clip-path="url(#SVGID_53_)"
   d="m 46.23,165.498 c -0.979,-0.15 -1.631,-0.064 -2.197,0.2 -0.793,0.381 -1.064,1.124 -0.672,1.944 0.575,1.188 1.908,1.595 3.347,2.494 1.188,0.743 2.778,1.448 3.557,3.085 1.112,2.333 0.442,5.589 -3.798,7.611 -1.728,0.826 -3.701,1.419 -5.412,1.188 l -0.375,-3.833 c 0.979,0.15 2.397,0.203 3.359,-0.248 0.283,-0.139 1.684,-0.847 0.991,-2.295 -0.495,-1.034 -1.607,-1.548 -3.226,-2.392 -1.578,-0.828 -2.76,-1.698 -3.418,-3.081 -1.094,-2.295 -0.298,-5.574 3.152,-7.223 1.419,-0.673 3.383,-1.07 5.02,-0.696 z"
   id="path467"
   style="fill:#ffffff" />
		<path
   clip-path="url(#SVGID_53_)"
   d="m 66.031,170.488 c -1.643,1.793 -3.557,3.406 -5.5,4.196 -3.919,1.596 -6.951,-0.935 -8.337,-4.583 -2.722,-7.278 1.657,-12.483 5.173,-13.917 1.828,-0.75 3.262,-0.802 4.657,-0.543 l -0.304,3.43 c -0.705,-0.086 -1.48,-0.15 -2.409,0.229 -2.351,0.962 -3.2,4.615 -1.938,7.712 1.448,3.545 3.344,3.227 4.161,2.899 0.929,-0.381 1.846,-1.28 2.354,-1.858 z"
   id="path469"
   style="fill:#ffffff" />
		<polygon
   clip-path="url(#SVGID_53_)"
   points="71.97,143.922 77.612,142.117 78.88,151 84.734,149.121 83.489,140.413 89.131,138.602 92.646,162.906 87.004,164.71 85.344,153.283 79.49,155.161 81.15,166.594 75.506,168.4 "
   id="polygon471"
   style="fill:#ffffff" />
		<path
   clip-path="url(#SVGID_53_)"
   d="m 109.347,155.833 c -1.787,1.935 -4.317,4.072 -7.343,4.898 -4.082,1.117 -6.559,-2.935 -7.116,-5.199 -1.95,-7.959 2.781,-12.54 6.65,-13.595 2.967,-0.817 5.745,-0.277 6.633,2.946 0.991,3.63 -3.28,7.037 -7.73,8.113 0.139,0.761 0.693,3.713 3.533,2.94 1.448,-0.398 2.324,-1.365 3.483,-2.477 z m -9.44,-5.724 c 3.064,-0.69 4.344,-2.056 3.97,-3.902 -0.207,-0.991 -1.003,-1.537 -1.97,-1.268 -1.746,0.623 -2.168,2.761 -2,5.17"
   id="path473"
   style="fill:#ffffff" />
		<path
   clip-path="url(#SVGID_53_)"
   d="m 125.818,151.888 c -1.843,1.867 -4.454,3.919 -7.509,4.639 -4.12,0.973 -6.45,-3.164 -6.927,-5.453 -1.672,-8.016 3.211,-12.431 7.113,-13.354 2.996,-0.708 5.756,-0.068 6.523,3.182 0.87,3.66 -3.516,6.921 -8.001,7.838 0.115,0.761 0.56,3.734 3.43,3.059 1.469,-0.351 2.374,-1.277 3.568,-2.351 z m -9.231,-6.052 c 3.082,-0.587 4.415,-1.908 4.102,-3.763 -0.171,-0.997 -0.949,-1.563 -1.929,-1.333 -1.769,0.56 -2.264,2.681 -2.173,5.096"
   id="path475"
   style="fill:#ffffff" />
		<path
   clip-path="url(#SVGID_53_)"
   d="m 133.919,138.649 0.259,0.018 0.236,-0.725 c 0.224,-0.826 0.755,-3.74 2.784,-4.144 1.168,-0.242 1.982,0.171 2.781,0.793 l -1.578,5.5 c -0.339,-0.071 -0.681,-0.215 -1.575,-0.036 -1.265,0.254 -2.775,1.336 -2.654,4.94 l 0.236,7.556 -5.532,1.112 -0.572,-17.653 5.533,-1.112 z"
   id="path477"
   style="fill:#ffffff" />
		<path
   clip-path="url(#SVGID_53_)"
   d="m 155.038,146.287 c -1.926,1.787 -4.619,3.722 -7.7,4.306 -4.161,0.799 -6.312,-3.441 -6.686,-5.75 -1.315,-8.081 3.763,-12.277 7.7,-13.026 3.02,-0.581 5.75,0.18 6.379,3.465 0.698,3.698 -3.816,6.759 -8.34,7.479 0.077,0.767 0.392,3.757 3.285,3.2 1.48,-0.277 2.427,-1.171 3.671,-2.186 z m -8.957,-6.45 c 3.111,-0.448 4.494,-1.71 4.27,-3.577 -0.133,-1.009 -0.882,-1.604 -1.867,-1.418 -1.793,0.483 -2.385,2.58 -2.403,4.995"
   id="path479"
   style="fill:#ffffff" />
		<path
   clip-path="url(#SVGID_53_)"
   d="m 163.339,132.067 0.076,0.053 c 1.118,-2.79 3.146,-4.518 4.973,-4.969 2.341,-0.581 3.586,0.404 4.275,2.778 0.23,0.802 0.363,1.746 0.452,2.869 l 0.875,11.342 -5.47,1.357 -0.876,-11.05 c -0.006,-0.292 -0.08,-0.593 -0.15,-0.864 -0.473,-1.389 -1.162,-1.433 -1.531,-1.342 -2.07,0.513 -2.209,3.958 -2.028,6.391 l 0.622,7.851 -5.471,1.359 -1.371,-17.612 5.446,-1.354 z"
   id="path481"
   style="fill:#ffffff" />
		<path
   clip-path="url(#SVGID_53_)"
   d="m 181.505,142.002 -7.14,-15.544 5.326,-2.448 c 1.186,3.135 2.415,6.299 3.774,10.799 l 0.063,-0.018 c 0.289,-4.99 0.778,-8.655 1.303,-12.298 l 4.336,-0.375 -3.755,18.73 z"
   id="path483"
   style="fill:#ffffff" />
		<path
   clip-path="url(#SVGID_53_)"
   d="m 206.523,131.527 c -1.667,2.029 -4.07,4.317 -7.043,5.32 -4.002,1.354 -6.715,-2.554 -7.402,-4.784 -2.412,-7.827 2.041,-12.678 5.846,-13.964 2.91,-0.979 5.718,-0.604 6.782,2.566 1.207,3.565 -2.852,7.219 -7.236,8.546 0.188,0.749 0.908,3.666 3.698,2.725 1.43,-0.478 2.241,-1.492 3.332,-2.669 z m -9.753,-5.164 c 3.014,-0.87 4.22,-2.309 3.739,-4.132 -0.269,-0.973 -1.094,-1.469 -2.05,-1.147 -1.701,0.723 -1.999,2.881 -1.689,5.279"
   id="path485"
   style="fill:#ffffff" />
		<path
   clip-path="url(#SVGID_53_)"
   d="m 213.917,115.384 c 0.926,-0.357 1.781,0.097 2.082,1.062 0.56,1.802 -0.572,3.291 -3.557,4.282 -0.413,-2.38 -0.207,-4.548 1.475,-5.344 m 6.375,7.924 c -1.045,1.224 -1.812,2.271 -3.221,2.808 -2.749,1.062 -3.592,-1.822 -3.811,-2.56 4.323,-1.522 8.229,-5.341 6.871,-8.85 -1.203,-3.121 -4.022,-3.374 -6.889,-2.277 -3.745,1.451 -7.992,6.482 -5.249,14.194 0.778,2.206 3.65,5.993 7.597,4.471 2.932,-1.129 5.237,-3.509 6.813,-5.618 z"
   id="path487"
   style="fill:#ffffff" />
		<path
   clip-path="url(#SVGID_53_)"
   d="m 227.305,110.305 0.088,0.036 c 0.572,-2.949 2.235,-5.02 3.952,-5.81 2.194,-1.008 3.604,-0.28 4.725,1.932 0.377,0.743 0.684,1.637 0.979,2.731 l 2.985,10.974 -5.126,2.368 -2.926,-10.702 c -0.059,-0.28 -0.188,-0.563 -0.307,-0.817 -0.726,-1.274 -1.415,-1.194 -1.752,-1.032 -1.94,0.888 -1.438,4.3 -0.808,6.656 l 2.094,7.597 -5.132,2.362 -4.636,-17.043 5.091,-2.351 z"
   id="path489"
   style="fill:#ffffff" />
	</g></g></g>
</svg>