<?xml version="1.0" encoding="utf-8"?>
<!-- Generator: Adobe Illustrator 25.0.0, SVG Export Plug-In . SVG Version: 6.00 Build 0)  -->
<svg version="1.1" id="Camada_1" xmlns="http://www.w3.org/2000/svg" xmlns:xlink="http://www.w3.org/1999/xlink" x="0px" y="0px"
	 viewBox="0 0 60 60" style="enable-background:new 0 0 50 50;" xml:space="preserve">
<style type="text/css">
	.st0{fill:#FFFFFF;}
	.st1{fill:#66202F;}
</style>
<g>
	<path class="st0" d="M45.4,25c0,11.3-9.2,20.4-20.4,20.4C13.7,45.4,4.6,36.3,4.6,25C4.6,13.7,13.7,4.6,25,4.6
		C36.3,4.6,45.4,13.7,45.4,25"/>
	<g>
		<path class="st1" d="M5.4,25C5.4,14.2,14.2,5.4,25,5.4c10.8,0,19.6,8.8,19.6,19.6c0,10.8-8.8,19.6-19.6,19.6
			C14.2,44.6,5.4,35.8,5.4,25 M11.6,11.6C8.2,15,6.1,19.8,6.1,25c0,5.2,2.1,10,5.5,13.4c3.4,3.4,8.2,5.5,13.4,5.5
			c5.2,0,10-2.1,13.4-5.5c3.4-3.4,5.5-8.2,5.5-13.4c0-5.2-2.1-10-5.5-13.4C35,8.2,30.2,6.1,25,6.1C19.8,6.1,15,8.2,11.6,11.6"/>
		<path class="st1" d="M32.9,32.9c-2,2-4.8,3.3-7.9,3.3c-3.1,0-5.9-1.2-7.9-3.3c-2-2-3.3-4.8-3.3-7.9c0-3.1,1.2-5.9,3.3-7.9
			c2-2,4.8-3.3,7.9-3.3c3.1,0,5.9,1.2,7.9,3.3c1.1,1.1,1.9,2.4,2.5,3.8h0.5c-1.7-4.4-5.9-7.5-10.9-7.5c-6.4,0-11.6,5.2-11.6,11.6
			c0,6.4,5.2,11.6,11.6,11.6c5,0,9.2-3.1,10.9-7.5h-0.5C34.8,30.5,34,31.8,32.9,32.9"/>
		<g id="servette_3_">
			<path class="st1" d="M14,17.8c-0.3,0.5-0.6,0.7-0.8,0.7c-0.2,0-0.6-0.2-0.9-0.4c0-0.1,0-0.2,0.1-0.2c0.4,0.1,1.1,0.1,1.3-0.3
				c0.2-0.4,0.1-0.7-0.1-0.9c-0.4-0.3-0.9-0.1-1.2,0.1c-0.4,0.2-1,0.4-1.5,0.1c-0.6-0.4-0.7-1.1-0.2-1.8c0.1-0.2,0.3-0.4,0.5-0.5
				c0.1-0.1,0.1-0.1,0.2-0.1c0.1,0,0.4,0.2,0.8,0.4c0,0.1,0,0.2-0.1,0.2c-0.3-0.1-0.8-0.1-1.1,0.2c-0.2,0.3-0.1,0.6,0.1,0.8
				c0.2,0.2,0.6,0.1,0.9-0.1l0.4-0.2c0.4-0.2,0.9-0.4,1.5,0C14.4,16.3,14.5,17.1,14,17.8"/>
			<path class="st1" d="M14.4,13.6c0.1,0.1,0.1,0.1,0.2,0l0.3-0.3c0.2-0.2,0.2-0.3,0.1-0.5L15,12.6c0-0.1,0.1-0.2,0.2-0.1
				c0.1,0.1,0.3,0.3,0.4,0.5c0.2,0.2,0.3,0.3,0.4,0.5c0,0.1-0.1,0.2-0.2,0.2l-0.1-0.1c-0.2-0.2-0.3-0.2-0.6,0l-0.3,0.3
				c-0.1,0.1-0.1,0.1,0,0.2l0.5,0.5c0.2,0.2,0.3,0.3,0.5,0.4c0.1,0,0.2,0,0.6-0.3c0.4-0.3,0.5-0.5,0.3-1.2c0-0.1,0.1-0.2,0.2-0.1
				c0.2,0.2,0.4,0.7,0.5,0.9c-0.2,0.2-0.7,0.6-1,0.9l-0.6,0.5c-0.2,0.2-0.4,0.4-0.8,0.7c-0.1,0-0.2-0.1-0.1-0.2l0.2-0.2
				c0.2-0.2,0.2-0.3-0.2-0.7l-1.5-1.7c-0.4-0.4-0.4-0.4-0.6-0.3l-0.1,0.1c-0.1,0-0.2-0.1-0.1-0.2c0.2-0.2,0.4-0.4,0.6-0.6l0.9-0.8
				c0.3-0.3,0.5-0.5,0.6-0.5c0.1,0.1,0.4,0.4,0.7,0.6c0,0.1-0.1,0.2-0.1,0.2c-0.2-0.1-0.4-0.2-0.5-0.2c-0.2,0-0.3,0.1-0.6,0.3
				l-0.4,0.3c-0.1,0.1-0.1,0.1,0,0.3L14.4,13.6z"/>
			<path class="st1" d="M16.8,11c-0.3-0.5-0.3-0.6-0.5-0.5l-0.2,0c-0.1,0-0.1-0.1-0.1-0.2c0.4-0.2,0.8-0.4,1.3-0.7
				c0.5-0.2,0.9-0.3,1.1-0.3c0.4,0,0.7,0.2,0.9,0.6c0.2,0.5,0,0.8-0.2,1.1c0,0.1,0,0.1,0,0.1c0.7,0.5,1.1,0.8,1.5,0.9
				c0.2,0,0.4,0,0.4,0c0.1,0,0.1,0.1,0.1,0.1c-0.1,0.1-0.2,0.2-0.4,0.3c-0.5,0.2-0.9,0.2-1.3-0.1c-0.3-0.2-0.6-0.4-0.8-0.6
				c-0.1-0.1-0.2-0.1-0.4-0.1c-0.2,0.1-0.2,0.1-0.1,0.2l0.3,0.7C18.7,13,18.7,13,19,13l0.2,0c0.1,0,0.1,0.1,0.1,0.2
				c-0.3,0.1-0.5,0.2-0.8,0.4c-0.3,0.1-0.5,0.2-0.8,0.4c-0.1,0-0.1-0.1-0.1-0.2l0.1-0.1c0.2-0.2,0.2-0.2,0-0.7L16.8,11z M17.9,11.3
				c0.1,0.2,0.1,0.2,0.4,0c0.2-0.1,0.3-0.2,0.3-0.3c0-0.1,0.1-0.4-0.1-0.7c-0.2-0.5-0.7-0.7-1.1-0.5c-0.2,0.1-0.2,0.1-0.1,0.4
				L17.9,11.3z"/>
			<path class="st1" d="M23.2,10.4c-0.2,0.8-0.2,1.3-0.3,1.6c0,0-0.1,0.1-0.2,0.1c-0.1,0-0.1,0-0.2,0c-0.1-0.1-0.2-0.4-0.4-0.6
				l-1.4-2.2c-0.3-0.5-0.3-0.5-0.6-0.5l-0.2,0c-0.1-0.1-0.1-0.2,0-0.2c0.3,0,0.5-0.1,0.8-0.1c0.3,0,0.5-0.1,0.9-0.2
				c0.1,0,0.1,0.1,0,0.2l-0.2,0.1c-0.1,0-0.1,0.1-0.1,0.1c0,0,0.1,0.3,0.3,0.6l0.8,1.2c0.1,0.2,0.2,0.3,0.3,0.4
				c0-0.1,0.1-0.3,0.1-0.5L23,9.8c0.1-0.4,0.2-1.1,0.2-1.3c0-0.1,0-0.2,0-0.2c0,0,0-0.1-0.2-0.1l-0.2,0c-0.1,0-0.1-0.2,0-0.2
				c0.3,0,0.5-0.1,0.7-0.1c0.2,0,0.4-0.1,0.5-0.1c0.1,0,0.1,0.2,0,0.2L24,8c-0.2,0.1-0.2,0.1-0.3,0.3c-0.1,0.2-0.2,0.6-0.3,1.1
				L23.2,10.4z"/>
			<path class="st1" d="M26.3,9.5c0,0.2,0,0.2,0.1,0.2l0.4,0c0.3,0,0.4,0,0.5-0.3l0-0.1c0,0,0.2,0,0.2,0c0,0.2-0.1,0.4-0.1,0.6
				c0,0.2,0,0.4,0,0.6c0,0.1-0.2,0-0.2,0l0-0.2c0-0.3-0.1-0.3-0.4-0.4l-0.4,0c-0.2,0-0.2,0-0.2,0.2l-0.1,0.7c0,0.3,0,0.5,0,0.6
				c0.1,0.1,0.2,0.2,0.6,0.2c0.5,0.1,0.7,0.1,1.1-0.6c0.1-0.1,0.2,0,0.2,0.1c-0.1,0.3-0.2,0.8-0.3,0.9c-0.3,0-0.9-0.1-1.4-0.2
				l-0.8-0.1c-0.3,0-0.6-0.1-1-0.1c0,0,0-0.2,0-0.2l0.3,0c0.3,0,0.3,0,0.4-0.6l0.2-2.2c0.1-0.5,0-0.6-0.2-0.7l-0.1,0
				c-0.1,0,0-0.2,0-0.2c0.3,0,0.6,0.1,0.9,0.1L27.3,8c0.4,0,0.7,0.1,0.8,0.1c0,0.1,0,0.5,0,0.9c0,0.1-0.2,0.1-0.2,0
				c0-0.2-0.1-0.4-0.2-0.5c-0.1-0.1-0.3-0.2-0.6-0.2l-0.5,0c-0.2,0-0.2,0-0.2,0.2L26.3,9.5z"/>
			<path class="st1" d="M30.8,9.3c0.1-0.1,0.1-0.2-0.1-0.2L30.4,9c-0.4-0.2-0.6,0-0.9,0.4c-0.1,0-0.2,0-0.2-0.1
				c0.3-0.3,0.4-0.7,0.6-0.9c0,0,0.1,0,0.1,0c0,0,0.1,0,0.1,0.1c0,0.1,0,0.1,0.4,0.3l2.1,0.8c0.4,0.1,0.4,0.2,0.5,0.1c0,0,0,0,0.1,0
				c0,0,0.1,0.1,0.1,0.1c-0.1,0.2-0.3,0.6-0.5,0.9c0,0-0.2,0-0.2-0.1c0-0.4,0.1-0.7-0.3-0.9l-0.3-0.1c-0.1-0.1-0.2,0-0.2,0.1l-1,2.4
				c-0.2,0.5-0.2,0.6,0,0.7l0.2,0.1c0,0.1,0,0.2-0.1,0.2c-0.4-0.2-0.6-0.3-0.9-0.4c-0.3-0.1-0.6-0.2-1-0.4c0-0.1,0-0.2,0.1-0.2
				l0.3,0.1c0.3,0.1,0.3,0,0.5-0.5L30.8,9.3z"/>
			<path class="st1" d="M35.2,11.7c0.1-0.1,0.1-0.1,0-0.2l-0.3-0.2c-0.3-0.3-0.6-0.2-1,0.1c-0.1,0-0.2-0.1-0.1-0.2
				c0.4-0.2,0.6-0.5,0.8-0.7c0,0,0.1,0,0.1,0c0,0,0,0,0.1,0.1c0,0.1,0,0.1,0.3,0.4l1.7,1.4c0.3,0.2,0.4,0.3,0.5,0.2c0,0,0,0,0.1,0
				c0,0,0,0.1,0,0.1c-0.2,0.1-0.5,0.5-0.7,0.7c-0.1,0-0.2-0.1-0.2-0.1c0.2-0.4,0.3-0.6-0.1-0.9l-0.3-0.2c-0.1-0.1-0.1-0.1-0.2,0
				l-1.7,2.1c-0.3,0.4-0.3,0.5-0.2,0.7l0.2,0.2c0,0.1-0.1,0.2-0.1,0.2c-0.3-0.3-0.5-0.4-0.7-0.6c-0.2-0.2-0.5-0.4-0.8-0.6
				c0-0.1,0.1-0.2,0.1-0.2l0.2,0.1c0.2,0.1,0.3,0.1,0.6-0.3L35.2,11.7z"/>
			<path class="st1" d="M37.6,15.8c-0.1,0.1-0.1,0.1,0,0.2l0.2,0.3c0.2,0.3,0.3,0.3,0.5,0.2l0.1-0.1c0.1,0,0.2,0.1,0.1,0.2
				c-0.2,0.1-0.3,0.2-0.5,0.4c-0.2,0.1-0.4,0.3-0.5,0.4c-0.1,0-0.2-0.1-0.1-0.2l0.1-0.1c0.2-0.2,0.2-0.3,0-0.6l-0.2-0.3
				c-0.1-0.1-0.1-0.1-0.2,0l-0.6,0.4c-0.2,0.2-0.4,0.3-0.4,0.4c0,0.1,0,0.2,0.2,0.6c0.3,0.4,0.4,0.6,1.2,0.5c0.1,0,0.1,0.1,0.1,0.2
				c-0.3,0.2-0.7,0.3-0.9,0.3c-0.2-0.3-0.5-0.7-0.8-1.1l-0.4-0.6c-0.2-0.2-0.3-0.5-0.6-0.8c0-0.1,0.1-0.1,0.2-0.1l0.2,0.2
				c0.2,0.2,0.2,0.2,0.7-0.1l1.8-1.3c0.4-0.3,0.5-0.4,0.3-0.6L38,14c0-0.1,0.1-0.1,0.2-0.1c0.2,0.2,0.3,0.5,0.5,0.7l0.7,1
				c0.2,0.3,0.4,0.6,0.5,0.6c-0.1,0.1-0.4,0.3-0.7,0.6c-0.1,0-0.2-0.1-0.1-0.2c0.1-0.2,0.2-0.3,0.3-0.5c0-0.2,0-0.3-0.2-0.6
				l-0.3-0.4c-0.1-0.2-0.1-0.2-0.3,0L37.6,15.8z"/>
		</g>
		<g id="fc_3_">
			<path class="st1" d="M35.5,24.4c0,0.2,0,0.2,0.2,0.2h0.6c0.4,0,0.5-0.1,0.6-0.4l0-0.2c0.1-0.1,0.2-0.1,0.3,0c0,0.2,0,0.5,0,0.8
				c0,0.3,0,0.6,0,0.8c0,0.1-0.2,0.1-0.3,0l0-0.2c-0.1-0.4-0.2-0.4-0.6-0.4h-0.6c-0.2,0-0.2,0-0.2,0.2v1c0,0.7,0,0.8,0.4,0.8l0.3,0
				c0.1,0,0.1,0.2,0,0.3c-0.5,0-0.9,0-1.2,0c-0.4,0-0.7,0-1.2,0c-0.1,0-0.1-0.2,0-0.3l0.3,0c0.3-0.1,0.4-0.1,0.4-0.8v-2.9
				c0-0.7,0-0.8-0.4-0.8l-0.2,0c-0.1,0-0.1-0.2,0-0.3c0.3,0,0.7,0,1.1,0h1.6c0.5,0,0.9,0,1,0c0,0.1,0,0.7,0,1.2c0,0.1-0.2,0.1-0.3,0
				c-0.1-0.3-0.1-0.5-0.2-0.6c-0.1-0.2-0.4-0.3-0.8-0.3h-0.6c-0.3,0-0.3,0-0.3,0.3V24.4z"/>
			<path class="st1" d="M42.7,22.4c0,0.1,0,0.8,0.1,1.2c0,0.1-0.2,0.1-0.3,0.1c-0.2-0.7-0.7-1.1-1.4-1.1c-0.9,0-1.8,0.7-1.8,2.3
				c0,1.5,0.9,2.4,1.8,2.4c0.9,0,1.4-0.7,1.6-1.2c0.1-0.1,0.2,0,0.3,0.1c-0.1,0.6-0.2,1-0.3,1.2c-0.4,0.1-1,0.3-1.6,0.3
				c-0.8,0-1.5-0.2-2.1-0.6c-0.6-0.4-1-1.1-1-2c0-0.9,0.4-1.6,0.9-2c0.5-0.5,1.3-0.7,2.1-0.7C41.9,22.2,42.5,22.4,42.7,22.4"/>
		</g>
		<path class="st1" d="M26.2,22.5c-1.1-0.4-2.2-0.8-3.1-1.4c-0.5-0.3-1.2-1.1-0.8-2.3c0.3-0.9,1.3-1.9,2.8-1.9h0.1
			c1.9,0.1,2.9,1.5,3.7,3l0.7,1.3l0.3-1.5l0.6-2.4l0.1-0.4l-0.3-0.2c-1.4-1-3.1-1.6-4.9-1.6c-2,0-3.9,0.8-5.2,2.1
			c-1.1,1.1-1.7,2.5-1.6,4.1c0,1.4,0.5,2.7,1.4,3.6c0.7,0.8,2,1.3,3.4,1.9c1.8,0.7,3.9,1.6,4.1,2.9c0.2,0.9-0.3,1.6-0.4,1.8
			c-0.7,0.9-1.7,1-2.4,1c-2.8,0-4.6-1.9-5.3-4.7l-0.1,1l-0.5,3.6l-0.1,0.4l0.3,0.2c1.5,0.9,3.2,1.3,5,1.3c2.3,0,4.4-0.8,5.7-2.1
			c1.1-1.1,1.6-2.5,1.6-4C31.3,24.3,28.6,23.3,26.2,22.5 M29.5,32.1c-1.3,1.3-3.3,2-5.5,2c-1.7,0-3.4-0.4-4.8-1.3L19,32.7l0-0.2
			l0.4-2.6l0.1-0.9c0.5,2.4,2.9,3.8,5.1,3.8c0.8,0,1.9-0.2,2.7-1.1c0.2-0.3,0.7-1,0.5-2c-0.2-1.5-2.3-2.3-4.3-3.1
			c-1.4-0.6-2.7-1.1-3.3-1.8c-0.8-0.9-1.3-2.1-1.3-3.4c0-1.5,0.5-2.9,1.5-3.9c1.2-1.3,3.1-2,5-2c1.7,0,3.3,0.5,4.7,1.5l0.2,0.1
			l0,0.2l-0.6,2.4l-0.2,0.7l-0.4-0.7c-0.8-1.5-2-3.1-4-3.1h-0.1c-1.4,0-2.7,0.8-3.1,2.1c-0.3,1,0,1.9,0.9,2.6c0.9,0.7,2,1.1,3.1,1.5
			c2.4,0.9,5,1.8,5,5.5C31,29.7,30.5,31.1,29.5,32.1"/>
		<path class="st1" d="M30,17.2l-0.6,2.4c-0.8-1.5-2-3.2-4.2-3.3c-3-0.1-4.9,3.3-2.4,5.2c2.9,2.2,8,1.5,8,6.8
			c0,5.2-6.8,7.1-11.5,4.3l0.4-2.6c0.8,2.8,5.9,4.4,7.9,1.9c0.3-0.4,0.7-1.2,0.6-2.3c-0.5-2.7-6.1-3.3-7.7-5.1
			c-0.7-0.8-1.2-1.9-1.2-3.2C19.1,16.3,25.6,14,30,17.2"/>
		<g>
			<g>
				<path class="st1" d="M11.2,22.6c-0.1,0-0.2,0-0.4,0c-0.1,0-0.2,0-0.3,0l0.1-0.2c0.2-0.1,0.4-0.2,0.6-0.3
					c0.1-0.1,0.2-0.3,0.3-0.5c0.1-0.2,0-0.4-0.1-0.6c-0.2-0.3-0.5-0.5-1-0.6c-0.3-0.1-0.4-0.1-0.6-0.1c-0.2,0-0.4,0-0.5,0.1
					c-0.1,0-0.2,0.1-0.3,0.2c-0.1,0.1-0.2,0.2-0.2,0.4c0,0.2,0,0.3,0,0.5c0.1,0.2,0.2,0.4,0.3,0.6c0,0.1,0,0.1,0,0.2
					c-0.1,0-0.1,0-0.2-0.1c0,0-0.1-0.1-0.3-0.1l-0.1,0L8.4,22c0-0.1-0.1-0.3-0.1-0.4c0-0.2,0-0.4,0.1-0.6c0.1-0.2,0.1-0.4,0.2-0.5
					C8.8,20.3,8.9,20.1,9,20c0.2-0.1,0.3-0.2,0.5-0.3c0.2-0.1,0.3-0.1,0.5-0.1c0.2,0,0.3,0,0.5,0.1c0.5,0.1,0.8,0.4,1,0.7
					c0.2,0.4,0.3,0.8,0.1,1.3c-0.1,0.2-0.1,0.4-0.2,0.5C11.3,22.4,11.3,22.5,11.2,22.6z"/>
				<path class="st1" d="M8.1,23c0,0,0.1,0,0.2,0l0,0.3c0,0,0,0.1,0,0.1l0.6,0c0.2,0,0.4,0,0.5,0l0.1,0c0.1,0,0.2,0,0.5,0l0.1,0
					l0.2,0l0.2,0l0.1,0c0.1,0,0.2,0,0.3,0c0,0,0,0,0.1,0c0,0,0,0,0,0c0,0,0,0,0,0c0-0.1,0-0.1,0-0.2l0,0c0,0,0-0.1,0-0.1
					c0,0,0.1,0,0.1,0c0,0,0,0,0.1,0c0,0,0,0.1,0,0.1c0,0.1,0,0.1,0,0.1c0,0.2,0,0.3,0,0.4c0,0,0,0.1,0,0.1c0,0,0,0.1,0,0.1
					c0,0.1,0,0.2,0,0.4c0,0,0,0.1,0,0.1c0,0.1,0,0.1,0,0.1c0,0-0.1,0-0.1,0c0,0-0.1,0-0.1,0l-0.1-0.4c0,0,0,0-0.1-0.1l-0.1,0l0,0
					l-0.1,0l-0.1,0h0c0,0,0,0,0,0l-0.3,0c0,0,0,0-0.1,0c0,0,0,0-0.1,0c0,0-0.1,0-0.1,0c0,0-0.1,0-0.2,0c0,0,0,0.1,0,0.1l0,0.3l0,0.2
					l0,0.4l0,0.4c0,0.1,0,0.1,0,0.2c0.1,0,0.2,0,0.4,0l0.1,0l0.4,0l0.2,0c0,0,0,0,0,0c0-0.1,0.1-0.2,0.1-0.3c0,0,0-0.1,0-0.1
					c0.1,0,0.1,0,0.1,0c0,0,0,0.1,0,0.1l0,0.2c0,0.1,0,0.3,0,0.4c0,0,0,0.1,0,0.1l0,0.3c0,0,0,0.1,0,0.1c0,0.1,0,0.1,0,0.2
					c0,0,0,0.1,0,0.2c-0.1,0-0.1,0-0.2,0c0-0.1,0-0.2-0.1-0.3c0,0,0-0.1-0.1-0.1l0,0l0,0l-0.1,0l0,0c0,0-0.1,0-0.1,0l-0.1,0
					c-0.1,0-0.1,0-0.1,0l-0.3,0H9.8l-0.3,0c-0.1,0-0.2,0-0.4,0l-0.3,0l-0.3,0c-0.1,0-0.1,0-0.2,0c0,0,0,0.1,0,0.1
					c0,0.1-0.1,0.3-0.1,0.3l-0.2,0c0-0.1,0-0.1,0-0.1c0-0.1,0-0.2,0-0.3c0-0.1,0-0.3,0-0.6c0-0.1,0-0.3,0-0.5c0,0,0,0,0-0.1
					c0.1,0,0.1,0,0.2,0l0,0.2l0,0.2c0,0,0,0,0,0.1c0.1,0,0.3,0,0.6,0l0.2,0c0.1,0,0.2,0,0.3,0c0-0.1,0-0.1,0-0.2l0-1.1l0,0l0,0
					c0,0,0,0,0,0c0,0,0-0.1,0-0.1l0-0.1c0,0,0-0.1,0-0.1l-0.2,0l0,0c0,0-0.1,0-0.1,0l-0.7,0c0,0-0.1,0-0.1,0l0,0l-0.1,0.3
					c0,0,0,0,0,0c0,0,0,0,0,0.1c0,0-0.1,0-0.1,0c0,0,0,0-0.1,0c0-0.1,0-0.1,0-0.1c0,0,0-0.1,0-0.1c0,0,0,0,0,0l0-0.3
					c0-0.1,0-0.2,0-0.3l0,0c0-0.1,0-0.1,0-0.1C8.1,23.3,8.1,23.2,8.1,23z"/>
				<path class="st1" d="M11.1,26.9c0,0.1,0,0.2,0,0.2c0,0.1,0,0.3,0.1,0.4c0,0.1,0.1,0.2,0.1,0.4c0.1,0.3,0.2,0.6,0.2,0.9l0.1,0.4
					c0,0.1,0,0.2,0.1,0.4c0,0-0.1,0.1-0.1,0.1l-0.5,0.1l-0.1,0c0,0,0,0,0,0l0-0.1c0,0,0,0,0-0.1c0,0,0.1-0.1,0.1-0.1l0.1-0.1
					c0.1-0.1,0.1-0.1,0.2-0.2c0,0,0-0.1,0-0.2c0,0,0-0.1,0-0.1c0-0.1-0.1-0.3-0.1-0.5c0-0.2-0.1-0.4-0.1-0.5c0,0-0.2,0-0.5,0.1
					l-0.4,0.1L10,28.4c0,0,0,0.1,0,0.1c0.1,0.3,0.1,0.5,0.2,0.6c0,0.1,0.1,0.2,0.1,0.2c0,0,0.1,0,0.1,0c0,0,0.2,0,0.4,0l0,0l0,0.1
					c-0.1,0-0.2,0.1-0.3,0.1c-0.2,0-0.3,0.1-0.3,0.1c0,0-0.1,0-0.1,0c0,0-0.1,0-0.2,0.1c-0.1,0-0.2,0-0.2,0.1l-0.1,0l0-0.2
					c0,0,0.1,0,0.1-0.1c0.1-0.1,0.2-0.1,0.2-0.1c0,0,0-0.1,0-0.1c0,0,0-0.1-0.1-0.3c-0.1-0.2-0.1-0.4-0.1-0.5c0,0-0.1,0-0.1,0
					c-0.2,0-0.3,0.1-0.4,0.1l-0.5,0.1c-0.1,0-0.1,0-0.1,0.1c0,0.1,0,0.3,0.1,0.6c0.1,0.2,0.1,0.4,0.2,0.5c0,0.1,0.1,0.2,0.2,0.2
					c0.1,0.1,0.3,0.1,0.5,0.2c0,0,0,0.1,0,0.1c0,0,0,0,0,0.1c0,0-0.1,0-0.1,0l-0.1,0l-0.5,0l-0.3,0c0-0.1-0.1-0.2-0.1-0.2
					c0-0.1-0.1-0.3-0.1-0.7c-0.1-0.3-0.1-0.6-0.2-0.9c0-0.2-0.1-0.4-0.2-0.7l0-0.1l-0.1-0.3l0.2,0c0,0,0,0.1,0.1,0.2
					c0.1,0.2,0.1,0.3,0.2,0.3c0,0,0.1,0,0.2,0c0,0,0.1,0,0.1,0l0.1,0l0.9-0.2l0.3-0.1l0.4-0.1l0.3-0.1l0.3-0.1c0,0,0,0,0,0
					c0,0,0,0,0-0.1c0,0,0,0,0-0.1c0-0.1,0-0.2,0-0.3c0,0,0-0.1,0-0.1L11.1,26.9z M11.5,27.8l0.9,0.2c0,0,0,0.1,0,0.1l0.1,0.4
					c-0.1,0.1-0.2,0.2-0.4,0.3l-0.3,0.3l0-0.2l0.3-0.6c0,0-0.1-0.1-0.2-0.2c-0.1-0.1-0.2-0.1-0.3-0.2L11.5,27.8z"/>
				<path class="st1" d="M11.7,30.1l0.1-0.1l0.1,0.2l0,0.1c0,0.1,0.1,0.1,0.1,0.2c0,0,0,0.1,0.1,0.1c0,0,0,0,0,0c0,0,0,0.1,0.1,0.1
					c0,0.1,0.1,0.1,0.1,0.1c0,0,0,0,0,0.1c-0.1,0.3-0.1,0.6-0.2,0.8c-0.1,0.2-0.3,1-0.7,2.3l0.1,0l0.2-0.1c0.1-0.1,0.2-0.1,0.3-0.2
					c0.1-0.1,0.2-0.1,0.3-0.2c0.1-0.1,0.2-0.1,0.3-0.2c0.2-0.1,0.3-0.2,0.3-0.2c0.1,0,0.1-0.1,0.1-0.1c0,0,0-0.1,0-0.2
					c0-0.1,0-0.1,0-0.2l0.1-0.1l0,0.1l0.2,0.4l0.3,0.4c0,0,0,0.1,0,0.1l-0.1,0.1c0,0-0.1,0-0.1-0.1c-0.1-0.1-0.1-0.1-0.1-0.1
					c-0.1,0-0.1-0.1-0.1-0.1c0,0-0.1,0-0.1,0c0,0,0,0-0.1,0.1c0,0-0.1,0-0.2,0.1c-0.2,0.1-0.4,0.2-0.5,0.3c0,0-0.1,0-0.1,0.1
					l-0.7,0.4c-0.1,0-0.1,0-0.1,0.1l-0.3,0.1l-0.1,0.1L11,34.5c-0.1,0-0.1,0.1-0.1,0.1l-0.1,0.1l-0.1-0.2l0.1-0.4l0.2-0.8l0.2-0.5
					l0.1-0.4c0.1-0.3,0.1-0.5,0.2-0.7l0.1-0.5l-0.8,0.4c0,0-0.1,0.1-0.1,0.1l-0.1,0.1l-0.3,0.2c-0.1,0.1-0.2,0.1-0.4,0.2
					c0,0-0.1,0-0.1,0.1c0,0,0,0,0,0.1c0,0.1,0.1,0.2,0.1,0.4c0,0,0,0,0,0.1l-0.2,0.1l0-0.1c0,0-0.1-0.2-0.2-0.4
					c-0.1-0.2-0.2-0.4-0.3-0.4c0-0.1-0.1-0.1-0.1-0.1c0,0,0,0,0-0.1c0,0,0.1,0,0.1,0c0,0,0,0,0.1,0c0,0,0,0.1,0.1,0.1c0,0,0,0,0,0.1
					c0.1,0.1,0.1,0.2,0.1,0.2c0,0,0.1,0,0.2,0c0.2-0.1,0.4-0.2,0.4-0.2l0.1-0.1l0.7-0.4l0.4-0.2c0.2-0.1,0.3-0.2,0.3-0.2
					c0,0,0-0.1,0.1-0.1c0-0.1,0-0.1,0-0.2C11.7,30.4,11.7,30.3,11.7,30.1z"/>
				<path class="st1" d="M12.7,34.6c0.1-0.1,0.3-0.2,0.5-0.3c0.1-0.1,0.3-0.1,0.4-0.1c0.2,0,0.3,0,0.5,0c0.2,0,0.3,0.1,0.5,0.2
					c0.1,0.1,0.3,0.2,0.4,0.3c0.2,0.2,0.4,0.5,0.5,0.7c0.1,0.3,0.1,0.5,0,0.8c-0.1,0.3-0.2,0.6-0.4,0.8c-0.3,0.3-0.7,0.5-1.1,0.5
					c-0.4,0-0.8-0.2-1.2-0.6c-0.1-0.1-0.2-0.2-0.2-0.3c-0.1-0.1-0.1-0.1-0.1-0.2c-0.1-0.1-0.1-0.2-0.1-0.2c0-0.2-0.1-0.4-0.1-0.5
					c0-0.1,0-0.3,0.1-0.4c0-0.1,0.1-0.2,0.2-0.4C12.5,34.8,12.6,34.7,12.7,34.6z M14.8,34.9c-0.1-0.1-0.2-0.2-0.3-0.2
					c-0.1,0-0.2,0-0.3,0c-0.2,0-0.3,0.1-0.4,0.2c-0.1,0.1-0.3,0.2-0.4,0.4c-0.1,0.1-0.2,0.2-0.2,0.2c0,0,0,0-0.1,0.1
					c-0.1,0.1-0.1,0.2-0.1,0.2c-0.1,0.2-0.2,0.3-0.2,0.4c0,0.1,0,0.2,0,0.3c0,0.1,0,0.1,0.1,0.2c0,0.1,0.1,0.2,0.1,0.2
					c0.1,0.1,0.3,0.2,0.4,0.3c0.2,0,0.3,0,0.5,0c0.2-0.1,0.4-0.2,0.6-0.4c0.1-0.1,0.2-0.2,0.3-0.4l0,0c0,0,0,0,0.1-0.1
					c0.1-0.2,0.2-0.4,0.2-0.6C15.1,35.2,15,35,14.8,34.9z"/>
				<path class="st1" d="M14.7,38.7l0.1-0.1c0,0,0.1,0,0.1,0.1c0.1,0,0.2,0.1,0.2,0.1c0.1,0,0.1-0.1,0.2-0.1l0.2-0.2l0.3-0.4
					l0.1-0.1c0.2-0.2,0.3-0.4,0.3-0.4l0.2-0.3l0.1-0.1l0.1-0.2l0.1-0.1c0,0,0,0,0-0.1c0-0.1-0.1-0.1-0.2-0.2c0,0,0,0-0.1-0.1
					l0.1-0.2l0.5,0.4c0.1,0,0.1,0.1,0.1,0.1c0.1,0.1,0.2,0.1,0.4,0.2c0.1,0.1,0.2,0.1,0.2,0.1c0,0,0,0,0,0.1c0,0,0,0-0.1,0.1
					c-0.1,0-0.1,0-0.2-0.1c-0.1,0-0.1-0.1-0.2-0.1c0,0-0.1,0.1-0.1,0.1c0,0.1-0.1,0.1-0.1,0.1c-0.2,0.2-0.3,0.4-0.4,0.5l-0.4,0.5
					l-0.2,0.3l-0.3,0.4L15.8,39c0,0,0,0,0,0.1c0.1,0.1,0.1,0.1,0.2,0.2c0,0,0,0,0.1,0.1c0,0,0,0.1-0.1,0.1c0,0,0,0,0,0.1
					c0,0,0,0,0,0c0,0-0.1,0-0.1,0c0,0,0,0,0,0c0,0-0.1-0.1-0.2-0.2l-0.3-0.2c-0.1,0-0.2-0.1-0.3-0.2C14.8,38.7,14.7,38.7,14.7,38.7z
					"/>
				<path class="st1" d="M19.5,38.1c0,0.1,0,0.1-0.1,0.2c-0.1,0.2-0.1,0.3-0.1,0.4c0,0,0,0.1,0,0.1l0,0l-0.1-0.1l0,0
					c0-0.2,0-0.4,0-0.5c-0.1-0.2-0.1-0.3-0.3-0.4c-0.1-0.1-0.3-0.1-0.4-0.1c-0.1,0-0.2,0.1-0.3,0.2c0,0.1,0,0.2,0,0.3
					c0,0.1,0.2,0.3,0.4,0.5c0.1,0.1,0.2,0.2,0.3,0.3c0.1,0.1,0.2,0.2,0.2,0.3c0,0.1,0.1,0.2,0,0.3c0,0.1,0,0.2-0.1,0.3
					c-0.1,0.1-0.2,0.3-0.3,0.4c-0.1,0.1-0.1,0.1-0.2,0.1c-0.1,0-0.2,0-0.3,0.1c-0.1,0-0.2,0-0.3,0c-0.1,0-0.2-0.1-0.4-0.1
					c-0.1,0-0.2-0.1-0.3-0.2L16.9,40c-0.1-0.1-0.1-0.1-0.1-0.1c0,0,0,0,0,0l0,0c0,0,0.1-0.1,0.1-0.3c0-0.1,0.1-0.2,0.1-0.2l0-0.1
					l0.2,0.1c0,0.2,0,0.3,0,0.3c0,0.1,0,0.2,0.1,0.2c0,0.1,0.1,0.1,0.1,0.2c0.1,0.1,0.1,0.1,0.2,0.2c0.1,0,0.2,0.1,0.3,0.1
					c0.1,0,0.2,0,0.3-0.1c0.1,0,0.2-0.1,0.2-0.2c0.1-0.1,0.1-0.2,0-0.4c0-0.1-0.2-0.2-0.4-0.5c-0.2-0.2-0.4-0.4-0.4-0.5
					c-0.1-0.1-0.1-0.3-0.1-0.4c0-0.1,0-0.3,0.1-0.4c0.1-0.2,0.3-0.4,0.5-0.5c0.2-0.1,0.5,0,0.8,0.1c0.1,0,0.2,0.1,0.3,0.2
					C19.3,37.9,19.4,37.9,19.5,38.1z"/>
				<path class="st1" d="M20.6,41.6l0-0.2c0,0,0.1,0,0.2,0c0.1,0,0.2,0,0.2,0l0,0c0-0.1,0-0.1,0.1-0.2l0,0l0.1-0.5l0-0.2l0.1-0.3
					l0.1-0.4l0.1-0.8c0,0-0.1-0.1-0.2-0.1c0,0-0.1,0-0.1-0.1l-0.1,0l0-0.2l0.3,0.1c0.2,0.1,0.5,0.1,0.8,0.2c0.2,0,0.4,0.1,0.6,0.1
					l0,0l0.1,0l0,0l0.1,0l0.4,0.1c0,0,0,0,0.1,0c0,0,0.1,0,0.1,0c0,0,0,0.1,0,0.1l0,0.4c0,0,0,0.1,0,0.1c-0.1,0-0.1,0-0.1,0
					c0,0-0.1,0-0.1,0c0,0,0,0,0-0.1c0-0.2-0.1-0.3-0.1-0.3c0,0-0.2-0.1-0.4-0.1l-0.3,0c-0.1,0-0.2,0-0.3,0c0,0,0,0-0.1,0
					c0,0,0,0.1-0.1,0.1l0,0.3l-0.1,0.3c0,0.2,0,0.3,0,0.3c0,0,0,0,0,0l0.2,0l0.3,0.1c0.1,0,0.2,0,0.3,0c0.1,0,0.1,0,0.2,0
					c0,0,0.1,0,0.1-0.1c0,0,0.1-0.1,0.1-0.3c0,0,0,0,0.1,0c0,0,0,0,0,0c0,0,0.1,0,0.1,0l-0.1,0.4c0,0.1,0,0.1,0,0.2l0,0.1
					c0,0,0,0.1-0.1,0.3c0,0,0,0,0,0.1c0,0-0.1,0-0.1,0c0,0,0,0-0.1,0c0,0,0-0.1,0-0.1c0-0.1,0-0.2-0.1-0.2c-0.1-0.1-0.3-0.1-0.7-0.2
					c-0.1,0-0.1,0-0.2,0c0,0.1,0,0.1-0.1,0.2l-0.1,0.7c0,0.1,0,0.2,0,0.2c0,0,0.1,0.1,0.2,0.1l0,0c0.1,0,0.1,0,0.2,0.1l0.1,0
					c0,0,0,0.1,0,0.1c0,0,0,0.1,0,0.1l0,0l-0.1,0l-0.3-0.1c0,0-0.2,0-0.5-0.1c-0.1,0-0.2,0-0.2,0c-0.1,0-0.2,0-0.2,0
					C20.7,41.6,20.7,41.6,20.6,41.6z"/>
				<path class="st1" d="M23.9,39.1c0.1,0,0.2,0,0.2,0c0.1,0,0.3,0,0.4,0c0.1,0,0.2,0,0.4,0c0.3,0,0.7,0,0.9-0.1l0.4,0
					c0.1,0,0.2,0,0.4,0c0,0,0,0.1,0,0.1l0,0.5l0,0.1c0,0,0,0,0,0l-0.1,0c0,0,0,0-0.1,0c0,0,0-0.1-0.1-0.1l-0.1-0.2
					c0-0.1-0.1-0.1-0.2-0.2c0,0-0.1,0-0.2,0c0,0-0.1,0-0.1,0c-0.1,0-0.3,0-0.5,0c-0.2,0-0.4,0-0.5,0c0,0,0,0.2,0,0.5l0,0.4l0,0.3
					c0,0,0.1,0,0.1,0c0.3,0,0.5,0,0.6,0c0.1,0,0.2,0,0.2-0.1c0,0,0.1-0.1,0.1-0.1c0,0,0-0.2,0.1-0.3l0,0l0.1,0c0,0.1,0,0.2,0,0.3
					c0,0.2,0,0.3,0,0.3c0,0,0,0.1,0,0.1c0,0,0,0.1,0,0.2c0,0.1,0,0.2,0,0.2l0,0.1l-0.2,0c0,0,0-0.1,0-0.2c0-0.1-0.1-0.2-0.1-0.3
					c0,0-0.1,0-0.1-0.1c0,0-0.1,0-0.3,0c-0.2,0-0.4,0-0.5,0c0,0,0,0.1,0,0.1c0,0.2,0,0.3,0,0.5l0,0.5c0,0.1,0,0.1,0.1,0.1
					c0.1,0,0.3,0,0.6,0c0.2,0,0.4,0,0.6-0.1c0.1,0,0.2-0.1,0.3-0.2c0.1-0.1,0.2-0.3,0.3-0.5c0,0,0.1,0,0.1,0c0,0,0,0,0.1,0
					c0,0,0,0.1,0,0.1l0,0.1L27,41.8l0,0.3c-0.1,0-0.2,0-0.2,0c-0.1,0-0.3,0-0.7,0c-0.3,0-0.6,0-1,0c-0.2,0-0.4,0-0.7,0l-0.1,0
					l-0.3,0l0-0.2c0,0,0.1,0,0.2,0c0.2,0,0.3-0.1,0.3-0.1c0,0,0-0.1,0-0.2c0,0,0-0.1,0-0.1l0-0.1l0-0.9l0-0.3l0-0.4l0-0.3l0-0.3
					c0,0,0,0,0,0c0,0,0,0-0.1,0c0,0,0,0-0.1,0c-0.1,0-0.2,0-0.3,0c0,0-0.1,0-0.1,0L23.9,39.1z M25.3,38.9c0-0.2,0.1-0.4,0.2-0.8
					l0.6,0l-0.7,0.8C25.4,38.9,25.3,38.9,25.3,38.9C25.3,38.9,25.3,38.9,25.3,38.9z"/>
				<path class="st1" d="M28.1,42l0-0.2c0.2-0.1,0.3-0.2,0.3-0.2c0,0,0-0.1,0-0.3l-0.2-0.8l-0.2-0.8c0-0.1,0-0.1,0-0.1
					c-0.1-0.2-0.1-0.3-0.2-0.4c0,0-0.1,0-0.3,0c0,0-0.1,0-0.1,0c0,0,0-0.1,0-0.1l0-0.1c0.1,0,0.1,0,0.2-0.1l0.7-0.2c0,0,0,0,0.1,0
					l0.1,0c0,0,0.1,0.1,0.1,0.1c0.1,0.1,0.2,0.2,0.4,0.4l0,0.1l0.6,0.7c0,0,0,0,0.1,0.1c0,0,0.1,0.1,0.1,0.1c0,0,0.1,0.1,0.1,0.1
					c0,0,0.1,0.1,0.1,0.1c0,0,0-0.1,0-0.1c0-0.2,0-0.3,0.1-0.4c0-0.2,0.1-0.6,0.1-1.1c0-0.1,0-0.2,0-0.3c0-0.2,0-0.2,0-0.2
					c0,0,0,0,0.1,0c0,0,0,0,0.1,0c0.1,0,0.2-0.1,0.3-0.1c0.2,0,0.3-0.1,0.4-0.1c0.1,0,0.1-0.1,0.2-0.1c0,0,0,0,0.1,0c0,0,0,0,0,0
					l0,0.1c0,0,0,0,0,0.1c-0.1,0.1-0.2,0.1-0.3,0.2c-0.1,0-0.1,0.1-0.1,0.1l0,0l0.2,0.7c0,0.1,0.1,0.4,0.3,0.9
					c0,0.1,0.1,0.3,0.2,0.5c0,0,0,0,0,0.1c0,0,0,0.1,0,0.1c0,0,0.2,0,0.4,0c0,0,0,0,0,0.1c0,0,0,0.1,0,0.1c0,0-0.1,0-0.3,0.1
					c-0.2,0-0.3,0.1-0.5,0.1c-0.2,0.1-0.4,0.1-0.6,0.2c0,0-0.1,0-0.1,0l0-0.2c0.1,0,0.1-0.1,0.2-0.1c0.1,0,0.1-0.1,0.1-0.1
					c0,0,0-0.1,0-0.2c0,0,0-0.1,0-0.1c-0.1-0.2-0.1-0.4-0.2-0.7L30.3,39c0-0.1-0.1-0.2-0.1-0.2l-0.2,1.5c0,0,0,0.1,0,0.1
					c0,0.1,0,0.1,0,0.2c0,0.3,0,0.5,0,0.7c0,0,0,0.1,0,0.2l-0.2,0.1l-0.2-0.3c-0.1-0.1-0.2-0.2-0.3-0.4c-0.1-0.1-0.2-0.2-0.2-0.2
					c0,0,0,0,0-0.1l0,0c0,0,0,0,0,0l-0.6-0.6l-0.3-0.4l0.3,1.1l0.2,0.7c0,0.1,0.1,0.2,0.1,0.2c0.1,0,0.2,0,0.3,0l0.1,0l0.1,0.2
					c-0.1,0-0.2,0-0.3,0.1c-0.1,0-0.2,0.1-0.4,0.1C28.5,41.9,28.3,41.9,28.1,42z"/>
				<path class="st1" d="M32.8,40.3l-0.1-0.1c0,0,0.1-0.1,0.1-0.1c0.1-0.1,0.1-0.1,0.2-0.2c0-0.1,0-0.1-0.1-0.2l-0.1-0.2L32.5,39
					l-0.1-0.1c-0.1-0.3-0.2-0.4-0.2-0.4l-0.2-0.3L32,38l-0.1-0.2l-0.1-0.1c0,0,0,0-0.1-0.1c-0.1,0-0.2,0-0.3,0.1c0,0-0.1,0-0.1,0
					l-0.1-0.2l0.6-0.3c0.1,0,0.1-0.1,0.1-0.1c0.1,0,0.2-0.1,0.4-0.2c0.1-0.1,0.2-0.1,0.2-0.1c0,0,0,0,0,0.1c0,0,0,0.1,0,0.1
					c0,0-0.1,0.1-0.2,0.2c-0.1,0.1-0.1,0.1-0.1,0.1c0,0,0,0.1,0.1,0.2c0,0.1,0.1,0.1,0.1,0.1c0.1,0.2,0.2,0.4,0.3,0.5l0.3,0.5
					l0.1,0.3l0.2,0.4l0,0.1c0,0,0,0,0,0c0.1,0,0.2-0.1,0.2-0.1c0,0,0.1,0,0.1-0.1c0,0,0.1,0.1,0.1,0.1c0,0,0,0,0,0.1c0,0,0,0,0,0
					c0,0-0.1,0-0.1,0c0,0,0,0-0.1,0c0,0-0.1,0-0.3,0.1L33.3,40c-0.1,0-0.2,0.1-0.3,0.2C32.9,40.3,32.8,40.3,32.8,40.3z"/>
				<path class="st1" d="M32.9,37.1L32.8,37l0.2-0.1l0,0c0.1-0.1,0.1-0.1,0.1-0.1c0,0,0.1,0,0.1-0.1c0,0,0,0,0,0c0,0,0,0,0.1-0.1
					c0.1-0.1,0.1-0.1,0.1-0.1c0,0,0,0,0.1,0c0.3,0,0.6,0,0.8,0c0.2,0,1,0.1,2.3,0.2l0,0l-0.2-0.2c-0.1-0.1-0.2-0.2-0.3-0.3
					c-0.1-0.1-0.1-0.1-0.2-0.2c-0.1-0.1-0.2-0.2-0.2-0.3c-0.1-0.1-0.2-0.2-0.3-0.2c-0.1-0.1-0.1-0.1-0.1-0.1c0,0-0.1,0-0.2,0.1
					c-0.1,0-0.1,0.1-0.2,0.1l-0.1-0.1l0,0l0.3-0.3l0.4-0.4c0,0,0,0,0.1-0.1l0.1,0.1c0,0,0,0.1-0.1,0.1c-0.1,0.1-0.1,0.1-0.1,0.2
					c0,0.1,0,0.1,0,0.1c0,0,0,0,0,0.1c0,0,0,0,0.1,0.1c0,0,0.1,0.1,0.1,0.1c0.2,0.2,0.3,0.3,0.4,0.4c0,0,0.1,0.1,0.1,0.1l0.6,0.6
					c0,0,0.1,0.1,0.1,0.1l0.2,0.2l0.1,0.1l0.1,0.1c0,0,0.1,0.1,0.1,0.1l0.1,0.1l-0.2,0.2l-0.4,0l-0.8,0l-0.6,0l-0.4,0
					c-0.3,0-0.5,0-0.7,0l-0.5,0l0.6,0.6c0,0,0.1,0.1,0.1,0.1l0.1,0.1l0.2,0.2c0.1,0.1,0.2,0.2,0.3,0.3c0,0,0.1,0,0.1,0.1
					c0,0,0,0,0.1,0c0.1,0,0.2-0.1,0.3-0.2c0,0,0,0,0.1,0l0.1,0.1l-0.1,0.1c0,0-0.2,0.1-0.4,0.3C35.2,38.9,35.1,39,35,39
					c-0.1,0.1-0.1,0.1-0.1,0.1c0,0,0,0-0.1,0c0,0,0,0-0.1-0.1c0,0,0,0-0.1-0.1c0,0,0.1-0.1,0.1-0.1c0,0,0,0,0.1-0.1
					c0.1-0.1,0.2-0.1,0.2-0.2c0,0,0-0.1-0.1-0.1c-0.2-0.2-0.3-0.3-0.3-0.4l-0.1-0.1l-0.5-0.6l-0.3-0.4c-0.1-0.1-0.2-0.2-0.3-0.3
					c0,0-0.1,0-0.1,0c-0.1,0-0.2,0-0.2,0C33.1,36.9,33,37,32.9,37.1z"/>
				<path class="st1" d="M38.2,36L38,35.9c0,0,0-0.1,0.1-0.1c0-0.1,0.1-0.2,0.1-0.2c0-0.1-0.1-0.1-0.1-0.2l-0.2-0.2l-0.4-0.3
					l-0.1-0.1c-0.2-0.2-0.4-0.3-0.4-0.3l-0.3-0.2l-0.1-0.1l-0.2-0.2L36.3,34c0,0,0,0-0.1,0c-0.1,0-0.1,0.1-0.2,0.2c0,0,0,0-0.1,0.1
					l-0.2-0.1l0.4-0.5c0.1-0.1,0.1-0.1,0.1-0.1c0.1-0.1,0.1-0.2,0.3-0.4c0.1-0.1,0.1-0.2,0.1-0.2c0,0,0,0,0.1,0c0,0,0,0,0.1,0.1
					c0,0.1,0,0.1-0.1,0.2c0,0.1-0.1,0.1-0.1,0.2c0,0,0.1,0.1,0.1,0.1c0.1,0,0.1,0.1,0.1,0.1c0.2,0.2,0.4,0.3,0.5,0.4l0.5,0.4
					l0.2,0.2l0.4,0.3l0.1,0.1c0,0,0,0,0.1,0c0.1-0.1,0.1-0.1,0.2-0.2c0,0,0,0,0.1-0.1c0,0,0.1,0,0.1,0.1c0,0,0,0,0.1,0.1
					c0,0,0,0,0,0c0,0,0,0.1,0,0.1c0,0,0,0,0,0c0,0-0.1,0.1-0.2,0.2l-0.3,0.3c-0.1,0.1-0.1,0.2-0.2,0.3C38.2,35.9,38.2,36,38.2,36z"
					/>
				<path class="st1" d="M37,33l-0.2-0.1l0.1-0.2l0-0.1c0-0.1,0.1-0.1,0.1-0.2c0,0,0-0.1,0.1-0.1c0,0,0,0,0,0c0,0,0-0.1,0.1-0.1
					c0-0.1,0.1-0.1,0.1-0.1c0,0,0,0,0-0.1c0.3-0.1,0.6-0.2,0.8-0.3c0.2-0.1,0.9-0.3,2.2-0.8l-0.1,0L40,30.8
					c-0.1-0.1-0.3-0.1-0.4-0.1c-0.1,0-0.2-0.1-0.3-0.1c-0.1-0.1-0.2-0.1-0.3-0.1c-0.2-0.1-0.3-0.1-0.3-0.1c-0.1,0-0.2-0.1-0.2,0
					c0,0-0.1,0.1-0.2,0.2c0,0.1-0.1,0.1-0.1,0.2L38,30.4l0-0.1l0.2-0.4l0.2-0.5c0,0,0-0.1,0-0.1l0.1,0.1c0,0,0,0.1,0,0.1
					c0,0.1,0,0.2,0,0.2c0,0.1,0,0.1,0,0.2c0,0,0,0,0.1,0.1c0,0,0,0,0.1,0c0,0,0.1,0,0.2,0.1c0.2,0.1,0.4,0.2,0.5,0.2
					c0,0,0.1,0,0.1,0.1l0.8,0.3c0.1,0,0.1,0,0.1,0.1l0.3,0.1l0.1,0l0.1,0.1c0.1,0,0.1,0,0.1,0l0.1,0.1L41,31.3l-0.4,0.1l-0.8,0.3
					l-0.5,0.2L39,32c-0.3,0.1-0.5,0.2-0.7,0.3l-0.5,0.2l0.8,0.4c0,0,0.1,0,0.1,0.1l0.1,0.1l0.3,0.1c0.1,0.1,0.2,0.1,0.4,0.2
					c0,0,0.1,0,0.1,0c0,0,0,0,0.1,0c0,0,0.1-0.2,0.2-0.3c0,0,0,0,0,0l0.2,0.1l0,0.1c0,0-0.1,0.2-0.2,0.4c-0.1,0.2-0.2,0.4-0.2,0.5
					c0,0.1,0,0.1-0.1,0.1c0,0,0,0,0,0.1c0,0-0.1,0-0.1,0c0,0,0,0-0.1,0c0,0,0-0.1,0-0.1c0,0,0,0,0-0.1c0.1-0.1,0.1-0.2,0.1-0.2
					c0,0,0-0.1-0.1-0.1c-0.2-0.1-0.4-0.2-0.4-0.2L39,33.3l-0.7-0.3l-0.4-0.2c-0.2-0.1-0.3-0.1-0.4-0.1c0,0-0.1,0-0.1,0
					c-0.1,0-0.1,0.1-0.2,0.1C37.2,32.8,37.1,32.9,37,33z"/>
			</g>
		</g>
	</g>
</g>
</svg>
