<svg xmlns="http://www.w3.org/2000/svg" width="139" height="139" viewBox="0 0 139 139">
  <g id="Group_198" data-name="Group 198" transform="translate(-807 -2673)">
    <circle id="Ellipse_11" data-name="Ellipse 11" cx="69.5" cy="69.5" r="69.5" transform="translate(807 2673)" fill="#fff"/>
    <g id="Group_151" data-name="Group 151" transform="translate(825.94 2693)">
      <path id="Path_282" data-name="Path 282" d="M36.6,82.9a10.438,10.438,0,0,0,7.4,3,10.979,10.979,0,0,0,8-3.4L83.1,51.4A9.642,9.642,0,0,0,85.9,45V21.5A7.511,7.511,0,0,0,78.4,14H54.9a9.194,9.194,0,0,0-6.4,2.8L17.4,48c-4.3,4.3-4.5,11.3-.3,15.4ZM19.5,50.1,50.6,19a6.266,6.266,0,0,1,4.3-1.9H78.4a4.816,4.816,0,0,1,3.2,1.3,4.224,4.224,0,0,1,1.3,3.2L83,45a6.31,6.31,0,0,1-1.9,4.4L49.9,80.5a7.915,7.915,0,0,1-11.2.3L19.2,61.3A7.915,7.915,0,0,1,19.5,50.1Z" fill="#303030"/>
      <path id="Path_283" data-name="Path 283" d="M65.5,44a9.227,9.227,0,0,0,6.7-2.8,9.475,9.475,0,1,0-13.4,0A9.227,9.227,0,0,0,65.5,44ZM60.9,29.9a6.518,6.518,0,0,1,9.2,0,6.505,6.505,0,1,1-9.2,0Z" fill="#303030"/>
    </g>
  </g>
</svg>
