<svg xmlns="http://www.w3.org/2000/svg" width="139" height="139" viewBox="0 0 139 139">
  <g id="Group_197" data-name="Group 197" transform="translate(-616 -2673)">
    <circle id="Ellipse_8" data-name="Ellipse 8" cx="69.5" cy="69.5" r="69.5" transform="translate(616 2673)" fill="#fff"/>
    <g id="Group_150" data-name="Group 150" transform="translate(640.551 2695.699)">
      <ellipse id="Ellipse_42" data-name="Ellipse 42" cx="5" cy="4" rx="5" ry="4" transform="translate(66.449 34.301)" fill="#303030"/>
      <ellipse id="Ellipse_43" data-name="Ellipse 43" cx="4.5" cy="4" rx="4.5" ry="4" transform="translate(51.449 34.301)" fill="#303030"/>
      <circle id="Ellipse_44" data-name="Ellipse 44" cx="4" cy="4" r="4" transform="translate(35.449 34.301)" fill="#303030"/>
      <path id="Path_281" data-name="Path 281" d="M83.612,53.637A26.2,26.2,0,0,0,88.9,37.966C88.9,22.035,73.952,9,55.588,9,43.494,9,32.415,14.648,26.621,23.787,12.515,25.641,2,36.069,2,48.322A22.2,22.2,0,0,0,6.548,61.69L3.289,73.8a1.438,1.438,0,0,0,2.1,1.579l10.6-5.866a32.488,32.488,0,0,0,14.976,3.65,31.588,31.588,0,0,0,19.61-6.575,37.434,37.434,0,0,0,5.011.348,36.91,36.91,0,0,0,17.38-4.244l12.354,6.952a1.427,1.427,0,0,0,2.086-1.564ZM16.671,66.672a1.446,1.446,0,0,0-1.448,0L6.982,71.277l2.549-9.53a1.448,1.448,0,0,0-.29-1.275A19.5,19.5,0,0,1,4.9,48.322c0-10.138,8.357-18.929,19.856-21.3a25.747,25.747,0,0,0-2.477,10.949c0,13.165,10.051,24.462,24.332,27.88a29.155,29.155,0,0,1-15.642,4.345,29.5,29.5,0,0,1-14.295-3.534Zm56.991-6.879a1.446,1.446,0,0,0-1.448,0,34.084,34.084,0,0,1-16.627,4.244,33.606,33.606,0,0,1-5.214-.391c-14.6-2.158-25.2-12.948-25.2-25.679a23.186,23.186,0,0,1,3.461-12.093h0C33.863,17.255,44.247,11.9,55.588,11.9,72.359,11.9,86,23.584,86,37.966A23.432,23.432,0,0,1,80.89,52.449a1.451,1.451,0,0,0-.261,1.246l3.1,11.789Z" transform="translate(0 0)" fill="#303030"/>
    </g>
  </g>
</svg>
