<?xml version="1.0" encoding="utf-8"?>
<!-- Generator: Adobe Illustrator 25.0.0, SVG Export Plug-In . SVG Version: 6.00 Build 0)  -->
<svg version="1.1" id="Camada_1" focusable="false" xmlns="http://www.w3.org/2000/svg" xmlns:xlink="http://www.w3.org/1999/xlink"
	 x="0px" y="0px" viewBox="0 0 384 517.7" style="enable-background:new 0 0 384 517.7;" xml:space="preserve">
<style type="text/css">
	.st0{fill:#B5904C;}
</style>
<g>
	<path class="st0" d="M371.7,99.8l-87.5-87.5C276.4,4.5,265.6,0,254.7,0H41.8C18.7,0.1,0,18.9,0,41.8v434.1
		c0,23,18.7,41.7,41.7,41.7h300.5c23,0,41.7-18.7,41.7-41.7V129.4C384,118.4,379.5,107.6,371.7,99.8z M350.6,484.3H33.4V33.5H217
		v116.9c0,9.2,7.5,16.7,16.7,16.7h116.9V484.3z M250.4,133.7V25.8l107.9,107.9H250.4z"/>
	<path class="st0" d="M174.3,391.2l-1.1-3.3l-3.1,1.4c-1.1,0.5-2.4,1.1-3.7,1.7c-1.2,0.5-2.7,1-4.3,1.5c-1.7,0.4-3.7,0.8-5.9,1.2
		c-2.2,0.3-4.7,0.5-7.4,0.5c-4.2,0-7.7-0.7-10.6-2c-2.8-1.3-5.1-3-6.8-5.2s-3-4.9-3.8-8.1c-0.8-3.3-1.3-6.9-1.3-10.8
		c0-4.8,0.6-8.8,1.9-12.1c1.2-3.2,2.8-5.8,4.8-7.8c1.9-1.9,4.2-3.4,6.7-4.2c2.6-0.9,5.4-1.4,8.1-1.4c4.3,0,8.3,0.5,11.6,1.4
		c3.4,1,6.5,2.1,9,3.5l3.2,1.7l1.2-3.4l5.8-16.3l0.8-2.4l-2.1-1.3c-0.8-0.5-2-1.1-3.6-2c-1.7-0.8-3.8-1.7-6.3-2.4
		c-2.4-0.8-5.3-1.5-8.5-2c-3.3-0.6-6.9-0.9-10.9-0.9c-6.9,0-13.4,1.1-19.3,3.3c-6,2.2-11.2,5.5-15.6,9.8c-4.3,4.3-7.8,9.6-10.3,15.8
		c-2.5,6.2-3.7,13.2-3.7,21c0,15.7,4.1,28,12.3,36.7s20.2,13.1,35.6,13.1c7,0,13.4-0.7,18.8-2.2c5.5-1.5,9.7-3.1,12.8-5l2.2-1.3
		l-0.8-2.4L174.3,391.2z"/>
	<path class="st0" d="M231.5,370.7l-4.8-13.4c-2.1-6-4.2-12-6.3-17.8c-2-5.9-3.9-11.5-5.6-16.7l-0.7-2.2h-2.3h-22.2h-4.3l1.4,4.1
		c1.9,5.6,4.2,12.1,6.8,19.5c2.6,7.3,5.5,15,8.6,22.8c3.1,7.9,6.5,16,9.9,24.1c3.5,8.1,7,16,10.6,23.5l0.8,1.8h2h19.2h2l0.8-1.8
		c3.6-7.5,7.1-15.4,10.6-23.5c3.4-8.1,6.7-16.2,9.9-24.1c3.1-7.9,6-15.6,8.6-22.8c2.6-7.1,4.9-13.6,6.9-19.4l1.5-4.2h-4.4H259h-2.3
		l-0.7,2.2c-1.7,5.2-3.6,10.8-5.6,16.7c-2.1,6-4.2,12-6.3,17.8s-4.2,11.5-6.2,17.1c-0.9,2.5-1.8,4.8-2.6,7c-0.9-2.2-1.7-4.5-2.6-7
		L231.5,370.7z"/>
</g>
</svg>
