<svg xmlns="http://www.w3.org/2000/svg" width="139" height="140" viewBox="0 0 139 140">
  <g id="Group_199" data-name="Group 199" transform="translate(-1005 -2671)">
    <ellipse id="Ellipse_12" data-name="Ellipse 12" cx="69.5" cy="70" rx="69.5" ry="70" transform="translate(1005 2671)" fill="#fff"/>
    <g id="Group_175" data-name="Group 175" transform="translate(1042.903 2708.623)">
      <path id="Path_308" data-name="Path 308" d="M52.875,7.009H47.991V2.125H44.732V7.009H18.678V2.125H15.419V7.009H10.535a8.151,8.151,0,0,0-8.143,8.143V54.237a8.151,8.151,0,0,0,8.143,8.143h42.34a8.151,8.151,0,0,0,8.143-8.143V15.152A8.153,8.153,0,0,0,52.875,7.009Zm4.888,47.228a4.889,4.889,0,0,1-4.884,4.884H10.535A4.889,4.889,0,0,1,5.65,54.237V23.3H57.762Zm0-34.2H5.647V15.152a4.889,4.889,0,0,1,4.884-4.884h4.884v3.258h3.261V10.268H44.735v3.258h3.258V10.268h4.884a4.889,4.889,0,0,1,4.884,4.884Z" transform="translate(0)" fill="#303030"/>
      <path id="Path_309" data-name="Path 309" d="M13.122,23.161h6.514A3.262,3.262,0,0,0,22.894,19.9V13.389a3.262,3.262,0,0,0-3.258-3.258H13.122a3.262,3.262,0,0,0-3.258,3.258V19.9A3.266,3.266,0,0,0,13.122,23.161Zm0-9.772h6.514l0,6.514H13.122Z" transform="translate(15.324 16.419)" fill="#303030"/>
      <path id="Path_310" data-name="Path 310" d="M18.46,23.161h6.514A3.262,3.262,0,0,0,28.232,19.9V13.389a3.262,3.262,0,0,0-3.258-3.258H18.46A3.262,3.262,0,0,0,15.2,13.389V19.9A3.266,3.266,0,0,0,18.46,23.161Zm0-9.772h6.514l0,6.514H18.46Z" transform="translate(26.272 16.419)" fill="#303030"/>
      <path id="Path_311" data-name="Path 311" d="M7.785,28.5H14.3a3.262,3.262,0,0,0,3.258-3.258V18.727A3.262,3.262,0,0,0,14.3,15.469H7.785a3.262,3.262,0,0,0-3.258,3.258v6.514A3.262,3.262,0,0,0,7.785,28.5Zm0-9.772H14.3l0,6.514H7.785Z" transform="translate(4.379 27.367)" fill="#303030"/>
      <path id="Path_312" data-name="Path 312" d="M13.122,28.5h6.514a3.262,3.262,0,0,0,3.258-3.258V18.727a3.262,3.262,0,0,0-3.258-3.258H13.122a3.262,3.262,0,0,0-3.258,3.258v6.514A3.266,3.266,0,0,0,13.122,28.5Zm0-9.772h6.514l0,6.514H13.122Z" transform="translate(15.324 27.367)" fill="#303030"/>
      <path id="Path_313" data-name="Path 313" d="M18.46,28.5h6.514a3.262,3.262,0,0,0,3.258-3.258V18.727a3.262,3.262,0,0,0-3.258-3.258H18.46A3.262,3.262,0,0,0,15.2,18.727v6.514A3.266,3.266,0,0,0,18.46,28.5Zm0-9.772h6.514l0,6.514H18.46Z" transform="translate(26.272 27.367)" fill="#303030"/>
    </g>
  </g>
</svg>
