<svg xmlns="http://www.w3.org/2000/svg" width="140" height="139" viewBox="0 0 140 139">
  <g id="Group_196" data-name="Group 196" transform="translate(-421 -2673)">
    <ellipse id="Ellipse_5" data-name="Ellipse 5" cx="70" cy="69.5" rx="70" ry="69.5" transform="translate(421 2673)" fill="#fff"/>
    <path id="Path_280" data-name="Path 280" d="M90.506,51.584a13.253,13.253,0,0,0-4.76.478,9.82,9.82,0,0,0,.263-1.341,1.5,1.5,0,0,0-2.979-.362,8.752,8.752,0,0,1-1.467,3.683c-4.637-2.77-13.127-9.94-13.94-10.63-.894-.943-9.554-9.811-19.16-9.811a17.125,17.125,0,0,0-6.9,1.677c0-.089.014-.175.014-.265a1.5,1.5,0,0,0-1.5-1.494h-.006a1.5,1.5,0,0,0-1.494,1.506,6.648,6.648,0,0,1-.7,2.708l0,0,0,0a11.974,11.974,0,0,1-10.153,6.8,8.3,8.3,0,0,1-4.825-.908c-.681-.416-.715-.692-.73-.823-.139-1.142,1.457-3.393,3.147-5.775a63.676,63.676,0,0,0,4.466-6.963c1.076-2.2,2.184-3.428,3.592-3.975,7.355-2.851,13.672-5.211,16.454-5.211a40.441,40.441,0,0,1,6.017.925c2.791.545,6.266,1.223,9.919,1.606,6.318.663,13.293,4.329,14.629,11.024a1.5,1.5,0,1,0,2.942-.587,14.27,14.27,0,0,0-2.945-6.216,23.368,23.368,0,0,0,6.335-1.754,1.5,1.5,0,0,0-1.232-2.735,21.914,21.914,0,0,1-7.861,1.713c-.03,0-.06.007-.09.009a23.059,23.059,0,0,0-11.464-4.438c-3.521-.37-6.781-1.006-9.657-1.567a40.33,40.33,0,0,0-6.591-.98,19.048,19.048,0,0,0-4.87.883,43.371,43.371,0,0,1-6.828-.366,21.3,21.3,0,0,0-9.315.492,61.689,61.689,0,0,0-6.519,2.208c-3.336,1.291-5.352,2.07-8.9,1.378a1.5,1.5,0,0,0-.572,2.945,15.786,15.786,0,0,0,3.039.311,19.866,19.866,0,0,0,7.518-1.835A59.01,59.01,0,0,1,29.6,21.794a17.864,17.864,0,0,1,7.814-.45q-2.4.9-5.126,1.959c-2.775,1.078-4.238,3.481-5.178,5.406A61.212,61.212,0,0,1,22.868,35.3c-2.21,3.116-3.956,5.578-3.679,7.873A4.1,4.1,0,0,0,21.336,46.2a11.077,11.077,0,0,0,6.581,1.341A14.813,14.813,0,0,0,40.4,39.38,15.5,15.5,0,0,1,48.465,36.6c8.637,0,16.943,8.832,17.026,8.92a1.59,1.59,0,0,0,.125.121c.445.379,10.943,9.31,15.615,11.648a1.836,1.836,0,0,1,.91,1.161,3.766,3.766,0,0,1-.478,2.718A4.987,4.987,0,0,1,77.805,63.1c-1.964-.3-7.94-1.229-15.851-7.937a1.5,1.5,0,1,0-1.939,2.288c7.512,6.371,13.519,7.934,16.378,8.455a3.986,3.986,0,0,1-.892,1.836,4.785,4.785,0,0,1-3.362,1.592c-2.207.145-10.094-1.768-14.791-5.941a1.5,1.5,0,0,0-1.992,2.242c3.771,3.352,9.278,5.422,13.212,6.266a4.21,4.21,0,0,1-2.507,1.75c-3.965,1.055-10.13-2.01-11.831-3.182a5.27,5.27,0,0,0-2.475-3.623,6.421,6.421,0,0,0-4.5-.645,6.438,6.438,0,0,0-2.528-3.343,7.548,7.548,0,0,0-5.21-1.212,6.485,6.485,0,0,0-6.146-3.879c-.128,0-.255,0-.377.011a8.9,8.9,0,0,0-4.03,1.462,5.108,5.108,0,0,0-.217-.811A6.194,6.194,0,0,0,25.257,54.9c-2.6-1.025-6.1-.234-8.668,1.9a19.262,19.262,0,0,0-6.566-3.684A1.5,1.5,0,1,0,9.191,56a16.312,16.312,0,0,1,5.471,3.1,5.752,5.752,0,0,0-.628,3.563A6.678,6.678,0,0,0,18.068,67.6a6.893,6.893,0,0,0,2.9.672,6.009,6.009,0,0,0,.992-.09,7.262,7.262,0,0,0,.323,1.463c.843,2.633,3.555,4.387,5.621,5.09a7.211,7.211,0,0,0,2.312.43,5.37,5.37,0,0,0,.728-.068,7.736,7.736,0,0,0,5.667,4.641,6.624,6.624,0,0,0,1.618.195,6.992,6.992,0,0,0,2.779-.582,7.93,7.93,0,0,0,5.52,2.764,5.393,5.393,0,0,0,1.691-.271,7.066,7.066,0,0,0,3.125-2.305,11.769,11.769,0,0,0,4.7,1.648,10.963,10.963,0,0,0,1.113.061,7.543,7.543,0,0,0,7-4.383c.033,0,.068,0,.1,0a10.073,10.073,0,0,0,2.564-.309,7.3,7.3,0,0,0,4.923-4.221c.063,0,.136.008.195.008.138,0,.268,0,.388-.012a7.755,7.755,0,0,0,5.441-2.627,6.917,6.917,0,0,0,1.667-3.785,7.52,7.52,0,0,0,4.829-3.264,6.766,6.766,0,0,0,.766-5,4.816,4.816,0,0,0-.8-1.627,9.415,9.415,0,0,1,6.052-1.454,1.517,1.517,0,0,0,1.607-1.385A1.5,1.5,0,0,0,90.506,51.584ZM19.327,64.877A3.759,3.759,0,0,1,17,62.205a3.286,3.286,0,0,1,1.243-2.893,6.126,6.126,0,0,1,5.916-1.623,3.189,3.189,0,0,1,1.761,1.754,3.086,3.086,0,0,1-.335,2.467,30.4,30.4,0,0,0-2.438,2.619A3.612,3.612,0,0,1,19.327,64.877Zm9.545,7.014c-1.515-.514-3.28-1.766-3.728-3.162-.34-1.061-.221-1.564.041-1.961.934-1.271,5.131-5.822,7.98-5.99.066,0,.133-.006.2-.006,1.272,0,3.255.682,3.5,2.559.371,2.875-2.251,6.1-4.609,7.982a3.142,3.142,0,0,1-2.034.85A4.225,4.225,0,0,1,28.872,71.891Zm8.481,4.935a4.832,4.832,0,0,1-3.645-2.879c.14-.1.28-.18.419-.291,1.342-1.072,5.334-4.625,5.732-9.033a4.522,4.522,0,0,1,3.164.713,3.154,3.154,0,0,1,1.412,1.971c.3,2.5-1.959,7.094-3.486,8.543A3.942,3.942,0,0,1,37.353,76.826Zm9.932,2.164c-1.52.5-3.04-.629-3.836-1.418a18.785,18.785,0,0,0,3.875-8.314,3.812,3.812,0,0,1,2.9.17,2.3,2.3,0,0,1,1.09,1.734C51.628,73.627,49.524,78.254,47.285,78.99Zm9.071-.791a8.725,8.725,0,0,1-3.4-1.2,14.571,14.571,0,0,0,1.1-3.145,26.69,26.69,0,0,0,6.808,2.6A4.621,4.621,0,0,1,56.356,78.2Z" transform="translate(440.893 2692.111)" fill="#303030"/>
  </g>
</svg>
