<svg xmlns="http://www.w3.org/2000/svg" width="140" height="139" viewBox="0 0 140 139">
  <g id="Group_200" data-name="Group 200" transform="translate(-1200 -2673)">
    <ellipse id="Ellipse_39" data-name="Ellipse 39" cx="70" cy="69.5" rx="70" ry="69.5" transform="translate(1200 2673)" fill="#fff"/>
    <g id="Group_153" data-name="Group 153" transform="translate(1153.635 2595.937)">
      <path id="Path_287" data-name="Path 287" d="M108.2,128.668l-3.582-13.36q12.029-3.225,24.066-6.447l3.58,13.359,5.412-1.451q1.667,6.2,3.326,12.411l-5.412,1.451,3.579,13.357L115.1,154.439l-3.58-13.36-36.217,9.706q-1.667-6.2-3.326-12.412l36.217-9.7Zm-6.9,46.649H144.08c3.371,0,3.371-5.118,0-5.118H101.293C97.952,170.2,97.952,175.316,101.293,175.316Zm5.9-15.994h31a5.446,5.446,0,0,1,4.791,8h1.1c7.158,0,7.158,10.877,0,10.877H101.293c-7,0-7.249-10.877,0-10.877h1.1a5.448,5.448,0,0,1,4.792-8Zm31,2.88h-31c-3.446,0-3.273,5.118,0,5.118h31C141.619,167.319,141.487,162.2,138.191,162.2Zm-29.347-42.242,18.5-4.959-.7-2.615-18.5,4.959.7,2.615Zm19.248-2.176-18.5,4.954,6.1,22.774,18.5-4.954-6.1-22.774Zm-10.956,33.126,18.5-4.955-.7-2.618-18.5,4.958.7,2.616Zm-8.193-19.46L75.507,140.41l1.832,6.848,33.436-8.961Zm26.7-7.155-2.635.707,1.837,6.848,2.63-.707-1.832-6.848Z" fill="#303030"/>
    </g>
  </g>
</svg>
