<svg xmlns="http://www.w3.org/2000/svg" width="140" height="140" viewBox="0 0 140 140">
  <g id="Group_203" data-name="Group 203" transform="translate(-1762 -2913)">
    <circle id="Ellipse_47" data-name="Ellipse 47" cx="70" cy="70" r="70" transform="translate(1762 2913)" fill="#fff"/>
    <path id="Path_380" data-name="Path 380" d="M44.676,6C27.52,6.585,16.127,22.128,18,37.172c-1.946,3.379-3.962,6.371-4.872,10.242a3.477,3.477,0,0,0,.074,2.611,1.562,1.562,0,0,0,.15.3,7.984,7.984,0,0,0,3.7,2.685,12.105,12.105,0,0,0,.025,3.107,1.593,1.593,0,0,0,.671,1.019,4.022,4.022,0,0,0,1.193.448,3.065,3.065,0,0,0-.3,2.137,3.359,3.359,0,0,0,1.317,1.765,10.169,10.169,0,0,0,1.02.621,19.774,19.774,0,0,0,.8,5.394,6.216,6.216,0,0,0,2.908,3.729,6.018,6.018,0,0,0,4.623.1,17.512,17.512,0,0,0,4.251-2.262,3.755,3.755,0,0,1-.075,1.044,21.259,21.259,0,0,0-.4,2.411,3.725,3.725,0,0,0,.97,3.032,1.6,1.6,0,1,0,2.223-2.3l-.01-.01a4.3,4.3,0,0,1,0-.5c.036-.5.2-1.236.348-2.063a5.312,5.312,0,0,0-.025-2.833,3.7,3.7,0,0,0-2.859-2.212,1.591,1.591,0,0,0-1.193.3,16.382,16.382,0,0,1-4.226,2.386,2.8,2.8,0,0,1-2.188.074,3.118,3.118,0,0,1-1.342-1.939,18.309,18.309,0,0,1-.7-5.295,1.591,1.591,0,0,0-.82-1.367,12.982,12.982,0,0,1-1.367-.82c-.072-.055-.094-.053-.1-.05a7.553,7.553,0,0,1,1.118-1.317A1.591,1.591,0,0,0,21.93,54.9c-.842-.076-1.316-.1-1.715-.174a23.861,23.861,0,0,1,0-2.61,1.591,1.591,0,0,0-.746-1.418c-1.592-1-2.764-1.422-3.306-2.038a2.389,2.389,0,0,0,.075-.522c0-.008,0-.022,0-.025.785-3.315,2.659-6.094,4.748-9.769a1.593,1.593,0,0,0,.2-1.019C19.191,23.98,29.287,9.739,44.75,9.182H44.8A23.883,23.883,0,0,1,68.663,33.12c-.111,8.6-6.933,16.763-11.385,25.554a1.58,1.58,0,0,0-.174.646c-.111,3.051.756,5.17.025,7.159a1.591,1.591,0,1,0,2.922,1.261,1.493,1.493,0,0,0,.061-.167c1.144-3.114.211-5.7.2-7.83,4.219-8.17,11.405-16.55,11.534-26.6V33.12A27.114,27.114,0,0,0,44.75,6Zm.994,8.228a19.606,19.606,0,0,0-11.51,3.5,11.242,11.242,0,0,0-5.021,8.974A11.34,11.34,0,0,0,34.16,35.73a19.562,19.562,0,0,0,11.51,3.5,21.189,21.189,0,0,0,6.463-.994,1.592,1.592,0,1,0-.97-3.032,18.042,18.042,0,0,1-5.493.845,16.559,16.559,0,0,1-9.645-2.908,8.053,8.053,0,0,1-3.7-6.438,8,8,0,0,1,3.7-6.413A16.586,16.586,0,0,1,45.67,17.41c7.626,0,12.84,4.443,13.373,9.471.311,2.935-.611,4.86-1.616,7.259a14.615,14.615,0,0,0-1.268,9.172,1.6,1.6,0,0,0,3.133-.621c-.634-3.093.095-5.009,1.069-7.333s2.238-5.038,1.839-8.8C61.463,19.6,54.555,14.228,45.67,14.228Z" transform="translate(1789.669 2942.001)"/>
  </g>
</svg>
