<svg xmlns="http://www.w3.org/2000/svg" width="140" height="140" viewBox="0 0 140 140">
  <g id="Group_202" data-name="Group 202" transform="translate(-1588 -2913)">
    <circle id="Ellipse_46" data-name="Ellipse 46" cx="70" cy="70" r="70" transform="translate(1588 2913)" fill="#fff"/>
    <g id="Group_192" data-name="Group 192" transform="translate(1623 2948)">
      <g id="Group_191" data-name="Group 191">
        <path id="Path_379" data-name="Path 379" d="M30.2,51.764H12.941a1.438,1.438,0,0,0,0,2.876H30.2a1.438,1.438,0,1,0,0-2.876Zm8.929,14.379H2.876V14.379H12.941a1.438,1.438,0,0,0,1.438-1.438V2.876H46.013V25.235a1.438,1.438,0,1,0,2.876,0V1.438A1.438,1.438,0,0,0,47.451,0H12.941a1.46,1.46,0,0,0-.555.112,1.407,1.407,0,0,0-.221.147,1.359,1.359,0,0,0-.242.161L.42,11.923a1.428,1.428,0,0,0-.155.233,1.329,1.329,0,0,0-.152.23A1.46,1.46,0,0,0,0,12.941v54.64a1.438,1.438,0,0,0,1.438,1.438H39.125a1.438,1.438,0,1,0,0-2.876ZM11.5,4.909V11.5H4.909ZM30.2,43.137H12.941a1.438,1.438,0,0,0,0,2.876H30.2a1.438,1.438,0,1,0,0-2.876Zm5.752-25.882H12.941a1.438,1.438,0,0,0,0,2.876H35.948a1.438,1.438,0,0,0,0-2.876ZM60.32,37.477A9.744,9.744,0,0,0,63.268,30.2a1.438,1.438,0,0,0-1.438-1.438A10.029,10.029,0,0,0,53.361,33.2a20.224,20.224,0,0,0-1.818-3.773,1.438,1.438,0,0,0-2.43,1.539,18.575,18.575,0,0,1,2.516,7.716c-.15-.063-.285-.112-.443-.181a10.516,10.516,0,0,0-4.337-1.116c-5.662,0-9.464,5.335-9.464,13.278,0,7.307,5.044,18.356,12.651,18.356a4.871,4.871,0,0,0,2.631-.647,1.176,1.176,0,0,1,.535-.2,1.133,1.133,0,0,1,.535.2,4.845,4.845,0,0,0,2.631.647c7.6,0,12.651-11.049,12.651-18.356C69.019,43.094,65.542,37.949,60.32,37.477Zm-.069-5.685a6.684,6.684,0,0,1-5.467,5.438A6.677,6.677,0,0,1,60.251,31.792ZM56.369,66.143a2.1,2.1,0,0,1-1.26-.3,3.877,3.877,0,0,0-1.861-.546.978.978,0,0,0-.259.006,3.909,3.909,0,0,0-1.7.541,2.111,2.111,0,0,1-1.26.3c-5.036,0-9.775-8.719-9.775-15.48,0-6.22,2.649-10.4,6.588-10.4a7.9,7.9,0,0,1,3.2.877,7.872,7.872,0,0,0,3.135.868h.052a7.92,7.92,0,0,0,3.135-.868,7.854,7.854,0,0,1,3.2-.877c3.943,0,6.588,4.181,6.588,10.4C66.143,57.424,61.4,66.143,56.369,66.143ZM37.385,27.32a1.438,1.438,0,0,0-1.438-1.438H12.941a1.438,1.438,0,0,0,0,2.876H35.948A1.438,1.438,0,0,0,37.385,27.32ZM34.51,35.948a1.438,1.438,0,0,0-1.438-1.438H12.941a1.438,1.438,0,0,0,0,2.876H33.072A1.438,1.438,0,0,0,34.51,35.948Z"/>
      </g>
    </g>
  </g>
</svg>
