<svg xmlns="http://www.w3.org/2000/svg" width="140" height="140" viewBox="0 0 140 140">
  <g id="Group_201" data-name="Group 201" transform="translate(-1395 -2671)">
    <circle id="Ellipse_38" data-name="Ellipse 38" cx="70" cy="70" r="70" transform="translate(1395 2671)" fill="#fff"/>
    <g id="Group_179" data-name="Group 179" transform="translate(1822.661 2633.959)">
      <path id="Path_314" data-name="Path 314" d="M-332.337,75.177a3.9,3.9,0,0,0,0-5.513,3.9,3.9,0,0,0-5.513,0l-14.458,14.458h-6.116a4.169,4.169,0,0,0-1.5.291,3.79,3.79,0,0,0-1.269.853l-15.644,15.644a3.9,3.9,0,0,0,0,5.513,3.889,3.889,0,0,0,2.767,1.144,3.889,3.889,0,0,0,2.767-1.144l8.987-8.987v8.4l-11.775,11.775-5.034-5.034a3.9,3.9,0,0,0-5.513,0,3.9,3.9,0,0,0,0,5.513l7.8,7.8a3.889,3.889,0,0,0,2.767,1.144,3.889,3.889,0,0,0,2.767-1.144l12.836-12.836,7.8,7.8v21.781a3.884,3.884,0,0,0,3.89,3.89,3.884,3.884,0,0,0,3.89-3.89v-23.4a3.958,3.958,0,0,0-1.144-2.767L-346.8,113.7V89.635Z" transform="translate(0)" fill="none" stroke="#303030" stroke-miterlimit="10" stroke-width="3"/>
      <path id="Path_315" data-name="Path 315" d="M-267.455,80.291a5.851,5.851,0,0,0,5.846-5.846,5.851,5.851,0,0,0-5.846-5.846,5.851,5.851,0,0,0-5.846,5.846A5.824,5.824,0,0,0-267.455,80.291Z" transform="translate(-89.076 -0.059)" fill="none" stroke="#303030" stroke-miterlimit="10" stroke-width="3"/>
      <path id="Path_316" data-name="Path 316" d="M-304.954,387.3a5.851,5.851,0,0,0-5.846,5.846,5.851,5.851,0,0,0,5.846,5.846,5.851,5.851,0,0,0,5.846-5.846A5.838,5.838,0,0,0-304.954,387.3Z" transform="translate(-59.378 -252.46)" fill="none" stroke="#303030" stroke-miterlimit="10" stroke-width="3"/>
    </g>
  </g>
</svg>
