<svg xmlns="http://www.w3.org/2000/svg" width="140" height="140" viewBox="0 0 140 140">
  <g id="Group_194" data-name="Group 194" transform="translate(-1588 -2671)">
    <circle id="Ellipse_45" data-name="Ellipse 45" cx="70" cy="70" r="70" transform="translate(1588 2671)" fill="#fff"/>
    <g id="Group_178" data-name="Group 178" transform="translate(1616.04 2704.019)">
      <path id="Path_288" data-name="Path 288" d="M81.923,36.981a6.64,6.64,0,0,0-4-6.1v-5.89A1.333,1.333,0,0,0,76.6,23.66H68.6V18.332A1.333,1.333,0,0,0,67.271,17H57.946a1.333,1.333,0,0,0-1.332,1.332V32.985H27.309V18.332A1.333,1.333,0,0,0,25.977,17H16.653a1.333,1.333,0,0,0-1.332,1.332V23.66H7.329A1.333,1.333,0,0,0,6,24.992v5.89a6.651,6.651,0,0,0,0,12.2v5.89A1.333,1.333,0,0,0,7.329,50.3h7.992v5.328a1.333,1.333,0,0,0,1.332,1.332h9.324a1.333,1.333,0,0,0,1.332-1.332V40.977H56.614V55.629a1.333,1.333,0,0,0,1.332,1.332h9.324A1.333,1.333,0,0,0,68.6,55.629V50.3H76.6a1.333,1.333,0,0,0,1.332-1.332v-5.89A6.64,6.64,0,0,0,81.923,36.981ZM6,34v5.962a4,4,0,0,1-.32-5.643A3.81,3.81,0,0,1,6,34ZM8.661,47.637V26.324h6.66V42.309H12.657a1.332,1.332,0,1,0,0,2.664h2.664v2.664Zm9.324,6.66V19.664h6.66V48.969H21.981a1.332,1.332,0,1,0,0,2.664h2.664V54.3Zm9.324-15.985V35.649H56.614v2.664ZM65.939,54.3h-6.66V51.633h2.664a1.332,1.332,0,0,0,0-2.664H59.279V19.664h6.66Zm9.324-6.66H68.6V44.973h2.664a1.332,1.332,0,0,0,0-2.664H68.6V26.324h6.66Zm2.664-7.675V34a4,4,0,0,1,.32,5.643A3.811,3.811,0,0,1,77.927,39.962Z" transform="translate(0 0)" fill="#303030"/>
    </g>
  </g>
</svg>
