<svg xmlns="http://www.w3.org/2000/svg" width="140" height="139" viewBox="0 0 140 139">
  <g id="Group_195" data-name="Group 195" transform="translate(-225 -2673)">
    <ellipse id="Ellipse_6" data-name="Ellipse 6" cx="70" cy="69.5" rx="70" ry="69.5" transform="translate(225 2673)" fill="#fff"/>
    <g id="Group_174" data-name="Group 174" transform="translate(250.706 2697.624)">
      <g id="Group_155" data-name="Group 155" transform="translate(34.436 37.943)">
        <path id="Path_289" data-name="Path 289" d="M40.937,28H30.443c-2.862,0-5.043,2.59-5.043,5.724V44.218a3.316,3.316,0,0,0,3.271,3.271h1.5V50.9A2.734,2.734,0,0,0,32.9,53.622h5.588A2.734,2.734,0,0,0,41.21,50.9V47.489h1.5a3.316,3.316,0,0,0,3.271-3.271V33.724A5.3,5.3,0,0,0,40.937,28ZM43.39,44.218a.586.586,0,0,1-.545.545h-1.5V39.312a1.363,1.363,0,1,0-2.726,0V51.033H32.9V39.448a1.363,1.363,0,1,0-2.726,0V44.9h-1.5a.586.586,0,0,1-.545-.545V33.86c0-1.635,1.09-3,2.317-3H40.937a2.775,2.775,0,0,1,2.453,3Z" transform="translate(-25.4 -28)" fill="#303030"/>
      </g>
      <g id="Group_156" data-name="Group 156" transform="translate(39.206 26.086)">
        <path id="Path_290" data-name="Path 290" d="M34.488,30.476a5.613,5.613,0,0,0,5.588-5.588A5.527,5.527,0,0,0,34.488,19.3a5.588,5.588,0,0,0,0,11.176Zm0-8.586a2.879,2.879,0,0,1,2.862,2.862,2.8,2.8,0,0,1-2.862,2.862,2.862,2.862,0,0,1,0-5.724Z" transform="translate(-28.9 -19.3)" fill="#303030"/>
      </g>
      <g id="Group_157" data-name="Group 157" transform="translate(19.989 19.953)">
        <path id="Path_291" data-name="Path 291" d="M39.6,14.8a24.8,24.8,0,1,0,24.8,24.8A24.9,24.9,0,0,0,39.6,14.8Zm0,46.884A22.079,22.079,0,1,1,61.684,39.6,22.161,22.161,0,0,1,39.6,61.684Z" transform="translate(-14.8 -14.8)" fill="#303030"/>
      </g>
      <g id="Group_158" data-name="Group 158" transform="translate(43.431 13.684)">
        <path id="Path_292" data-name="Path 292" d="M33.363,10.2h0A1.288,1.288,0,0,0,32,11.563v2.59a1.288,1.288,0,0,0,1.363,1.363h0a1.366,1.366,0,0,0,1.363-1.363v-2.59A1.366,1.366,0,0,0,33.363,10.2Z" transform="translate(-32 -10.2)" fill="#303030"/>
      </g>
      <g id="Group_159" data-name="Group 159" transform="translate(39.479 0.6)">
        <path id="Path_293" data-name="Path 293" d="M31.417,6.733,33.052,5.1v5.86a1.288,1.288,0,0,0,1.363,1.363h0a1.366,1.366,0,0,0,1.363-1.363v-.136h0V5.234l1.635,1.635a1.349,1.349,0,0,0,1.908-1.908L35.369,1.009a1.317,1.317,0,0,0-1.908,0L29.509,4.961a1.317,1.317,0,0,0,0,1.908A1.46,1.46,0,0,0,31.417,6.733Z" transform="translate(-29.1 -0.6)" fill="#303030"/>
      </g>
      <g id="Group_160" data-name="Group 160" transform="translate(43.431 70.517)">
        <path id="Path_294" data-name="Path 294" d="M33.363,57.215h0a1.288,1.288,0,0,0,1.363-1.363V53.263A1.288,1.288,0,0,0,33.363,51.9h0A1.366,1.366,0,0,0,32,53.263v2.589A1.366,1.366,0,0,0,33.363,57.215Z" transform="translate(-32 -51.9)" fill="#303030"/>
      </g>
      <g id="Group_161" data-name="Group 161" transform="translate(39.479 77.195)">
        <path id="Path_295" data-name="Path 295" d="M37.414,62.388l-1.635,1.635v-5.86A1.288,1.288,0,0,0,34.415,56.8h0a1.366,1.366,0,0,0-1.363,1.363v5.86l-1.635-1.635A1.349,1.349,0,1,0,29.509,64.3l3.952,3.952a1.472,1.472,0,0,0,.954.409,1.237,1.237,0,0,0,.954-.409L39.322,64.3a1.349,1.349,0,0,0-1.908-1.908Z" transform="translate(-29.1 -56.8)" fill="#303030"/>
      </g>
      <g id="Group_162" data-name="Group 162" transform="translate(22.443 22.406)">
        <path id="Path_296" data-name="Path 296" d="M18.781,20.689a1.349,1.349,0,0,0,1.908-1.908l-1.772-1.772a1.349,1.349,0,0,0-1.908,1.908Z" transform="translate(-16.6 -16.6)" fill="#303030"/>
      </g>
      <g id="Group_163" data-name="Group 163" transform="translate(13.039 13.139)">
        <path id="Path_297" data-name="Path 297" d="M11.063,18.114a1.288,1.288,0,0,0,1.363-1.363V14.434l4.089,4.089a1.349,1.349,0,0,0,1.908-1.908l-4.089-4.089h2.317a1.288,1.288,0,0,0,1.363-1.363A1.288,1.288,0,0,0,16.651,9.8H11.063A1.288,1.288,0,0,0,9.7,11.163v5.588A1.466,1.466,0,0,0,11.063,18.114Z" transform="translate(-9.7 -9.8)" fill="#303030"/>
      </g>
      <g id="Group_164" data-name="Group 164" transform="translate(62.648 62.612)">
        <path id="Path_298" data-name="Path 298" d="M48.417,46.509a1.349,1.349,0,0,0-1.908,1.908l1.772,1.772a1.472,1.472,0,0,0,.954.409,1.237,1.237,0,0,0,.954-.409,1.317,1.317,0,0,0,0-1.908Z" transform="translate(-46.1 -46.1)" fill="#303030"/>
      </g>
      <g id="Group_165" data-name="Group 165" transform="translate(67.418 67.246)">
        <path id="Path_299" data-name="Path 299" d="M57.369,50.318a1.288,1.288,0,0,0-1.363,1.363V54l-4.089-4.089a1.349,1.349,0,0,0-1.908,1.908L54.1,55.906H51.781a1.363,1.363,0,1,0,0,2.726h5.588a1.288,1.288,0,0,0,1.363-1.363V51.681A1.466,1.466,0,0,0,57.369,50.318Z" transform="translate(-49.6 -49.5)" fill="#303030"/>
      </g>
      <g id="Group_166" data-name="Group 166" transform="translate(13.72 43.395)">
        <path id="Path_300" data-name="Path 300" d="M11.563,32h0a1.363,1.363,0,1,0,0,2.726h2.59a1.366,1.366,0,0,0,1.363-1.363A1.288,1.288,0,0,0,14.152,32Z" transform="translate(-10.2 -32)" fill="#303030"/>
      </g>
      <g id="Group_167" data-name="Group 167" transform="translate(0.5 39.443)">
        <path id="Path_301" data-name="Path 301" d="M10.994,33.052H5.134l1.635-1.635a1.349,1.349,0,0,0-1.908-1.908L.909,33.461a1.317,1.317,0,0,0,0,1.908l3.952,3.952a1.349,1.349,0,0,0,1.908-1.908L5.134,35.778h5.724a1.366,1.366,0,0,0,1.363-1.363A1.253,1.253,0,0,0,10.994,33.052Z" transform="translate(-0.5 -29.1)" fill="#303030"/>
      </g>
      <g id="Group_168" data-name="Group 168" transform="translate(70.689 43.395)">
        <path id="Path_302" data-name="Path 302" d="M55.816,34.726h0a1.363,1.363,0,1,0,0-2.726H53.363A1.366,1.366,0,0,0,52,33.363a1.288,1.288,0,0,0,1.363,1.363Z" transform="translate(-52 -32)" fill="#303030"/>
      </g>
      <g id="Group_169" data-name="Group 169" transform="translate(77.231 39.443)">
        <path id="Path_303" data-name="Path 303" d="M68.248,33.461,64.3,29.509a1.349,1.349,0,0,0-1.908,1.908l1.635,1.635h-5.86A1.366,1.366,0,0,0,56.8,34.415a1.288,1.288,0,0,0,1.363,1.363h5.86l-1.635,1.635A1.349,1.349,0,0,0,64.3,39.322l3.952-3.952A1.317,1.317,0,0,0,68.248,33.461Z" transform="translate(-56.8 -29.1)" fill="#303030"/>
      </g>
      <g id="Group_170" data-name="Group 170" transform="translate(13.175 67.348)">
        <path id="Path_304" data-name="Path 304" d="M16.614,49.882,12.526,53.97V51.653a1.288,1.288,0,0,0-1.363-1.363A1.288,1.288,0,0,0,9.8,51.653v5.588A1.288,1.288,0,0,0,11.163,58.6h5.588a1.363,1.363,0,1,0,0-2.726H14.434l4.089-4.089a1.317,1.317,0,0,0,0-1.908A1.637,1.637,0,0,0,16.614,49.882Z" transform="translate(-9.8 -49.575)" fill="#303030"/>
      </g>
      <g id="Group_171" data-name="Group 171" transform="translate(22.443 62.612)">
        <path id="Path_305" data-name="Path 305" d="M18.781,46.509l-1.772,1.772a1.349,1.349,0,0,0,1.908,1.908l1.772-1.772a1.349,1.349,0,0,0-1.908-1.908Z" transform="translate(-16.6 -46.1)" fill="#303030"/>
      </g>
      <g id="Group_172" data-name="Group 172" transform="translate(62.648 22.406)">
        <path id="Path_306" data-name="Path 306" d="M48.417,20.689l1.772-1.772a1.349,1.349,0,0,0-1.908-1.908l-1.772,1.772a1.349,1.349,0,0,0,1.908,1.908Z" transform="translate(-46.1 -16.6)" fill="#303030"/>
      </g>
      <g id="Group_173" data-name="Group 173" transform="translate(67.418 13.002)">
        <path id="Path_307" data-name="Path 307" d="M57.369,9.7H51.781a1.288,1.288,0,0,0-1.363,1.363,1.288,1.288,0,0,0,1.363,1.363H54.1l-4.089,4.089a1.349,1.349,0,0,0,1.908,1.908l4.089-4.089v2.317a1.363,1.363,0,1,0,2.726,0V11.063A1.466,1.466,0,0,0,57.369,9.7Z" transform="translate(-49.6 -9.7)" fill="#303030"/>
      </g>
    </g>
  </g>
</svg>
